<?xml version="1.0" encoding="utf-8"?>
<!-- Generator: Adobe Illustrator 16.0.2, SVG Export Plug-In . SVG Version: 6.00 Build 0)  -->
<!DOCTYPE svg PUBLIC "-//W3C//DTD SVG 1.1//EN" "http://www.w3.org/Graphics/SVG/1.1/DTD/svg11.dtd">
<svg version="1.1" id="Layer_1" xmlns="http://www.w3.org/2000/svg" xmlns:xlink="http://www.w3.org/1999/xlink" x="0px" y="0px"
	 width="548.108px" height="333.081px" viewBox="0 0 548.108 333.081" enable-background="new 0 0 548.108 333.081"
	 xml:space="preserve">
<g>
	<radialGradient id="SVGID_1_" cx="262.6621" cy="198.2461" r="145.6383" gradientUnits="userSpaceOnUse">
		<stop  offset="0.2473" style="stop-color:#231F20;stop-opacity:0"/>
		<stop  offset="1" style="stop-color:#FFFFFF"/>
	</radialGradient>
	<polygon opacity="0.1" fill="url(#SVGID_1_)" points="418.356,63.411 262.661,333.081 106.968,63.411 	"/>
	<linearGradient id="SVGID_2_" gradientUnits="userSpaceOnUse" x1="0" y1="119.2393" x2="329.2061" y2="119.2393">
		<stop  offset="0" style="stop-color:#FFFFFF;stop-opacity:0"/>
		<stop  offset="0.4731" style="stop-color:#FFFFFF"/>
		<stop  offset="1" style="stop-color:#FFFFFF;stop-opacity:0"/>
	</linearGradient>
	
		<line fill="none" stroke="url(#SVGID_2_)" stroke-width="2" stroke-miterlimit="10" x1="328.621" y1="0.811" x2="0.585" y2="237.668"/>
	
		<linearGradient id="SVGID_3_" gradientUnits="userSpaceOnUse" x1="1816.8052" y1="123.7324" x2="2150.3071" y2="123.7324" gradientTransform="matrix(-1 0 0 1 2364.9131 0)">
		<stop  offset="0" style="stop-color:#FFFFFF;stop-opacity:0"/>
		<stop  offset="0.4731" style="stop-color:#FFFFFF"/>
		<stop  offset="1" style="stop-color:#FFFFFF;stop-opacity:0"/>
	</linearGradient>
	
		<line fill="none" stroke="url(#SVGID_3_)" stroke-width="2" stroke-miterlimit="10" x1="215.172" y1="9.796" x2="547.542" y2="237.668"/>
	<linearGradient id="SVGID_4_" gradientUnits="userSpaceOnUse" x1="27.1094" y1="185.7114" x2="144.0732" y2="185.7114">
		<stop  offset="0" style="stop-color:#FFFFFF;stop-opacity:0"/>
		<stop  offset="0.4731" style="stop-color:#FFFFFF"/>
		<stop  offset="1" style="stop-color:#FFFFFF;stop-opacity:0"/>
	</linearGradient>
	<line fill="none" stroke="url(#SVGID_4_)" stroke-miterlimit="10" x1="27.463" y1="127.583" x2="143.72" y2="243.84"/>
	<linearGradient id="SVGID_5_" gradientUnits="userSpaceOnUse" x1="400.7788" y1="183.4648" x2="517.7427" y2="183.4648">
		<stop  offset="0" style="stop-color:#FFFFFF;stop-opacity:0"/>
		<stop  offset="0.4731" style="stop-color:#FFFFFF"/>
		<stop  offset="1" style="stop-color:#FFFFFF;stop-opacity:0"/>
	</linearGradient>
	<line fill="none" stroke="url(#SVGID_5_)" stroke-miterlimit="10" x1="517.389" y1="125.336" x2="401.132" y2="241.594"/>
	<linearGradient id="SVGID_6_" gradientUnits="userSpaceOnUse" x1="98.8086" y1="101.5991" x2="98.8086" y2="199.0575">
		<stop  offset="0" style="stop-color:#6A2B85"/>
		<stop  offset="0.5191" style="stop-color:#F17821"/>
		<stop  offset="1" style="stop-color:#F7ED28"/>
	</linearGradient>
	<path fill="url(#SVGID_6_)" d="M96.178,196.297c1.005,0.128,2.036,0.202,3.098,0.202c10.448,0,19.321-6.771,21.83-16.986h-11.558
		c-0.701,1.517-3.501,7.295-10.389,7.295c-7.18,0-11.615-6.304-11.615-12.84c0-6.128,4.144-12.608,11.556-12.608
		c5.953,0,9.222,4.32,10.448,7.53h11.558c-1.167-6.771-8.406-17.219-21.947-17.219c-14.125,0-22.647,11.323-22.647,22.355
		c0,0.936,0.066,1.865,0.181,2.786L96.178,196.297z"/>
	<linearGradient id="SVGID_7_" gradientUnits="userSpaceOnUse" x1="145.229" y1="101.5991" x2="145.229" y2="199.0575">
		<stop  offset="0" style="stop-color:#6A2B85"/>
		<stop  offset="0.5191" style="stop-color:#F17821"/>
		<stop  offset="1" style="stop-color:#F7ED28"/>
	</linearGradient>
	<path fill="url(#SVGID_7_)" d="M122.436,174.552c0-14.125,10.857-22.88,22.763-22.88c13.308,0,22.823,10.389,22.823,22.414
		c0,12.022-9.456,22.414-22.882,22.414c-13.6,0-22.704-10.799-22.704-21.889V174.552z M133.467,174.027
		c0,6.595,4.495,12.782,11.908,12.782c7.822,0,11.615-7.12,11.615-12.666c0-5.603-3.793-12.783-11.732-12.783
		c-7.645,0-11.791,6.538-11.791,12.608V174.027z"/>
	<linearGradient id="SVGID_8_" gradientUnits="userSpaceOnUse" x1="183.9795" y1="101.5996" x2="183.9795" y2="199.0565">
		<stop  offset="0" style="stop-color:#6A2B85"/>
		<stop  offset="0.5191" style="stop-color:#F17821"/>
		<stop  offset="1" style="stop-color:#F7ED28"/>
	</linearGradient>
	<path fill="url(#SVGID_8_)" d="M172.072,152.488h11.031v33.504h12.783v9.689h-23.814V152.488z"/>
	<linearGradient id="SVGID_9_" gradientUnits="userSpaceOnUse" x1="217.9312" y1="101.5991" x2="217.9312" y2="199.0575">
		<stop  offset="0" style="stop-color:#6A2B85"/>
		<stop  offset="0.5191" style="stop-color:#F17821"/>
		<stop  offset="1" style="stop-color:#F7ED28"/>
	</linearGradient>
	<path fill="url(#SVGID_9_)" d="M195.138,174.552c0-14.125,10.857-22.88,22.764-22.88c13.309,0,22.822,10.389,22.822,22.414
		c0,12.022-9.456,22.414-22.88,22.414c-13.6,0-22.706-10.799-22.706-21.889V174.552z M206.171,174.027
		c0,6.595,4.495,12.782,11.907,12.782c7.821,0,11.615-7.12,11.615-12.666c0-5.603-3.794-12.783-11.731-12.783
		c-7.647,0-11.791,6.538-11.791,12.608V174.027z"/>
	<linearGradient id="SVGID_10_" gradientUnits="userSpaceOnUse" x1="261.5967" y1="101.5996" x2="261.5967" y2="199.0565">
		<stop  offset="0" style="stop-color:#6A2B85"/>
		<stop  offset="0.5191" style="stop-color:#F17821"/>
		<stop  offset="1" style="stop-color:#F7ED28"/>
	</linearGradient>
	<path fill="url(#SVGID_10_)" d="M244.641,152.488h14.125c6.771,0,10.975,1.226,13.367,3.094c3.618,2.802,5.252,7.063,5.252,11.791
		c0,3.327-0.933,5.895-2.158,7.821c-1.46,2.276-3.56,3.736-5.604,4.611l8.93,15.876h-11.38l-11.266-20.837h1.809
		c2.801,0,5.195-0.233,6.654-1.168c1.343-0.875,2.452-2.918,2.452-5.311c0-2.276-1.109-4.086-2.568-5.02
		c-1.226-0.758-2.977-1.167-4.494-1.167h-4.086v33.503h-11.032V152.488z"/>
	<linearGradient id="SVGID_11_" gradientUnits="userSpaceOnUse" x1="319.0049" y1="101.5996" x2="319.0049" y2="199.0567">
		<stop  offset="0" style="stop-color:#6A2B85"/>
		<stop  offset="0.5191" style="stop-color:#F17821"/>
		<stop  offset="1" style="stop-color:#F7ED28"/>
	</linearGradient>
	<path fill="url(#SVGID_11_)" d="M328.341,166.964c-0.583-1.051-1.343-2.043-2.276-2.919c-1.81-1.576-4.204-2.685-7.239-2.685
		c-5.428,0-11.79,4.028-11.79,12.549c0,9.047,6.421,12.958,11.849,12.958c2.744,0,5.019-0.701,6.771-1.926
		c1.752-1.167,2.978-2.918,3.562-5.02h-12.901v-8.813h25.624c0.234,3.093-0.117,8.171-1.985,12.374
		c-4.202,9.514-13.891,13.075-21.012,13.075c-13.075,0-22.939-10.214-22.939-22.647c0-12.899,10.39-22.238,23.114-22.238
		c10.331,0,19.203,6.946,21.596,15.293H328.341z"/>
	<linearGradient id="SVGID_12_" gradientUnits="userSpaceOnUse" x1="361.3242" y1="101.5996" x2="361.3242" y2="199.0565">
		<stop  offset="0" style="stop-color:#6A2B85"/>
		<stop  offset="0.5191" style="stop-color:#F17821"/>
		<stop  offset="1" style="stop-color:#F7ED28"/>
	</linearGradient>
	<path fill="url(#SVGID_12_)" d="M351.694,195.681h-11.966l17.102-43.193h9.514l16.578,43.193h-12.082l-2.044-6.245h-15.118
		L351.694,195.681z M361.091,165.621l-4.67,15.059h9.515L361.091,165.621z"/>
	<linearGradient id="SVGID_13_" gradientUnits="userSpaceOnUse" x1="407.5288" y1="101.5996" x2="407.5288" y2="199.0565">
		<stop  offset="0" style="stop-color:#6A2B85"/>
		<stop  offset="0.5191" style="stop-color:#F17821"/>
		<stop  offset="1" style="stop-color:#F7ED28"/>
	</linearGradient>
	<path fill="url(#SVGID_13_)" d="M384.735,195.681v-43.193h14.769l8.113,27.842l7.88-27.842h14.825v43.193h-10.155l0.349-32.336
		l-9.338,32.336h-7.296l-9.34-32.336l0.351,32.336H384.735z"/>
	<linearGradient id="SVGID_14_" gradientUnits="userSpaceOnUse" x1="448.6265" y1="101.5996" x2="448.6265" y2="199.0565">
		<stop  offset="0" style="stop-color:#6A2B85"/>
		<stop  offset="0.5191" style="stop-color:#F17821"/>
		<stop  offset="1" style="stop-color:#F7ED28"/>
	</linearGradient>
	<polygon fill="url(#SVGID_14_)" points="456.736,185.992 447.429,185.992 447.429,178.58 460.445,178.58 460.445,168.89 
		447.429,168.89 447.429,162.178 460.855,162.178 460.855,152.488 436.397,152.488 436.397,195.681 447.045,195.681 	"/>
	<g>
		<linearGradient id="SVGID_15_" gradientUnits="userSpaceOnUse" x1="236.1997" y1="101.5991" x2="236.1997" y2="199.0569">
			<stop  offset="0" style="stop-color:#6A2B85"/>
			<stop  offset="0.5191" style="stop-color:#F17821"/>
			<stop  offset="1" style="stop-color:#F7ED28"/>
		</linearGradient>
		<path fill="url(#SVGID_15_)" d="M231.975,101.093h-9.137v-7.481h26.725v7.481h-9.081v34.775h-8.507V101.093z"/>
		<linearGradient id="SVGID_16_" gradientUnits="userSpaceOnUse" x1="268.0737" y1="101.5991" x2="268.0737" y2="199.0569">
			<stop  offset="0" style="stop-color:#6A2B85"/>
			<stop  offset="0.5191" style="stop-color:#F17821"/>
			<stop  offset="1" style="stop-color:#F7ED28"/>
		</linearGradient>
		<path fill="url(#SVGID_16_)" d="M251.428,135.868V93.611h8.508v16.96h16.275v-16.96h8.508v42.257h-8.508v-17.817h-16.275v17.817
			H251.428z"/>
		<linearGradient id="SVGID_17_" gradientUnits="userSpaceOnUse" x1="302.6777" y1="101.5991" x2="302.6777" y2="199.0569">
			<stop  offset="0" style="stop-color:#6A2B85"/>
			<stop  offset="0.5191" style="stop-color:#F17821"/>
			<stop  offset="1" style="stop-color:#F7ED28"/>
		</linearGradient>
		<path fill="url(#SVGID_17_)" d="M290.829,93.611h23.698v7.481h-15.188v9.593h14.901v7.48h-14.901v10.222h15.188v7.48h-23.698
			V93.611z"/>
	</g>
</g>
</svg>
