<?xml version="1.0" encoding="utf-8"?>
<!-- Generator: Adobe Illustrator 16.0.2, SVG Export Plug-In . SVG Version: 6.00 Build 0)  -->
<!DOCTYPE svg PUBLIC "-//W3C//DTD SVG 1.1//EN" "http://www.w3.org/Graphics/SVG/1.1/DTD/svg11.dtd">
<svg version="1.1" id="Layer_1" xmlns="http://www.w3.org/2000/svg" xmlns:xlink="http://www.w3.org/1999/xlink" x="0px" y="0px"
	 width="509.103px" height="31.895px" viewBox="0 0 509.103 31.895" enable-background="new 0 0 509.103 31.895"
	 xml:space="preserve">
<g>
	<defs>
		<path id="SVGID_1_" d="M2.9,6.362C0.967,8.248,0,10.885,0,14.274c0,3.476,0.883,6.151,2.649,8.028
			c1.767,1.875,4.267,2.815,7.503,2.815c2.948,0,5.652-0.423,8.113-1.265V12.537H9.205v4.38h3.747v3.289
			c-0.708,0.162-1.484,0.244-2.325,0.244c-1.542,0-2.722-0.515-3.54-1.544c-0.819-1.03-1.228-2.524-1.228-4.488
			c0-2,0.453-3.54,1.356-4.616c0.905-1.078,2.186-1.616,3.842-1.616c1.809,0,3.469,0.374,4.983,1.12l1.794-4.452
			c-0.871-0.383-1.894-0.699-3.065-0.948c-1.173-0.248-2.42-0.374-3.742-0.374C7.543,3.532,4.834,4.476,2.9,6.362"/>
	</defs>
	<clipPath id="SVGID_2_">
		<use xlink:href="#SVGID_1_"  overflow="visible"/>
	</clipPath>
	
		<linearGradient id="SVGID_3_" gradientUnits="userSpaceOnUse" x1="-44.1392" y1="122.7358" x2="-43.4229" y2="122.7358" gradientTransform="matrix(709.7485 0 0 -709.7485 31327.5664 87125.7656)">
		<stop  offset="0" style="stop-color:#F47821"/>
		<stop  offset="0.304" style="stop-color:#F47821"/>
		<stop  offset="1" style="stop-color:#F9ED29"/>
	</linearGradient>
	<rect y="3.532" clip-path="url(#SVGID_2_)" fill="url(#SVGID_3_)" width="18.266" height="21.585"/>
</g>
<g>
	<defs>
		<path id="SVGID_4_" d="M26.81,19.66c0-1.293,0.924-1.973,2.771-2.04l1.292-0.058v1.264c0,0.689-0.242,1.25-0.725,1.682
			c-0.484,0.43-1.065,0.646-1.745,0.646C27.341,21.153,26.81,20.656,26.81,19.66 M22.717,9.736l1.623,3.706
			c1.828-0.805,3.337-1.207,4.524-1.207c1.321,0,1.982,0.67,1.982,2.011v0.229l-2.715,0.087c-2.288,0.104-4.035,0.582-5.242,1.429
			c-1.206,0.847-1.809,2.138-1.809,3.869c0,1.666,0.44,2.959,1.321,3.878c0.88,0.92,2.086,1.38,3.619,1.38
			c1.244,0,2.259-0.173,3.044-0.518c0.785-0.346,1.556-0.986,2.312-1.926h0.116l1.076,2.155h3.892V14.16
			c0-1.857-0.572-3.303-1.715-4.337c-1.145-1.033-2.76-1.551-4.848-1.551C27.005,8.272,24.613,8.76,22.717,9.736"/>
	</defs>
	<clipPath id="SVGID_5_">
		<use xlink:href="#SVGID_4_"  overflow="visible"/>
	</clipPath>
	
		<linearGradient id="SVGID_6_" gradientUnits="userSpaceOnUse" x1="-44.1396" y1="122.7378" x2="-43.4138" y2="122.7378" gradientTransform="matrix(709.7485 0 0 -709.7485 31327.5664 87129.2656)">
		<stop  offset="0" style="stop-color:#F47821"/>
		<stop  offset="0.304" style="stop-color:#F47821"/>
		<stop  offset="1" style="stop-color:#F9ED29"/>
	</linearGradient>
	<rect x="21.08" y="8.272" clip-path="url(#SVGID_5_)" fill="url(#SVGID_6_)" width="15.379" height="16.846"/>
</g>
<g>
	<defs>
		<rect id="SVGID_7_" x="40.115" y="2.485" width="5.614" height="22.345"/>
	</defs>
	<clipPath id="SVGID_8_">
		<use xlink:href="#SVGID_7_"  overflow="visible"/>
	</clipPath>
	
		<linearGradient id="SVGID_9_" gradientUnits="userSpaceOnUse" x1="-44.1401" y1="122.7358" x2="-43.4129" y2="122.7358" gradientTransform="matrix(709.7485 0 0 -709.7485 31327.5664 87125.2656)">
		<stop  offset="0" style="stop-color:#F47821"/>
		<stop  offset="0.304" style="stop-color:#F47821"/>
		<stop  offset="1" style="stop-color:#F9ED29"/>
	</linearGradient>
	<rect x="40.115" y="2.485" clip-path="url(#SVGID_8_)" fill="url(#SVGID_9_)" width="5.614" height="22.345"/>
</g>
<g>
	<defs>
		<path id="SVGID_10_" d="M54.212,19.66c0-1.293,0.924-1.973,2.772-2.04l1.292-0.058v1.264c0,0.689-0.241,1.25-0.725,1.682
			c-0.483,0.43-1.065,0.646-1.744,0.646C54.744,21.153,54.212,20.656,54.212,19.66 M50.121,9.736l1.623,3.706
			c1.828-0.805,3.336-1.207,4.523-1.207c1.321,0,1.982,0.67,1.982,2.011v0.229l-2.714,0.087c-2.288,0.104-4.036,0.582-5.242,1.429
			c-1.207,0.847-1.81,2.138-1.81,3.869c0,1.666,0.44,2.959,1.322,3.878c0.879,0.92,2.086,1.38,3.618,1.38
			c1.245,0,2.258-0.173,3.044-0.518c0.785-0.346,1.555-0.986,2.312-1.926h0.115l1.077,2.155h3.891V14.16
			c0-1.857-0.571-3.303-1.715-4.337c-1.144-1.033-2.759-1.551-4.846-1.551C54.409,8.272,52.016,8.76,50.121,9.736"/>
	</defs>
	<clipPath id="SVGID_11_">
		<use xlink:href="#SVGID_10_"  overflow="visible"/>
	</clipPath>
	
		<linearGradient id="SVGID_12_" gradientUnits="userSpaceOnUse" x1="-44.1401" y1="122.7378" x2="-43.4143" y2="122.7378" gradientTransform="matrix(709.7485 0 0 -709.7485 31327.5664 87129.2656)">
		<stop  offset="0" style="stop-color:#F47821"/>
		<stop  offset="0.304" style="stop-color:#F47821"/>
		<stop  offset="1" style="stop-color:#F9ED29"/>
	</linearGradient>
	<rect x="48.483" y="8.272" clip-path="url(#SVGID_11_)" fill="url(#SVGID_12_)" width="15.379" height="16.846"/>
</g>
<g>
	<defs>
		<polygon id="SVGID_13_" points="77.516,8.56 74.989,13.125 72.518,8.56 66.143,8.56 71.111,16.529 65.87,24.83 72.26,24.83 
			74.989,19.89 77.731,24.83 84.107,24.83 78.808,16.529 83.905,8.56 		"/>
	</defs>
	<clipPath id="SVGID_14_">
		<use xlink:href="#SVGID_13_"  overflow="visible"/>
	</clipPath>
	
		<linearGradient id="SVGID_15_" gradientUnits="userSpaceOnUse" x1="-44.1392" y1="122.7378" x2="-43.4229" y2="122.7378" gradientTransform="matrix(709.7485 0 0 -709.7485 31327.5664 87129.2656)">
		<stop  offset="0" style="stop-color:#F47821"/>
		<stop  offset="0.304" style="stop-color:#F47821"/>
		<stop  offset="1" style="stop-color:#F9ED29"/>
	</linearGradient>
	<rect x="65.87" y="8.56" clip-path="url(#SVGID_14_)" fill="url(#SVGID_15_)" width="18.237" height="16.27"/>
</g>
<g>
	<defs>
		<path id="SVGID_16_" d="M97.321,8.56l-2.828,9.363c-0.155,0.497-0.269,1.075-0.346,1.737h-0.115
			c-0.048-0.689-0.139-1.277-0.272-1.767L91.003,8.56h-5.916L91.491,24.6c-0.315,0.794-0.612,1.365-0.89,1.716
			c-0.277,0.35-0.602,0.619-0.976,0.811s-0.809,0.288-1.307,0.288c-0.651,0-1.231-0.058-1.738-0.172v4.407
			c0.786,0.163,1.551,0.245,2.297,0.245c1.934,0,3.501-0.456,4.704-1.365c1.2-0.908,2.213-2.466,3.036-4.666l6.434-17.304H97.321z"
			/>
	</defs>
	<clipPath id="SVGID_17_">
		<use xlink:href="#SVGID_16_"  overflow="visible"/>
	</clipPath>
	
		<linearGradient id="SVGID_18_" gradientUnits="userSpaceOnUse" x1="-44.1401" y1="122.7397" x2="-43.4179" y2="122.7397" gradientTransform="matrix(709.7485 0 0 -709.7485 31327.5664 87134.2656)">
		<stop  offset="0" style="stop-color:#F47821"/>
		<stop  offset="0.304" style="stop-color:#F47821"/>
		<stop  offset="1" style="stop-color:#F9ED29"/>
	</linearGradient>
	<rect x="85.087" y="8.56" clip-path="url(#SVGID_17_)" fill="url(#SVGID_18_)" width="17.964" height="23.335"/>
</g>
<g>
	<defs>
		<rect id="SVGID_19_" x="111.753" y="14.921" width="12.579" height="3.962"/>
	</defs>
	<clipPath id="SVGID_20_">
		<use xlink:href="#SVGID_19_"  overflow="visible"/>
	</clipPath>
	
		<linearGradient id="SVGID_21_" gradientUnits="userSpaceOnUse" x1="-44.1396" y1="122.7378" x2="-43.4196" y2="122.7378" gradientTransform="matrix(709.7485 0 0 -709.7485 31327.5664 87129.7656)">
		<stop  offset="0" style="stop-color:#F47821"/>
		<stop  offset="0.304" style="stop-color:#F47821"/>
		<stop  offset="1" style="stop-color:#F9ED29"/>
	</linearGradient>
	<rect x="111.753" y="14.921" clip-path="url(#SVGID_20_)" fill="url(#SVGID_21_)" width="12.579" height="3.962"/>
</g>
<g>
	<defs>
		<path id="SVGID_22_" d="M136.582,5.156c-1.408,1.082-2.111,2.59-2.111,4.523c0,1.034,0.165,1.929,0.495,2.685
			c0.331,0.758,0.838,1.428,1.522,2.012c0.685,0.583,1.712,1.187,3.081,1.81c1.512,0.679,2.444,1.13,2.794,1.35
			c0.348,0.219,0.603,0.438,0.76,0.652c0.158,0.216,0.237,0.467,0.237,0.754c0,0.459-0.197,0.835-0.589,1.128
			c-0.392,0.292-1.009,0.438-1.852,0.438c-0.978,0-2.049-0.156-3.218-0.469c-1.167-0.31-2.292-0.742-3.374-1.299v5.055
			c1.024,0.488,2.01,0.832,2.958,1.028c0.947,0.195,2.12,0.295,3.519,0.295c1.675,0,3.135-0.282,4.379-0.842
			c1.245-0.561,2.196-1.346,2.858-2.355c0.661-1.01,0.991-2.167,0.991-3.468c0-1.417-0.352-2.592-1.056-3.525
			c-0.703-0.932-1.96-1.806-3.769-2.621c-1.887-0.86-3.042-1.454-3.469-1.78c-0.426-0.325-0.639-0.695-0.639-1.106
			c0-0.383,0.167-0.704,0.502-0.962c0.335-0.258,0.872-0.388,1.609-0.388c1.426,0,3.121,0.452,5.083,1.35l1.738-4.379
			c-2.26-1.005-4.476-1.509-6.649-1.509C139.922,3.532,137.989,4.074,136.582,5.156"/>
	</defs>
	<clipPath id="SVGID_23_">
		<use xlink:href="#SVGID_22_"  overflow="visible"/>
	</clipPath>
	
		<linearGradient id="SVGID_24_" gradientUnits="userSpaceOnUse" x1="-44.1377" y1="122.7358" x2="-43.4258" y2="122.7358" gradientTransform="matrix(709.7485 0 0 -709.7485 31327.5664 87125.7656)">
		<stop  offset="0" style="stop-color:#F47821"/>
		<stop  offset="0.304" style="stop-color:#F47821"/>
		<stop  offset="1" style="stop-color:#F9ED29"/>
	</linearGradient>
	<rect x="134.328" y="3.532" clip-path="url(#SVGID_23_)" fill="url(#SVGID_24_)" width="14.705" height="21.585"/>
</g>
<g>
	<defs>
		<path id="SVGID_25_" d="M156.998,19.66c0-1.293,0.923-1.973,2.771-2.04l1.292-0.058v1.264c0,0.689-0.242,1.25-0.725,1.682
			c-0.483,0.43-1.065,0.646-1.745,0.646C157.528,21.153,156.998,20.656,156.998,19.66 M152.905,9.736l1.623,3.706
			c1.829-0.805,3.336-1.207,4.523-1.207c1.322,0,1.982,0.67,1.982,2.011v0.229l-2.714,0.087c-2.289,0.104-4.036,0.582-5.241,1.429
			c-1.207,0.847-1.81,2.138-1.81,3.869c0,1.666,0.441,2.959,1.322,3.878c0.88,0.92,2.086,1.38,3.619,1.38
			c1.245,0,2.259-0.173,3.044-0.518c0.786-0.346,1.556-0.986,2.312-1.926h0.115l1.077,2.155h3.892V14.16
			c0-1.857-0.572-3.303-1.716-4.337c-1.143-1.033-2.759-1.551-4.846-1.551C157.194,8.272,154.801,8.76,152.905,9.736 M162.942,2.125
			c-0.058,0.681-0.383,1.224-0.976,1.63c-0.594,0.408-1.341,0.61-2.24,0.61c-0.939,0-1.681-0.199-2.226-0.596
			c-0.546-0.397-0.872-0.945-0.977-1.645h-2.67c0.115,1.484,0.705,2.67,1.773,3.555c1.068,0.885,2.454,1.328,4.158,1.328
			c1.818,0,3.211-0.417,4.179-1.25c0.966-0.833,1.469-2.043,1.507-3.633H162.942z M159.496,0c-0.23,0.537-0.632,1.284-1.207,2.24
			l-0.359,0.618v0.416h2.212c0.813-0.68,1.805-1.67,2.972-2.973V0H159.496z"/>
	</defs>
	<clipPath id="SVGID_26_">
		<use xlink:href="#SVGID_25_"  overflow="visible"/>
	</clipPath>
	
		<linearGradient id="SVGID_27_" gradientUnits="userSpaceOnUse" x1="-44.1367" y1="122.7358" x2="-43.427" y2="122.7358" gradientTransform="matrix(709.7485 0 0 -709.7485 31327.5664 87123.7656)">
		<stop  offset="0" style="stop-color:#F47821"/>
		<stop  offset="0.304" style="stop-color:#F47821"/>
		<stop  offset="1" style="stop-color:#F9ED29"/>
	</linearGradient>
	<rect x="151.268" clip-path="url(#SVGID_26_)" fill="url(#SVGID_27_)" width="15.379" height="25.118"/>
</g>
<g>
	<defs>
		<path id="SVGID_28_" d="M171.839,10.498c-1.484,1.483-2.226,3.575-2.226,6.274c0,2.691,0.687,4.754,2.061,6.19
			c1.374,1.436,3.392,2.155,6.053,2.155c2.029,0,3.768-0.48,5.213-1.438v-4.466c-1.514,0.957-3.092,1.436-4.739,1.436
			c-1.924,0-2.887-1.302-2.887-3.905c0-1.292,0.249-2.293,0.747-3.002c0.498-0.707,1.201-1.063,2.11-1.063
			c0.623,0,1.221,0.09,1.795,0.266c0.575,0.179,1.202,0.415,1.882,0.71l1.651-4.148c-1.666-0.824-3.442-1.235-5.328-1.235
			C175.434,8.272,173.323,9.014,171.839,10.498"/>
	</defs>
	<clipPath id="SVGID_29_">
		<use xlink:href="#SVGID_28_"  overflow="visible"/>
	</clipPath>
	
		<linearGradient id="SVGID_30_" gradientUnits="userSpaceOnUse" x1="-44.1426" y1="122.7378" x2="-43.4153" y2="122.7378" gradientTransform="matrix(709.7485 0 0 -709.7485 31327.5664 87129.2656)">
		<stop  offset="0" style="stop-color:#F47821"/>
		<stop  offset="0.304" style="stop-color:#F47821"/>
		<stop  offset="1" style="stop-color:#F9ED29"/>
	</linearGradient>
	<rect x="169.614" y="8.272" clip-path="url(#SVGID_29_)" fill="url(#SVGID_30_)" width="13.886" height="16.846"/>
</g>
<g>
	<defs>
		<path id="SVGID_31_" d="M211.05,8.838c-0.82,0.38-1.458,0.902-1.918,1.573h-0.444c-0.948-1.426-2.595-2.14-4.94-2.14
			c-1.044,0-1.974,0.197-2.793,0.589c-0.818,0.392-1.443,0.962-1.873,1.708h-0.331l-0.704-2.01h-4.237v16.27h5.614v-7.122
			c0-1.781,0.202-3.065,0.604-3.85c0.402-0.785,1.042-1.178,1.923-1.178c0.642,0,1.106,0.276,1.393,0.826
			c0.288,0.551,0.431,1.376,0.431,2.478v8.846h5.629v-7.582c0-1.57,0.201-2.725,0.603-3.461c0.402-0.738,1.034-1.106,1.896-1.106
			c0.651,0,1.127,0.276,1.429,0.826c0.302,0.551,0.453,1.376,0.453,2.478v8.846h5.615V14.246c0-2.011-0.46-3.508-1.378-4.495
			c-0.919-0.985-2.341-1.479-4.265-1.479C212.77,8.272,211.868,8.461,211.05,8.838"/>
	</defs>
	<clipPath id="SVGID_32_">
		<use xlink:href="#SVGID_31_"  overflow="visible"/>
	</clipPath>
	
		<linearGradient id="SVGID_33_" gradientUnits="userSpaceOnUse" x1="-44.1357" y1="122.7378" x2="-43.427" y2="122.7378" gradientTransform="matrix(709.7485 0 0 -709.7485 31327.5664 87129.2656)">
		<stop  offset="0" style="stop-color:#F47821"/>
		<stop  offset="0.304" style="stop-color:#F47821"/>
		<stop  offset="1" style="stop-color:#F9ED29"/>
	</linearGradient>
	<rect x="193.81" y="8.272" clip-path="url(#SVGID_32_)" fill="url(#SVGID_33_)" width="25.59" height="16.558"/>
</g>
<g>
	<defs>
		<path id="SVGID_34_" d="M227.762,19.66c0-1.293,0.924-1.973,2.771-2.04l1.292-0.058v1.264c0,0.689-0.242,1.25-0.725,1.682
			c-0.483,0.43-1.065,0.646-1.745,0.646C228.293,21.153,227.762,20.656,227.762,19.66 M223.669,9.736l1.623,3.706
			c1.828-0.805,3.336-1.207,4.523-1.207c1.322,0,1.982,0.67,1.982,2.011v0.229l-2.714,0.087c-2.288,0.104-4.035,0.582-5.241,1.429
			c-1.207,0.847-1.811,2.138-1.811,3.869c0,1.666,0.441,2.959,1.322,3.878c0.88,0.92,2.087,1.38,3.619,1.38
			c1.244,0,2.259-0.173,3.044-0.518c0.784-0.346,1.556-0.986,2.313-1.926h0.115l1.077,2.155h3.892V14.16
			c0-1.857-0.572-3.303-1.716-4.337c-1.144-1.033-2.761-1.551-4.846-1.551C227.958,8.272,225.564,8.76,223.669,9.736 M223.898,2.298
			V2.6c0.9,0.708,1.994,1.515,3.281,2.419c1.288,0.905,2.262,1.568,2.923,1.989h3.733V6.591l-0.847-0.948
			c-1.446-1.56-2.417-2.675-2.915-3.346H223.898z"/>
	</defs>
	<clipPath id="SVGID_35_">
		<use xlink:href="#SVGID_34_"  overflow="visible"/>
	</clipPath>
	
		<linearGradient id="SVGID_36_" gradientUnits="userSpaceOnUse" x1="-44.1411" y1="122.7358" x2="-43.4198" y2="122.7358" gradientTransform="matrix(709.7485 0 0 -709.7485 31327.5664 87125.2656)">
		<stop  offset="0" style="stop-color:#F47821"/>
		<stop  offset="0.304" style="stop-color:#F47821"/>
		<stop  offset="1" style="stop-color:#F9ED29"/>
	</linearGradient>
	<rect x="222.031" y="2.298" clip-path="url(#SVGID_35_)" fill="url(#SVGID_36_)" width="15.38" height="22.82"/>
</g>
<g>
	<defs>
		<path id="SVGID_37_" d="M251.192,8.56v7.122c0,1.811-0.207,3.095-0.618,3.856c-0.412,0.761-1.101,1.141-2.068,1.141
			c-0.689,0-1.185-0.271-1.486-0.818c-0.302-0.545-0.452-1.35-0.452-2.412V8.56h-5.615v10.597c0,1.896,0.498,3.362,1.494,4.402
			c0.995,1.037,2.388,1.559,4.178,1.559c1.13,0,2.114-0.2,2.952-0.599c0.837-0.396,1.49-0.969,1.96-1.714h0.331l0.703,2.024h4.237
			V8.56H251.192z"/>
	</defs>
	<clipPath id="SVGID_38_">
		<use xlink:href="#SVGID_37_"  overflow="visible"/>
	</clipPath>
	
		<linearGradient id="SVGID_39_" gradientUnits="userSpaceOnUse" x1="-44.1377" y1="122.7378" x2="-43.4234" y2="122.7378" gradientTransform="matrix(709.7485 0 0 -709.7485 31327.5664 87129.2656)">
		<stop  offset="0" style="stop-color:#F47821"/>
		<stop  offset="0.304" style="stop-color:#F47821"/>
		<stop  offset="1" style="stop-color:#F9ED29"/>
	</linearGradient>
	<rect x="240.953" y="8.56" clip-path="url(#SVGID_38_)" fill="url(#SVGID_39_)" width="15.853" height="16.558"/>
</g>
<g>
	<defs>
		<path id="SVGID_40_" d="M269.845,10.498c-1.484,1.483-2.225,3.575-2.225,6.274c0,2.691,0.687,4.754,2.06,6.19
			c1.374,1.436,3.391,2.155,6.053,2.155c2.03,0,3.767-0.48,5.212-1.438v-4.466c-1.512,0.957-3.091,1.436-4.738,1.436
			c-1.925,0-2.886-1.302-2.886-3.905c0-1.292,0.25-2.293,0.746-3.002c0.499-0.707,1.202-1.063,2.111-1.063
			c0.623,0,1.222,0.09,1.796,0.266c0.573,0.179,1.201,0.415,1.88,0.71l1.652-4.148c-1.667-0.824-3.443-1.235-5.329-1.235
			C273.439,8.272,271.33,9.014,269.845,10.498"/>
	</defs>
	<clipPath id="SVGID_41_">
		<use xlink:href="#SVGID_40_"  overflow="visible"/>
	</clipPath>
	
		<linearGradient id="SVGID_42_" gradientUnits="userSpaceOnUse" x1="-44.1372" y1="122.7378" x2="-43.4229" y2="122.7378" gradientTransform="matrix(709.7485 0 0 -709.7485 31327.5664 87129.2656)">
		<stop  offset="0" style="stop-color:#F47821"/>
		<stop  offset="0.304" style="stop-color:#F47821"/>
		<stop  offset="1" style="stop-color:#F9ED29"/>
	</linearGradient>
	<rect x="267.62" y="8.272" clip-path="url(#SVGID_41_)" fill="url(#SVGID_42_)" width="13.886" height="16.846"/>
</g>
<g>
	<defs>
		<path id="SVGID_43_" d="M294.246,8.56v7.122c0,1.811-0.206,3.095-0.618,3.856c-0.412,0.761-1.102,1.141-2.068,1.141
			c-0.689,0-1.185-0.271-1.486-0.818c-0.302-0.545-0.453-1.35-0.453-2.412V8.56h-5.615v10.597c0,1.896,0.498,3.362,1.494,4.402
			c0.995,1.037,2.388,1.559,4.179,1.559c1.128,0,2.113-0.2,2.951-0.599c0.836-0.396,1.491-0.969,1.96-1.714h0.33l0.704,2.024h4.235
			V8.56H294.246z M284.609,2.298V2.6c0.901,0.708,1.994,1.515,3.283,2.419c1.286,0.905,2.262,1.568,2.922,1.989h3.733V6.591
			l-0.848-0.948c-1.445-1.56-2.417-2.675-2.915-3.346H284.609z"/>
	</defs>
	<clipPath id="SVGID_44_">
		<use xlink:href="#SVGID_43_"  overflow="visible"/>
	</clipPath>
	
		<linearGradient id="SVGID_45_" gradientUnits="userSpaceOnUse" x1="-44.1401" y1="122.7358" x2="-43.4214" y2="122.7358" gradientTransform="matrix(709.7485 0 0 -709.7485 31327.5664 87125.2656)">
		<stop  offset="0" style="stop-color:#F47821"/>
		<stop  offset="0.304" style="stop-color:#F47821"/>
		<stop  offset="1" style="stop-color:#F9ED29"/>
	</linearGradient>
	<rect x="284.007" y="2.298" clip-path="url(#SVGID_44_)" fill="url(#SVGID_45_)" width="15.853" height="22.82"/>
</g>
<g>
	<defs>
		<path id="SVGID_46_" d="M310.823,8.847c-0.847,0.382-1.51,0.957-1.989,1.722h-0.331L307.8,8.56h-4.237v16.27h5.615v-7.122
			c0-1.84,0.211-3.136,0.632-3.893c0.42-0.756,1.105-1.135,2.053-1.135c0.69,0,1.19,0.276,1.501,0.826
			c0.311,0.551,0.466,1.366,0.466,2.448v8.875h5.616V14.246c0-1.896-0.502-3.364-1.502-4.408c-1-1.044-2.401-1.565-4.2-1.565
			C312.644,8.272,311.669,8.463,310.823,8.847"/>
	</defs>
	<clipPath id="SVGID_47_">
		<use xlink:href="#SVGID_46_"  overflow="visible"/>
	</clipPath>
	
		<linearGradient id="SVGID_48_" gradientUnits="userSpaceOnUse" x1="-44.1401" y1="122.7378" x2="-43.4214" y2="122.7378" gradientTransform="matrix(709.7485 0 0 -709.7485 31327.5664 87129.2656)">
		<stop  offset="0" style="stop-color:#F47821"/>
		<stop  offset="0.304" style="stop-color:#F47821"/>
		<stop  offset="1" style="stop-color:#F9ED29"/>
	</linearGradient>
	<rect x="303.563" y="8.272" clip-path="url(#SVGID_47_)" fill="url(#SVGID_48_)" width="15.883" height="16.558"/>
</g>
<g>
	<defs>
		<path id="SVGID_49_" d="M326.762,27.966c-0.498-0.281-0.748-0.652-0.748-1.112c0-0.412,0.208-0.76,0.626-1.041
			c0.415-0.283,0.925-0.424,1.528-0.424h2.197c0.929,0,1.642,0.088,2.14,0.266c0.498,0.177,0.747,0.48,0.747,0.911
			c0,0.536-0.409,0.975-1.228,1.314c-0.819,0.339-1.907,0.51-3.267,0.51C327.925,28.39,327.26,28.25,326.762,27.966 M327.781,13.886
			c0-1.666,0.579-2.498,1.737-2.498c1.12,0,1.68,0.843,1.68,2.527c0,0.823-0.146,1.44-0.439,1.852
			c-0.292,0.412-0.705,0.618-1.241,0.618C328.36,16.385,327.781,15.553,327.781,13.886 M324.292,9.736
			c-1.207,0.977-1.809,2.351-1.809,4.122c0,1.14,0.241,2.106,0.724,2.9c0.484,0.795,1.147,1.378,1.99,1.752
			c-0.88,0.537-1.46,0.998-1.738,1.386c-0.276,0.389-0.415,0.835-0.415,1.344c0,0.458,0.184,0.924,0.552,1.394
			c0.369,0.468,0.801,0.808,1.3,1.018c-2.412,0.565-3.62,1.819-3.62,3.764c0,1.444,0.626,2.553,1.875,3.324
			c1.25,0.77,3.028,1.156,5.335,1.156c3.054,0,5.426-0.552,7.115-1.652c1.69-1.102,2.535-2.642,2.535-4.624
			c0-3.072-1.824-4.609-5.471-4.609h-2.699c-0.729,0-1.316-0.074-1.767-0.223c-0.45-0.148-0.674-0.361-0.674-0.639
			c0-0.221,0.066-0.455,0.202-0.703c0.353,0.076,0.833,0.114,1.436,0.114c2.44,0,4.276-0.482,5.506-1.451
			c1.23-0.966,1.846-2.325,1.846-4.078c0-0.737-0.153-1.383-0.46-1.938l2.226-0.818V8.56h-5.672
			c-0.345-0.058-0.881-0.12-1.607-0.187c-0.728-0.067-1.24-0.101-1.537-0.101C327.221,8.272,325.498,8.76,324.292,9.736"/>
	</defs>
	<clipPath id="SVGID_50_">
		<use xlink:href="#SVGID_49_"  overflow="visible"/>
	</clipPath>
	
		<linearGradient id="SVGID_51_" gradientUnits="userSpaceOnUse" x1="-44.1416" y1="122.7397" x2="-43.421" y2="122.7397" gradientTransform="matrix(709.7485 0 0 -709.7485 31327.5664 87134.2656)">
		<stop  offset="0" style="stop-color:#F47821"/>
		<stop  offset="0.304" style="stop-color:#F47821"/>
		<stop  offset="1" style="stop-color:#F9ED29"/>
	</linearGradient>
	<rect x="321.275" y="8.272" clip-path="url(#SVGID_50_)" fill="url(#SVGID_51_)" width="17.003" height="23.623"/>
</g>
<g>
	<defs>
		<path id="SVGID_52_" d="M355.647,8.847c-0.847,0.382-1.511,0.957-1.99,1.722h-0.33l-0.703-2.01h-4.237v16.27h5.615v-7.122
			c0-1.84,0.21-3.136,0.631-3.893c0.421-0.756,1.106-1.135,2.054-1.135c0.689,0,1.189,0.276,1.501,0.826
			c0.31,0.551,0.466,1.366,0.466,2.448v8.875h5.615V14.246c0-1.896-0.5-3.364-1.501-4.408c-1-1.044-2.4-1.565-4.2-1.565
			C357.468,8.272,356.494,8.463,355.647,8.847"/>
	</defs>
	<clipPath id="SVGID_53_">
		<use xlink:href="#SVGID_52_"  overflow="visible"/>
	</clipPath>
	
		<linearGradient id="SVGID_54_" gradientUnits="userSpaceOnUse" x1="-44.1294" y1="122.7378" x2="-43.4263" y2="122.7378" gradientTransform="matrix(709.7485 0 0 -709.7485 31327.5664 87129.2656)">
		<stop  offset="0" style="stop-color:#F47821"/>
		<stop  offset="0.304" style="stop-color:#F47821"/>
		<stop  offset="1" style="stop-color:#F9ED29"/>
	</linearGradient>
	<rect x="348.388" y="8.272" clip-path="url(#SVGID_53_)" fill="url(#SVGID_54_)" width="15.882" height="16.558"/>
</g>
<g>
	<defs>
		<path id="SVGID_55_" d="M372.744,19.66c0-1.293,0.924-1.973,2.771-2.04l1.292-0.058v1.264c0,0.689-0.241,1.25-0.726,1.682
			c-0.483,0.43-1.064,0.646-1.744,0.646C373.275,21.153,372.744,20.656,372.744,19.66 M368.651,9.736l1.624,3.706
			c1.826-0.805,3.335-1.207,4.522-1.207c1.32,0,1.981,0.67,1.981,2.011v0.229l-2.715,0.087c-2.289,0.104-4.034,0.582-5.24,1.429
			c-1.207,0.847-1.811,2.138-1.811,3.869c0,1.666,0.44,2.959,1.321,3.878c0.881,0.92,2.087,1.38,3.618,1.38
			c1.246,0,2.26-0.173,3.045-0.518c0.786-0.346,1.556-0.986,2.313-1.926h0.114l1.078,2.155h3.892V14.16
			c0-1.857-0.572-3.303-1.718-4.337c-1.144-1.033-2.759-1.551-4.846-1.551C372.94,8.272,370.545,8.76,368.651,9.736 M378.099,1.681
			c-0.182,0.65-0.485,1.126-0.911,1.428c-0.426,0.301-1.026,0.453-1.802,0.453c-0.91,0-1.544-0.127-1.903-0.381
			c-0.358-0.253-0.635-0.754-0.826-1.5h-3.029c0.086,1.732,0.619,3.054,1.601,3.962c0.982,0.91,2.367,1.365,4.158,1.365
			c1.742,0,3.13-0.479,4.164-1.437c1.034-0.957,1.598-2.254,1.694-3.891H378.099z"/>
	</defs>
	<clipPath id="SVGID_56_">
		<use xlink:href="#SVGID_55_"  overflow="visible"/>
	</clipPath>
	
		<linearGradient id="SVGID_57_" gradientUnits="userSpaceOnUse" x1="-44.1455" y1="122.7358" x2="-43.4197" y2="122.7358" gradientTransform="matrix(709.7485 0 0 -709.7485 31327.5664 87124.7656)">
		<stop  offset="0" style="stop-color:#F47821"/>
		<stop  offset="0.304" style="stop-color:#F47821"/>
		<stop  offset="1" style="stop-color:#F9ED29"/>
	</linearGradient>
	<rect x="367.013" y="1.681" clip-path="url(#SVGID_56_)" fill="url(#SVGID_57_)" width="15.381" height="23.437"/>
</g>
<g>
	<defs>
		<path id="SVGID_58_" d="M403.409,8.838c-0.819,0.38-1.458,0.902-1.917,1.573h-0.445c-0.948-1.426-2.595-2.14-4.94-2.14
			c-1.044,0-1.975,0.197-2.793,0.589s-1.443,0.962-1.874,1.708h-0.331l-0.702-2.01h-4.237v16.27h5.615v-7.122
			c0-1.781,0.201-3.065,0.603-3.85c0.402-0.785,1.045-1.178,1.924-1.178c0.643,0,1.107,0.276,1.394,0.826
			c0.288,0.551,0.431,1.376,0.431,2.478v8.846h5.631v-7.582c0-1.57,0.201-2.725,0.603-3.461c0.402-0.738,1.034-1.106,1.896-1.106
			c0.65,0,1.126,0.276,1.428,0.826c0.303,0.551,0.452,1.376,0.452,2.478v8.846h5.615V14.246c0-2.011-0.459-3.508-1.379-4.495
			c-0.919-0.985-2.34-1.479-4.265-1.479C405.128,8.272,404.226,8.461,403.409,8.838"/>
	</defs>
	<clipPath id="SVGID_59_">
		<use xlink:href="#SVGID_58_"  overflow="visible"/>
	</clipPath>
	
		<linearGradient id="SVGID_60_" gradientUnits="userSpaceOnUse" x1="-44.1323" y1="122.7378" x2="-43.4236" y2="122.7378" gradientTransform="matrix(709.7485 0 0 -709.7485 31327.5664 87129.2656)">
		<stop  offset="0" style="stop-color:#F47821"/>
		<stop  offset="0.304" style="stop-color:#F47821"/>
		<stop  offset="1" style="stop-color:#F9ED29"/>
	</linearGradient>
	<rect x="386.168" y="8.272" clip-path="url(#SVGID_59_)" fill="url(#SVGID_60_)" width="25.59" height="16.558"/>
</g>
<g>
	<defs>
		<path id="SVGID_61_" d="M425.989,5.299l-1.449,3.417l-2.499,1.766v2.284h1.967v6.705c0,1.916,0.417,3.335,1.25,4.259
			c0.834,0.924,2.191,1.387,4.077,1.387c0.92,0,1.722-0.07,2.405-0.21c0.685-0.139,1.405-0.369,2.161-0.695v-4.092
			c-1.052,0.371-1.956,0.558-2.714,0.558c-1.015,0-1.521-0.525-1.521-1.578v-6.333h3.992V8.56h-3.992v-3.26H425.989z"/>
	</defs>
	<clipPath id="SVGID_62_">
		<use xlink:href="#SVGID_61_"  overflow="visible"/>
	</clipPath>
	
		<linearGradient id="SVGID_63_" gradientUnits="userSpaceOnUse" x1="-44.1318" y1="122.7368" x2="-43.4235" y2="122.7368" gradientTransform="matrix(709.7485 0 0 -709.7485 31327.5664 87127.2656)">
		<stop  offset="0" style="stop-color:#F47821"/>
		<stop  offset="0.304" style="stop-color:#F47821"/>
		<stop  offset="1" style="stop-color:#F9ED29"/>
	</linearGradient>
	<rect x="422.041" y="5.299" clip-path="url(#SVGID_62_)" fill="url(#SVGID_63_)" width="11.86" height="19.818"/>
</g>
<g>
	<defs>
		<path id="SVGID_64_" d="M436.853,2.485V24.83h5.616v-7.152c0-1.79,0.217-3.07,0.653-3.842c0.436-0.769,1.112-1.155,2.032-1.155
			c1.291,0,1.938,1.091,1.938,3.274v8.875h5.642V14.246c0-1.886-0.504-3.353-1.513-4.401c-1.011-1.048-2.426-1.572-4.244-1.572
			c-0.978,0-1.834,0.172-2.57,0.518c-0.738,0.344-1.374,0.938-1.909,1.78h-0.26c0.152-1.837,0.23-3.475,0.23-4.911V2.485H436.853z"
			/>
	</defs>
	<clipPath id="SVGID_65_">
		<use xlink:href="#SVGID_64_"  overflow="visible"/>
	</clipPath>
	
		<linearGradient id="SVGID_66_" gradientUnits="userSpaceOnUse" x1="-44.1406" y1="122.7358" x2="-43.4219" y2="122.7358" gradientTransform="matrix(709.7485 0 0 -709.7485 31327.5664 87125.2656)">
		<stop  offset="0" style="stop-color:#F47821"/>
		<stop  offset="0.304" style="stop-color:#F47821"/>
		<stop  offset="1" style="stop-color:#F9ED29"/>
	</linearGradient>
	<rect x="436.853" y="2.485" clip-path="url(#SVGID_65_)" fill="url(#SVGID_66_)" width="15.882" height="22.345"/>
</g>
<g>
	<defs>
		<path id="SVGID_67_" d="M461.085,19.66c0-1.293,0.925-1.973,2.771-2.04l1.293-0.058v1.264c0,0.689-0.242,1.25-0.725,1.682
			c-0.485,0.43-1.066,0.646-1.745,0.646C461.618,21.153,461.085,20.656,461.085,19.66 M456.994,9.736l1.622,3.706
			c1.827-0.805,3.337-1.207,4.524-1.207c1.32,0,1.981,0.67,1.981,2.011v0.229l-2.715,0.087c-2.288,0.104-4.034,0.582-5.24,1.429
			s-1.81,2.138-1.81,3.869c0,1.666,0.439,2.959,1.32,3.878c0.881,0.92,2.087,1.38,3.619,1.38c1.243,0,2.259-0.173,3.044-0.518
			c0.784-0.346,1.556-0.986,2.313-1.926h0.114l1.078,2.155h3.891V14.16c0-1.857-0.572-3.303-1.715-4.337
			c-1.146-1.033-2.761-1.551-4.849-1.551C461.281,8.272,458.888,8.76,456.994,9.736 M464.317,2.298
			c-0.259,0.364-0.587,0.776-0.984,1.234c-0.396,0.46-1.333,1.479-2.807,3.059v0.417h3.733c0.689-0.431,1.704-1.121,3.045-2.068
			c1.341-0.948,2.393-1.728,3.159-2.34V2.298H464.317z"/>
	</defs>
	<clipPath id="SVGID_68_">
		<use xlink:href="#SVGID_67_"  overflow="visible"/>
	</clipPath>
	
		<linearGradient id="SVGID_69_" gradientUnits="userSpaceOnUse" x1="-44.147" y1="122.7358" x2="-43.4212" y2="122.7358" gradientTransform="matrix(709.7485 0 0 -709.7485 31327.5664 87125.2656)">
		<stop  offset="0" style="stop-color:#F47821"/>
		<stop  offset="0.304" style="stop-color:#F47821"/>
		<stop  offset="1" style="stop-color:#F9ED29"/>
	</linearGradient>
	<rect x="455.357" y="2.298" clip-path="url(#SVGID_68_)" fill="url(#SVGID_69_)" width="15.379" height="22.82"/>
</g>
<g>
	<defs>
		<path id="SVGID_70_" d="M481.648,8.847c-0.848,0.382-1.511,0.957-1.989,1.722h-0.33l-0.704-2.01h-4.236v16.27h5.615v-7.122
			c0-1.84,0.21-3.136,0.631-3.893c0.421-0.756,1.106-1.135,2.054-1.135c0.69,0,1.188,0.276,1.501,0.826
			c0.312,0.551,0.467,1.366,0.467,2.448v8.875h5.614V14.246c0-1.896-0.501-3.364-1.501-4.408c-0.999-1.044-2.399-1.565-4.2-1.565
			C483.468,8.272,482.495,8.463,481.648,8.847"/>
	</defs>
	<clipPath id="SVGID_71_">
		<use xlink:href="#SVGID_70_"  overflow="visible"/>
	</clipPath>
	
		<linearGradient id="SVGID_72_" gradientUnits="userSpaceOnUse" x1="-44.1406" y1="122.7378" x2="-43.4219" y2="122.7378" gradientTransform="matrix(709.7485 0 0 -709.7485 31327.5664 87129.2656)">
		<stop  offset="0" style="stop-color:#F47821"/>
		<stop  offset="0.304" style="stop-color:#F47821"/>
		<stop  offset="1" style="stop-color:#F9ED29"/>
	</linearGradient>
	<rect x="474.388" y="8.272" clip-path="url(#SVGID_71_)" fill="url(#SVGID_72_)" width="15.882" height="16.558"/>
</g>
<g>
	<defs>
		<path id="SVGID_73_" d="M497.586,27.966c-0.499-0.281-0.747-0.652-0.747-1.112c0-0.412,0.208-0.76,0.625-1.041
			c0.417-0.283,0.927-0.424,1.529-0.424h2.197c0.929,0,1.641,0.088,2.14,0.266c0.497,0.177,0.746,0.48,0.746,0.911
			c0,0.536-0.409,0.975-1.227,1.314c-0.819,0.339-1.908,0.51-3.268,0.51C498.75,28.39,498.084,28.25,497.586,27.966 M498.605,13.886
			c0-1.666,0.579-2.498,1.738-2.498c1.121,0,1.679,0.843,1.679,2.527c0,0.823-0.145,1.44-0.437,1.852
			c-0.292,0.412-0.706,0.618-1.242,0.618C499.184,16.385,498.605,15.553,498.605,13.886 M495.116,9.736
			c-1.206,0.977-1.809,2.351-1.809,4.122c0,1.14,0.241,2.106,0.725,2.9c0.483,0.795,1.146,1.378,1.989,1.752
			c-0.881,0.537-1.459,0.998-1.738,1.386c-0.277,0.389-0.416,0.835-0.416,1.344c0,0.458,0.185,0.924,0.553,1.394
			c0.368,0.468,0.803,0.808,1.299,1.018c-2.411,0.565-3.618,1.819-3.618,3.764c0,1.444,0.626,2.553,1.874,3.324
			c1.25,0.77,3.027,1.156,5.335,1.156c3.054,0,5.425-0.552,7.116-1.652c1.688-1.102,2.534-2.642,2.534-4.624
			c0-3.072-1.825-4.609-5.472-4.609h-2.699c-0.729,0-1.316-0.074-1.767-0.223c-0.449-0.148-0.676-0.361-0.676-0.639
			c0-0.221,0.067-0.455,0.202-0.703c0.354,0.076,0.833,0.114,1.436,0.114c2.441,0,4.277-0.482,5.507-1.451
			c1.231-0.966,1.845-2.325,1.845-4.078c0-0.737-0.152-1.383-0.459-1.938l2.227-0.818V8.56h-5.674
			c-0.344-0.058-0.879-0.12-1.607-0.187c-0.729-0.067-1.239-0.101-1.537-0.101C498.045,8.272,496.322,8.76,495.116,9.736"/>
	</defs>
	<clipPath id="SVGID_74_">
		<use xlink:href="#SVGID_73_"  overflow="visible"/>
	</clipPath>
	
		<linearGradient id="SVGID_75_" gradientUnits="userSpaceOnUse" x1="-44.1426" y1="122.7397" x2="-43.422" y2="122.7397" gradientTransform="matrix(709.7485 0 0 -709.7485 31327.5664 87134.2656)">
		<stop  offset="0" style="stop-color:#F47821"/>
		<stop  offset="0.304" style="stop-color:#F47821"/>
		<stop  offset="1" style="stop-color:#F9ED29"/>
	</linearGradient>
	<rect x="492.1" y="8.272" clip-path="url(#SVGID_74_)" fill="url(#SVGID_75_)" width="17.003" height="23.623"/>
</g>
</svg>
