<?xml version="1.0" encoding="utf-8"?>
<!-- Generator: Adobe Illustrator 16.0.2, SVG Export Plug-In . SVG Version: 6.00 Build 0)  -->
<!DOCTYPE svg PUBLIC "-//W3C//DTD SVG 1.1//EN" "http://www.w3.org/Graphics/SVG/1.1/DTD/svg11.dtd">
<svg version="1.1" id="Layer_1" xmlns="http://www.w3.org/2000/svg" xmlns:xlink="http://www.w3.org/1999/xlink" x="0px" y="0px"
	 width="533.107px" height="31.811px" viewBox="0 0 533.107 31.811" enable-background="new 0 0 533.107 31.811"
	 xml:space="preserve">
<g>
	<linearGradient id="SVGID_1_" gradientUnits="userSpaceOnUse" x1="27.3198" y1="14.2944" x2="499.5298" y2="14.2944">
		<stop  offset="0.304" style="stop-color:#F17821"/>
		<stop  offset="1" style="stop-color:#F7ED28"/>
	</linearGradient>
	<path fill="url(#SVGID_1_)" d="M17.89,24.764h-6.388l-4.139-8.006L5.687,17.76v7.004H0V3.824h5.687v9.095
		c0.286-0.563,0.863-1.456,1.733-2.678l4.396-6.417h6.188l-6.603,9.381L17.89,24.764z"/>
	<linearGradient id="SVGID_2_" gradientUnits="userSpaceOnUse" x1="27.3203" y1="13.6216" x2="499.5161" y2="13.6216">
		<stop  offset="0.304" style="stop-color:#F17821"/>
		<stop  offset="1" style="stop-color:#F7ED28"/>
	</linearGradient>
	<path fill="url(#SVGID_2_)" d="M30.035,24.764v-8.852c0-2.177-0.644-3.266-1.934-3.266c-0.917,0-1.592,0.385-2.026,1.153
		c-0.436,0.769-0.652,2.046-0.652,3.831v7.133h-5.6V2.479h5.6v3.165c0,1.432-0.076,3.064-0.229,4.898h0.258
		c0.535-0.84,1.17-1.433,1.905-1.776c0.736-0.344,1.59-0.516,2.564-0.516c1.814,0,3.225,0.523,4.232,1.568
		c1.007,1.045,1.511,2.509,1.511,4.39v10.556H30.035z"/>
	<linearGradient id="SVGID_3_" gradientUnits="userSpaceOnUse" x1="27.3208" y1="13.6714" x2="499.5107" y2="13.6714">
		<stop  offset="0.304" style="stop-color:#F17821"/>
		<stop  offset="1" style="stop-color:#F7ED28"/>
	</linearGradient>
	<path fill="url(#SVGID_3_)" d="M50.058,24.764l-1.074-2.148H48.87c-0.755,0.936-1.523,1.575-2.307,1.919
		c-0.783,0.344-1.794,0.517-3.036,0.517c-1.528,0-2.731-0.459-3.61-1.375c-0.878-0.918-1.317-2.207-1.317-3.868
		c0-1.728,0.602-3.014,1.805-3.86c1.203-0.845,2.945-1.319,5.228-1.425l2.708-0.086v-0.229c0-1.337-0.66-2.005-1.977-2.005
		c-1.184,0-2.688,0.401-4.512,1.203l-1.618-3.695c1.89-0.974,4.277-1.461,7.161-1.461c2.081,0,3.693,0.516,4.834,1.547
		c1.141,1.031,1.711,2.473,1.711,4.326v10.642H50.058z M43.756,6.989V6.575c1.471-1.576,2.403-2.593,2.801-3.051
		c0.396-0.459,0.723-0.87,0.98-1.232h6.13v0.301c-0.764,0.611-1.814,1.389-3.151,2.334c-1.337,0.946-2.349,1.633-3.037,2.063H43.756
		z M45.905,21.098c0.677,0,1.257-0.215,1.74-0.645c0.482-0.429,0.724-0.988,0.724-1.676v-1.26l-1.29,0.057
		c-1.843,0.067-2.764,0.745-2.764,2.035C44.315,20.601,44.845,21.098,45.905,21.098z"/>
	<linearGradient id="SVGID_4_" gradientUnits="userSpaceOnUse" x1="27.3213" y1="16.5073" x2="499.5124" y2="16.5073">
		<stop  offset="0.304" style="stop-color:#F17821"/>
		<stop  offset="1" style="stop-color:#F7ED28"/>
	</linearGradient>
	<path fill="url(#SVGID_4_)" d="M77.672,24.764v-8.823c0-1.098-0.15-1.921-0.451-2.471c-0.301-0.549-0.776-0.824-1.425-0.824
		c-0.859,0-1.49,0.368-1.89,1.103c-0.402,0.736-0.602,1.886-0.602,3.452v7.563h-5.614v-8.823c0-1.098-0.144-1.921-0.43-2.471
		c-0.287-0.549-0.75-0.824-1.39-0.824c-0.878,0-1.518,0.392-1.919,1.174c-0.4,0.783-0.601,2.063-0.601,3.838v7.104H57.75V8.536
		h4.225l0.703,2.006h0.329c0.43-0.745,1.052-1.313,1.869-1.705c0.817-0.392,1.745-0.587,2.786-0.587
		c2.339,0,3.982,0.712,4.926,2.135h0.445c0.458-0.669,1.096-1.191,1.912-1.569s1.716-0.566,2.7-0.566
		c1.919,0,3.337,0.492,4.253,1.475s1.375,2.478,1.375,4.483v10.556H77.672z"/>
	<linearGradient id="SVGID_5_" gradientUnits="userSpaceOnUse" x1="27.3213" y1="20.0308" x2="499.5159" y2="20.0308">
		<stop  offset="0.304" style="stop-color:#F17821"/>
		<stop  offset="1" style="stop-color:#F7ED28"/>
	</linearGradient>
	<path fill="url(#SVGID_5_)" d="M104.442,25.051c-0.822,0-1.557-0.136-2.206-0.408c-0.649-0.273-1.294-0.762-1.934-1.469h-0.258
		c0.172,1.136,0.258,1.843,0.258,2.119v6.518h-5.6V8.536h4.555l0.788,2.063h0.258c1.041-1.566,2.478-2.349,4.311-2.349
		c1.795,0,3.204,0.745,4.226,2.234c1.021,1.489,1.532,3.533,1.532,6.13c0,2.617-0.532,4.677-1.597,6.18
		C107.71,24.298,106.265,25.051,104.442,25.051z M102.565,12.647c-0.821,0-1.396,0.294-1.726,0.881
		c-0.329,0.586-0.508,1.458-0.537,2.614v0.444c0,1.395,0.187,2.401,0.559,3.022c0.372,0.62,0.959,0.931,1.761,0.931
		c0.716,0,1.236-0.309,1.561-0.924c0.325-0.616,0.488-1.635,0.488-3.058c0-1.394-0.163-2.394-0.488-3
		C103.859,12.95,103.32,12.647,102.565,12.647z"/>
	<linearGradient id="SVGID_6_" gradientUnits="userSpaceOnUse" x1="27.3213" y1="13.6216" x2="499.5171" y2="13.6216">
		<stop  offset="0.304" style="stop-color:#F17821"/>
		<stop  offset="1" style="stop-color:#F7ED28"/>
	</linearGradient>
	<path fill="url(#SVGID_6_)" d="M123.777,24.764v-8.852c0-2.177-0.645-3.266-1.934-3.266c-0.916,0-1.592,0.385-2.026,1.153
		s-0.651,2.046-0.651,3.831v7.133h-5.601V2.479h5.601v3.165c0,1.432-0.077,3.064-0.229,4.898h0.258
		c0.535-0.84,1.17-1.433,1.905-1.776c0.735-0.344,1.59-0.516,2.564-0.516c1.814,0,3.225,0.523,4.232,1.568
		c1.008,1.045,1.511,2.509,1.511,4.39v10.556H123.777z"/>
	<linearGradient id="SVGID_7_" gradientUnits="userSpaceOnUse" x1="27.3198" y1="13.6714" x2="499.5247" y2="13.6714">
		<stop  offset="0.304" style="stop-color:#F17821"/>
		<stop  offset="1" style="stop-color:#F7ED28"/>
	</linearGradient>
	<path fill="url(#SVGID_7_)" d="M143.8,24.764l-1.074-2.148h-0.114c-0.754,0.936-1.523,1.575-2.306,1.919
		c-0.784,0.344-1.795,0.517-3.037,0.517c-1.527,0-2.731-0.459-3.609-1.375c-0.879-0.918-1.318-2.207-1.318-3.868
		c0-1.728,0.602-3.014,1.805-3.86c1.203-0.845,2.945-1.319,5.228-1.425l2.707-0.086v-0.229c0-1.337-0.659-2.005-1.977-2.005
		c-1.184,0-2.688,0.401-4.512,1.203l-1.618-3.695c1.891-0.974,4.278-1.461,7.161-1.461c2.082,0,3.693,0.516,4.834,1.547
		s1.712,2.473,1.712,4.326v10.642H143.8z M137.499,6.989V6.575c1.471-1.576,2.403-2.593,2.8-3.051
		c0.397-0.459,0.723-0.87,0.981-1.232h6.13v0.301c-0.763,0.611-1.813,1.389-3.15,2.334c-1.337,0.946-2.35,1.633-3.037,2.063H137.499
		z M139.647,21.098c0.678,0,1.258-0.215,1.74-0.645c0.482-0.429,0.723-0.988,0.723-1.676v-1.26l-1.289,0.057
		c-1.843,0.067-2.765,0.745-2.765,2.035C138.057,20.601,138.587,21.098,139.647,21.098z"/>
	<linearGradient id="SVGID_8_" gradientUnits="userSpaceOnUse" x1="27.3242" y1="16.6509" x2="499.514" y2="16.6509">
		<stop  offset="0.304" style="stop-color:#F17821"/>
		<stop  offset="1" style="stop-color:#F7ED28"/>
	</linearGradient>
	<path fill="url(#SVGID_8_)" d="M171.644,19.781c0,1.737-0.592,3.05-1.775,3.938c-1.184,0.888-2.884,1.333-5.099,1.333
		c-1.203,0-2.249-0.064-3.136-0.193c-0.888-0.13-1.795-0.366-2.722-0.709v-4.483c0.869,0.381,1.821,0.697,2.857,0.944
		c1.036,0.249,1.96,0.374,2.772,0.374c1.212,0,1.818-0.277,1.818-0.832c0-0.286-0.17-0.542-0.508-0.765
		c-0.339-0.226-1.325-0.661-2.958-1.311c-1.49-0.611-2.53-1.306-3.122-2.084c-0.592-0.778-0.888-1.764-0.888-2.958
		c0-1.509,0.582-2.683,1.748-3.523c1.166-0.84,2.812-1.26,4.941-1.26c1.069,0,2.074,0.117,3.015,0.351
		c0.94,0.234,1.917,0.576,2.929,1.024l-1.519,3.61c-0.744-0.334-1.532-0.618-2.363-0.853c-0.831-0.234-1.508-0.351-2.034-0.351
		c-0.917,0-1.375,0.225-1.375,0.673c0,0.277,0.16,0.514,0.479,0.709c0.32,0.196,1.244,0.595,2.772,1.196
		c1.136,0.468,1.983,0.926,2.542,1.375c0.559,0.449,0.969,0.976,1.231,1.583C171.513,18.173,171.644,18.911,171.644,19.781z"/>
	<linearGradient id="SVGID_9_" gradientUnits="userSpaceOnUse" x1="27.3193" y1="12.5259" x2="499.5242" y2="12.5259">
		<stop  offset="0.304" style="stop-color:#F17821"/>
		<stop  offset="1" style="stop-color:#F7ED28"/>
	</linearGradient>
	<path fill="url(#SVGID_9_)" d="M185.336,24.764l-1.073-2.148h-0.115c-0.754,0.936-1.523,1.575-2.306,1.919
		c-0.783,0.344-1.795,0.517-3.036,0.517c-1.528,0-2.731-0.459-3.609-1.375c-0.879-0.918-1.319-2.207-1.319-3.868
		c0-1.728,0.602-3.014,1.805-3.86c1.204-0.845,2.946-1.319,5.228-1.425l2.708-0.086v-0.229c0-1.337-0.66-2.005-1.977-2.005
		c-1.185,0-2.688,0.401-4.512,1.203l-1.618-3.695c1.891-0.974,4.278-1.461,7.161-1.461c2.082,0,3.693,0.516,4.834,1.547
		c1.141,1.031,1.711,2.473,1.711,4.326v10.642H185.336z M182.372,6.989c-1.7,0-3.082-0.441-4.146-1.325
		c-1.065-0.883-1.654-2.065-1.769-3.544h2.664c0.105,0.697,0.43,1.244,0.974,1.639c0.543,0.396,1.284,0.595,2.22,0.595
		c0.897,0,1.642-0.203,2.235-0.609c0.591-0.406,0.916-0.947,0.974-1.625h2.521c-0.039,1.585-0.54,2.792-1.504,3.624
		C185.575,6.575,184.186,6.989,182.372,6.989z M181.183,21.098c0.678,0,1.258-0.215,1.74-0.645c0.482-0.429,0.724-0.988,0.724-1.676
		v-1.26l-1.29,0.057c-1.842,0.067-2.764,0.745-2.764,2.035C179.593,20.601,180.124,21.098,181.183,21.098z M180.524,2.85
		l0.358-0.616c0.572-0.955,0.974-1.7,1.203-2.234h3.609v0.3c-1.165,1.299-2.154,2.288-2.965,2.965h-2.206V2.85z"/>
	<linearGradient id="SVGID_10_" gradientUnits="userSpaceOnUse" x1="27.3188" y1="16.6509" x2="499.5241" y2="16.6509">
		<stop  offset="0.304" style="stop-color:#F17821"/>
		<stop  offset="1" style="stop-color:#F7ED28"/>
	</linearGradient>
	<path fill="url(#SVGID_10_)" d="M200.418,25.051c-2.654,0-4.667-0.717-6.038-2.149c-1.37-1.433-2.055-3.489-2.055-6.173
		c0-2.692,0.74-4.779,2.22-6.259c1.48-1.48,3.585-2.22,6.315-2.22c1.882,0,3.652,0.411,5.314,1.232l-1.647,4.139
		c-0.678-0.295-1.303-0.532-1.875-0.709c-0.573-0.177-1.17-0.265-1.792-0.265c-0.907,0-1.608,0.354-2.105,1.06
		c-0.497,0.708-0.745,1.705-0.745,2.994c0,2.598,0.959,3.896,2.878,3.896c1.643,0,3.218-0.478,4.727-1.432v4.455
		C204.175,24.574,202.442,25.051,200.418,25.051z"/>
	<linearGradient id="SVGID_11_" gradientUnits="userSpaceOnUse" x1="27.3213" y1="16.5073" x2="499.5214" y2="16.5073">
		<stop  offset="0.304" style="stop-color:#F17821"/>
		<stop  offset="1" style="stop-color:#F7ED28"/>
	</linearGradient>
	<path fill="url(#SVGID_11_)" d="M236.382,24.764v-8.823c0-1.098-0.149-1.921-0.451-2.471c-0.301-0.549-0.776-0.824-1.425-0.824
		c-0.859,0-1.49,0.368-1.891,1.103c-0.401,0.736-0.601,1.886-0.601,3.452v7.563H226.4v-8.823c0-1.098-0.143-1.921-0.43-2.471
		s-0.75-0.824-1.39-0.824c-0.878,0-1.518,0.392-1.919,1.174c-0.401,0.783-0.602,2.063-0.602,3.838v7.104h-5.6V8.536h4.226
		l0.702,2.006h0.33c0.43-0.745,1.052-1.313,1.869-1.705c0.816-0.392,1.745-0.587,2.786-0.587c2.339,0,3.981,0.712,4.928,2.135h0.443
		c0.458-0.669,1.095-1.191,1.912-1.569c0.816-0.377,1.716-0.566,2.699-0.566c1.92,0,3.338,0.492,4.254,1.475
		s1.375,2.478,1.375,4.483v10.556H236.382z"/>
	<linearGradient id="SVGID_12_" gradientUnits="userSpaceOnUse" x1="27.3203" y1="13.6714" x2="499.5252" y2="13.6714">
		<stop  offset="0.304" style="stop-color:#F17821"/>
		<stop  offset="1" style="stop-color:#F7ED28"/>
	</linearGradient>
	<path fill="url(#SVGID_12_)" d="M256.377,24.764l-1.074-2.148h-0.115c-0.754,0.936-1.523,1.575-2.306,1.919
		c-0.784,0.344-1.795,0.517-3.037,0.517c-1.528,0-2.73-0.459-3.608-1.375c-0.879-0.918-1.318-2.207-1.318-3.868
		c0-1.728,0.602-3.014,1.805-3.86c1.203-0.845,2.945-1.319,5.228-1.425l2.707-0.086v-0.229c0-1.337-0.659-2.005-1.977-2.005
		c-1.184,0-2.688,0.401-4.511,1.203l-1.619-3.695c1.89-0.974,4.277-1.461,7.161-1.461c2.081,0,3.692,0.516,4.834,1.547
		c1.141,1.031,1.711,2.473,1.711,4.326v10.642H256.377z M252.969,6.989c-0.659-0.42-1.631-1.081-2.915-1.983
		c-1.284-0.902-2.375-1.707-3.272-2.413V2.292h6.158c0.497,0.668,1.466,1.781,2.908,3.337l0.845,0.946v0.415H252.969z
		 M252.224,21.098c0.678,0,1.257-0.215,1.74-0.645c0.482-0.429,0.724-0.988,0.724-1.676v-1.26l-1.29,0.057
		c-1.843,0.067-2.764,0.745-2.764,2.035C250.634,20.601,251.164,21.098,252.224,21.098z"/>
	<linearGradient id="SVGID_13_" gradientUnits="userSpaceOnUse" x1="27.3262" y1="16.7935" x2="499.5171" y2="16.7935">
		<stop  offset="0.304" style="stop-color:#F17821"/>
		<stop  offset="1" style="stop-color:#F7ED28"/>
	</linearGradient>
	<path fill="url(#SVGID_13_)" d="M275.627,24.764l-0.702-2.019h-0.33c-0.468,0.745-1.119,1.314-1.955,1.71
		c-0.835,0.396-1.817,0.596-2.944,0.596c-1.786,0-3.176-0.519-4.167-1.555c-0.994-1.036-1.49-2.499-1.49-4.39V8.536h5.6v8.866
		c0,1.06,0.151,1.862,0.452,2.406c0.3,0.545,0.795,0.816,1.482,0.816c0.964,0,1.651-0.379,2.062-1.138
		c0.411-0.76,0.617-2.041,0.617-3.846V8.536h5.6v16.228H275.627z"/>
	<linearGradient id="SVGID_14_" gradientUnits="userSpaceOnUse" x1="27.3384" y1="16.6509" x2="499.5103" y2="16.6509">
		<stop  offset="0.304" style="stop-color:#F17821"/>
		<stop  offset="1" style="stop-color:#F7ED28"/>
	</linearGradient>
	<path fill="url(#SVGID_14_)" d="M298.729,25.051c-2.654,0-4.667-0.717-6.038-2.149c-1.37-1.433-2.054-3.489-2.054-6.173
		c0-2.692,0.739-4.779,2.22-6.259c1.479-1.48,3.585-2.22,6.315-2.22c1.881,0,3.652,0.411,5.313,1.232l-1.647,4.139
		c-0.678-0.295-1.303-0.532-1.875-0.709s-1.17-0.265-1.791-0.265c-0.907,0-1.608,0.354-2.105,1.06
		c-0.497,0.708-0.745,1.705-0.745,2.994c0,2.598,0.959,3.896,2.878,3.896c1.642,0,3.218-0.478,4.726-1.432v4.455
		C302.487,24.574,300.753,25.051,298.729,25.051z"/>
	<linearGradient id="SVGID_15_" gradientUnits="userSpaceOnUse" x1="27.3276" y1="13.6714" x2="499.5186" y2="13.6714">
		<stop  offset="0.304" style="stop-color:#F17821"/>
		<stop  offset="1" style="stop-color:#F7ED28"/>
	</linearGradient>
	<path fill="url(#SVGID_15_)" d="M318.71,24.764l-0.702-2.019h-0.33c-0.468,0.745-1.12,1.314-1.956,1.71
		c-0.835,0.396-1.816,0.596-2.942,0.596c-1.787,0-3.176-0.519-4.168-1.555c-0.994-1.036-1.49-2.499-1.49-4.39V8.536h5.601v8.866
		c0,1.06,0.15,1.862,0.451,2.406c0.3,0.545,0.794,0.816,1.482,0.816c0.964,0,1.653-0.379,2.063-1.138
		c0.41-0.76,0.615-2.041,0.615-3.846V8.536h5.6v16.228H318.71z M313.912,6.989c-0.66-0.42-1.631-1.081-2.915-1.983
		c-1.285-0.902-2.375-1.707-3.272-2.413V2.292h6.159c0.496,0.668,1.465,1.781,2.908,3.337l0.844,0.946v0.415H313.912z"/>
	<linearGradient id="SVGID_16_" gradientUnits="userSpaceOnUse" x1="27.3164" y1="16.5073" x2="499.5268" y2="16.5073">
		<stop  offset="0.304" style="stop-color:#F17821"/>
		<stop  offset="1" style="stop-color:#F7ED28"/>
	</linearGradient>
	<path fill="url(#SVGID_16_)" d="M337.043,24.764v-8.852c0-1.079-0.156-1.893-0.466-2.442c-0.311-0.549-0.81-0.824-1.497-0.824
		c-0.945,0-1.628,0.377-2.048,1.131c-0.42,0.755-0.63,2.048-0.63,3.881v7.104h-5.6V8.536h4.224l0.702,2.006h0.33
		c0.477-0.764,1.138-1.337,1.983-1.719c0.846-0.382,1.816-0.573,2.915-0.573c1.795,0,3.191,0.521,4.19,1.562
		c0.997,1.041,1.497,2.506,1.497,4.397v10.556H337.043z"/>
	<linearGradient id="SVGID_17_" gradientUnits="userSpaceOnUse" x1="27.314" y1="20.0308" x2="499.5267" y2="20.0308">
		<stop  offset="0.304" style="stop-color:#F17821"/>
		<stop  offset="1" style="stop-color:#F7ED28"/>
	</linearGradient>
	<path fill="url(#SVGID_17_)" d="M361.764,8.536v2.708l-2.22,0.816c0.306,0.554,0.458,1.199,0.458,1.935
		c0,1.746-0.614,3.103-1.84,4.067c-1.228,0.964-3.058,1.447-5.493,1.447c-0.602,0-1.079-0.038-1.432-0.115
		c-0.135,0.249-0.201,0.482-0.201,0.701c0,0.277,0.224,0.49,0.673,0.638c0.449,0.148,1.036,0.221,1.762,0.221h2.693
		c3.637,0,5.457,1.533,5.457,4.599c0,1.977-0.842,3.514-2.528,4.611c-1.685,1.098-4.051,1.647-7.097,1.647
		c-2.301,0-4.075-0.385-5.321-1.153s-1.869-1.874-1.869-3.315c0-1.938,1.204-3.189,3.61-3.752c-0.498-0.21-0.93-0.549-1.296-1.019
		c-0.369-0.466-0.552-0.931-0.552-1.389c0-0.506,0.138-0.953,0.417-1.339c0.276-0.387,0.853-0.848,1.732-1.382
		c-0.84-0.373-1.501-0.956-1.984-1.748c-0.481-0.792-0.722-1.756-0.722-2.893c0-1.766,0.601-3.136,1.804-4.11
		c1.203-0.974,2.922-1.461,5.156-1.461c0.296,0,0.807,0.034,1.533,0.1c0.726,0.067,1.261,0.129,1.604,0.186H361.764z
		 M349.532,26.783c0,0.46,0.25,0.829,0.745,1.111c0.497,0.28,1.161,0.422,1.992,0.422c1.356,0,2.442-0.169,3.258-0.508
		c0.817-0.339,1.225-0.777,1.225-1.312c0-0.429-0.248-0.732-0.745-0.909c-0.497-0.177-1.208-0.265-2.135-0.265h-2.19
		c-0.601,0-1.11,0.141-1.525,0.422C349.739,26.027,349.532,26.373,349.532,26.783z M351.294,13.85c0,1.662,0.578,2.492,1.732,2.492
		c0.535,0,0.949-0.205,1.239-0.616c0.292-0.41,0.437-1.026,0.437-1.848c0-1.68-0.558-2.52-1.676-2.52
		C351.872,11.358,351.294,12.189,351.294,13.85z"/>
	<linearGradient id="SVGID_18_" gradientUnits="userSpaceOnUse" x1="27.3467" y1="16.5073" x2="499.5134" y2="16.5073">
		<stop  offset="0.304" style="stop-color:#F17821"/>
		<stop  offset="1" style="stop-color:#F7ED28"/>
	</linearGradient>
	<path fill="url(#SVGID_18_)" d="M382.088,24.764v-8.852c0-1.079-0.155-1.893-0.466-2.442c-0.311-0.549-0.808-0.824-1.496-0.824
		c-0.946,0-1.628,0.377-2.048,1.131c-0.42,0.755-0.631,2.048-0.631,3.881v7.104h-5.599V8.536h4.225l0.702,2.006h0.329
		c0.478-0.764,1.139-1.337,1.984-1.719c0.844-0.382,1.816-0.573,2.914-0.573c1.794,0,3.192,0.521,4.189,1.562
		c0.998,1.041,1.497,2.506,1.497,4.397v10.556H382.088z"/>
	<linearGradient id="SVGID_19_" gradientUnits="userSpaceOnUse" x1="27.2949" y1="13.3638" x2="499.5298" y2="13.3638">
		<stop  offset="0.304" style="stop-color:#F17821"/>
		<stop  offset="1" style="stop-color:#F7ED28"/>
	</linearGradient>
	<path fill="url(#SVGID_19_)" d="M402.083,24.764l-1.074-2.148h-0.115c-0.755,0.936-1.523,1.575-2.307,1.919
		c-0.783,0.344-1.794,0.517-3.037,0.517c-1.528,0-2.73-0.459-3.608-1.375c-0.88-0.918-1.318-2.207-1.318-3.868
		c0-1.728,0.602-3.014,1.805-3.86c1.204-0.845,2.945-1.319,5.228-1.425l2.708-0.086v-0.229c0-1.337-0.659-2.005-1.977-2.005
		c-1.184,0-2.688,0.401-4.512,1.203l-1.618-3.695c1.891-0.974,4.277-1.461,7.162-1.461c2.082,0,3.693,0.516,4.833,1.547
		c1.14,1.031,1.712,2.473,1.712,4.326v10.642H402.083z M404.819,1.676c-0.097,1.632-0.659,2.926-1.691,3.881
		c-1.031,0.955-2.416,1.432-4.154,1.432c-1.787,0-3.168-0.453-4.146-1.36c-0.979-0.907-1.511-2.225-1.596-3.953h3.021
		c0.19,0.745,0.466,1.243,0.822,1.496c0.358,0.253,0.991,0.38,1.898,0.38c0.773,0,1.372-0.15,1.798-0.451
		c0.425-0.301,0.728-0.776,0.909-1.425H404.819z M397.929,21.098c0.679,0,1.257-0.215,1.74-0.645
		c0.482-0.429,0.723-0.988,0.723-1.676v-1.26l-1.288,0.057c-1.844,0.067-2.765,0.745-2.765,2.035
		C396.339,20.601,396.869,21.098,397.929,21.098z"/>
	<linearGradient id="SVGID_20_" gradientUnits="userSpaceOnUse" x1="27.3223" y1="16.5073" x2="499.5224" y2="16.5073">
		<stop  offset="0.304" style="stop-color:#F17821"/>
		<stop  offset="1" style="stop-color:#F7ED28"/>
	</linearGradient>
	<path fill="url(#SVGID_20_)" d="M429.697,24.764v-8.823c0-1.098-0.15-1.921-0.452-2.471c-0.301-0.549-0.775-0.824-1.424-0.824
		c-0.86,0-1.491,0.368-1.892,1.103c-0.4,0.736-0.6,1.886-0.6,3.452v7.563h-5.615v-8.823c0-1.098-0.143-1.921-0.429-2.471
		c-0.288-0.549-0.751-0.824-1.391-0.824c-0.877,0-1.517,0.392-1.918,1.174c-0.401,0.783-0.602,2.063-0.602,3.838v7.104h-5.6V8.536
		h4.225l0.702,2.006h0.33c0.43-0.745,1.053-1.313,1.87-1.705c0.816-0.392,1.745-0.587,2.785-0.587c2.339,0,3.982,0.712,4.926,2.135
		h0.444c0.458-0.669,1.096-1.191,1.913-1.569c0.816-0.377,1.717-0.566,2.7-0.566c1.918,0,3.338,0.492,4.253,1.475
		c0.917,0.983,1.375,2.478,1.375,4.483v10.556H429.697z"/>
	<linearGradient id="SVGID_21_" gradientUnits="userSpaceOnUse" x1="27.3237" y1="15.1685" x2="499.523" y2="15.1685">
		<stop  offset="0.304" style="stop-color:#F17821"/>
		<stop  offset="1" style="stop-color:#F7ED28"/>
	</linearGradient>
	<path fill="url(#SVGID_21_)" d="M454.675,20.625c0.755,0,1.657-0.187,2.707-0.558v4.082c-0.755,0.323-1.473,0.555-2.156,0.694
		c-0.682,0.138-1.482,0.208-2.398,0.208c-1.881,0-3.237-0.461-4.068-1.382c-0.832-0.921-1.246-2.338-1.246-4.247v-6.689h-1.963
		v-2.277l2.493-1.762l1.446-3.409h3.667v3.251h3.982v4.197h-3.982v6.316C453.158,20.1,453.664,20.625,454.675,20.625z"/>
	<linearGradient id="SVGID_22_" gradientUnits="userSpaceOnUse" x1="27.3408" y1="13.6216" x2="499.5221" y2="13.6216">
		<stop  offset="0.304" style="stop-color:#F17821"/>
		<stop  offset="1" style="stop-color:#F7ED28"/>
	</linearGradient>
	<path fill="url(#SVGID_22_)" d="M470.431,24.764v-8.852c0-2.177-0.645-3.266-1.934-3.266c-0.917,0-1.592,0.385-2.027,1.153
		c-0.434,0.769-0.651,2.046-0.651,3.831v7.133h-5.6V2.479h5.6v3.165c0,1.432-0.077,3.064-0.229,4.898h0.257
		c0.534-0.84,1.169-1.433,1.906-1.776c0.734-0.344,1.589-0.516,2.563-0.516c1.814,0,3.224,0.523,4.233,1.568
		c1.005,1.045,1.51,2.509,1.51,4.39v10.556H470.431z"/>
	<linearGradient id="SVGID_23_" gradientUnits="userSpaceOnUse" x1="27.333" y1="13.6714" x2="499.5229" y2="13.6714">
		<stop  offset="0.304" style="stop-color:#F17821"/>
		<stop  offset="1" style="stop-color:#F7ED28"/>
	</linearGradient>
	<path fill="url(#SVGID_23_)" d="M490.453,24.764l-1.073-2.148h-0.115c-0.754,0.936-1.524,1.575-2.306,1.919
		c-0.784,0.344-1.796,0.517-3.037,0.517c-1.529,0-2.731-0.459-3.609-1.375c-0.879-0.918-1.318-2.207-1.318-3.868
		c0-1.728,0.601-3.014,1.804-3.86c1.204-0.845,2.946-1.319,5.229-1.425l2.706-0.086v-0.229c0-1.337-0.658-2.005-1.976-2.005
		c-1.184,0-2.687,0.401-4.511,1.203l-1.619-3.695c1.891-0.974,4.278-1.461,7.162-1.461c2.081,0,3.693,0.516,4.833,1.547
		c1.142,1.031,1.712,2.473,1.712,4.326v10.642H490.453z M484.152,6.989V6.575c1.47-1.576,2.404-2.593,2.8-3.051
		c0.396-0.459,0.724-0.87,0.982-1.232h6.13v0.301c-0.765,0.611-1.815,1.389-3.152,2.334c-1.336,0.946-2.349,1.633-3.036,2.063
		H484.152z M486.3,21.098c0.679,0,1.259-0.215,1.741-0.645c0.481-0.429,0.723-0.988,0.723-1.676v-1.26l-1.29,0.057
		c-1.843,0.067-2.764,0.745-2.764,2.035C484.71,20.601,485.24,21.098,486.3,21.098z"/>
	<linearGradient id="SVGID_24_" gradientUnits="userSpaceOnUse" x1="27.2979" y1="16.5073" x2="499.5228" y2="16.5073">
		<stop  offset="0.304" style="stop-color:#F17821"/>
		<stop  offset="1" style="stop-color:#F7ED28"/>
	</linearGradient>
	<path fill="url(#SVGID_24_)" d="M508.386,24.764v-8.852c0-1.079-0.155-1.893-0.466-2.442c-0.31-0.549-0.809-0.824-1.496-0.824
		c-0.946,0-1.627,0.377-2.048,1.131c-0.419,0.755-0.63,2.048-0.63,3.881v7.104h-5.601V8.536h4.226l0.702,2.006h0.33
		c0.477-0.764,1.139-1.337,1.983-1.719c0.845-0.382,1.816-0.573,2.914-0.573c1.795,0,3.192,0.521,4.189,1.562
		c0.999,1.041,1.498,2.506,1.498,4.397v10.556H508.386z"/>
	<linearGradient id="SVGID_25_" gradientUnits="userSpaceOnUse" x1="27.3096" y1="20.0308" x2="499.5223" y2="20.0308">
		<stop  offset="0.304" style="stop-color:#F17821"/>
		<stop  offset="1" style="stop-color:#F7ED28"/>
	</linearGradient>
	<path fill="url(#SVGID_25_)" d="M533.107,8.536v2.708l-2.22,0.816c0.306,0.554,0.458,1.199,0.458,1.935
		c0,1.746-0.614,3.103-1.841,4.067c-1.227,0.964-3.059,1.447-5.493,1.447c-0.601,0-1.079-0.038-1.432-0.115
		c-0.134,0.249-0.2,0.482-0.2,0.701c0,0.277,0.223,0.49,0.673,0.638c0.449,0.148,1.035,0.221,1.761,0.221h2.692
		c3.639,0,5.457,1.533,5.457,4.599c0,1.977-0.843,3.514-2.528,4.611c-1.686,1.098-4.051,1.647-7.097,1.647
		c-2.301,0-4.076-0.385-5.321-1.153c-1.247-0.769-1.87-1.874-1.87-3.315c0-1.938,1.203-3.189,3.609-3.752
		c-0.496-0.21-0.928-0.549-1.295-1.019c-0.369-0.466-0.552-0.931-0.552-1.389c0-0.506,0.138-0.953,0.415-1.339
		c0.278-0.387,0.855-0.848,1.734-1.382c-0.841-0.373-1.502-0.956-1.984-1.748c-0.481-0.792-0.724-1.756-0.724-2.893
		c0-1.766,0.602-3.136,1.806-4.11c1.202-0.974,2.922-1.461,5.156-1.461c0.295,0,0.807,0.034,1.532,0.1
		c0.726,0.067,1.26,0.129,1.604,0.186H533.107z M520.875,26.783c0,0.46,0.248,0.829,0.745,1.111c0.496,0.28,1.16,0.422,1.992,0.422
		c1.355,0,2.442-0.169,3.258-0.508c0.816-0.339,1.225-0.777,1.225-1.312c0-0.429-0.249-0.732-0.746-0.909
		c-0.496-0.177-1.208-0.265-2.133-0.265h-2.191c-0.602,0-1.111,0.141-1.527,0.422C521.084,26.027,520.875,26.373,520.875,26.783z
		 M522.637,13.85c0,1.662,0.577,2.492,1.733,2.492c0.535,0,0.947-0.205,1.239-0.616c0.291-0.41,0.436-1.026,0.436-1.848
		c0-1.68-0.559-2.52-1.675-2.52C523.214,11.358,522.637,12.189,522.637,13.85z"/>
</g>
</svg>
