<?xml version="1.0" encoding="utf-8"?>
<!-- Generator: Adobe Illustrator 16.0.2, SVG Export Plug-In . SVG Version: 6.00 Build 0)  -->
<!DOCTYPE svg PUBLIC "-//W3C//DTD SVG 1.1//EN" "http://www.w3.org/Graphics/SVG/1.1/DTD/svg11.dtd">
<svg version="1.1" id="Layer_1" xmlns="http://www.w3.org/2000/svg" xmlns:xlink="http://www.w3.org/1999/xlink" x="0px" y="0px"
	 width="335.015px" height="31.819px" viewBox="0 0 335.015 31.819" enable-background="new 0 0 335.015 31.819"
	 xml:space="preserve">
<g>
	<linearGradient id="SVGID_1_" gradientUnits="userSpaceOnUse" x1="1.0654" y1="14.7217" x2="247.1965" y2="14.7217">
		<stop  offset="0.304" style="stop-color:#F17821"/>
		<stop  offset="1" style="stop-color:#F7ED28"/>
	</linearGradient>
	<path fill="url(#SVGID_1_)" d="M19.125,14.288c0,3.411-0.939,6.04-2.817,7.885c-1.878,1.847-4.517,2.769-7.918,2.769H1.775V17.07H0
		v-4.473h1.775V4.501H8.85c3.281,0,5.814,0.839,7.599,2.517C18.234,8.696,19.125,11.12,19.125,14.288z M13.393,14.483
		c0-1.873-0.37-3.261-1.11-4.166c-0.742-0.904-1.867-1.356-3.377-1.356H7.297v3.635h2.95v4.473h-2.95v3.342h1.23
		c1.678,0,2.908-0.488,3.691-1.462C13.002,17.978,13.393,16.487,13.393,14.483z"/>
	<linearGradient id="SVGID_2_" gradientUnits="userSpaceOnUse" x1="1.0654" y1="13.834" x2="247.1896" y2="13.834">
		<stop  offset="0.304" style="stop-color:#F17821"/>
		<stop  offset="1" style="stop-color:#F7ED28"/>
	</linearGradient>
	<path fill="url(#SVGID_2_)" d="M22.354,5.158c0-0.819,0.229-1.431,0.686-1.831s1.193-0.601,2.208-0.601
		c1.017,0,1.757,0.205,2.223,0.615c0.466,0.41,0.699,1.016,0.699,1.817c0,1.604-0.974,2.405-2.922,2.405
		C23.319,7.563,22.354,6.762,22.354,5.158z M27.96,24.941h-5.466V9.101h5.466V24.941z"/>
	<linearGradient id="SVGID_3_" gradientUnits="userSpaceOnUse" x1="1.0649" y1="12.6099" x2="247.1974" y2="12.6099">
		<stop  offset="0.304" style="stop-color:#F17821"/>
		<stop  offset="1" style="stop-color:#F7ED28"/>
	</linearGradient>
	<path fill="url(#SVGID_3_)" d="M39.426,25.22c-2.639,0-4.687-0.701-6.146-2.103c-1.458-1.403-2.187-3.399-2.187-5.991
		c0-2.675,0.676-4.728,2.027-6.158s3.281-2.146,5.788-2.146c2.386,0,4.228,0.623,5.528,1.867c1.302,1.245,1.952,3.036,1.952,5.375
		v2.433h-9.773c0.036,0.885,0.361,1.579,0.971,2.083c0.61,0.503,1.442,0.754,2.495,0.754c0.96,0,1.843-0.091,2.649-0.272
		c0.807-0.182,1.681-0.492,2.622-0.93v3.928c-0.857,0.438-1.743,0.741-2.656,0.91C41.784,25.137,40.692,25.22,39.426,25.22z
		 M44.863,7.591h-2.866c-0.979-0.653-1.961-1.426-2.95-2.321c-1.063,0.941-2.044,1.715-2.95,2.321h-2.852V7.187
		c0.876-1.026,1.878-2.392,3.005-4.096h5.607c1.127,1.705,2.129,3.07,3.005,4.096V7.591z M39.104,12.541
		c-0.643,0-1.182,0.202-1.615,0.608c-0.434,0.405-0.688,1.041-0.762,1.908h4.697c-0.018-0.764-0.235-1.375-0.649-1.832
		C40.36,12.769,39.802,12.541,39.104,12.541z M47.953,2.236c0,1.11-0.583,1.776-1.748,2l-0.083,0.685h-2.167l-0.154-1.51
		c1.127,0,1.692-0.229,1.692-0.685c0-0.42-0.312-0.629-0.937-0.629c-0.335,0-0.672,0.056-1.006,0.167V0.14
		C43.829,0.047,44.294,0,44.947,0c0.97,0,1.713,0.189,2.229,0.567C47.695,0.943,47.953,1.5,47.953,2.236z"/>
	<linearGradient id="SVGID_4_" gradientUnits="userSpaceOnUse" x1="1.0659" y1="16.8813" x2="247.1904" y2="16.8813">
		<stop  offset="0.304" style="stop-color:#F17821"/>
		<stop  offset="1" style="stop-color:#F7ED28"/>
	</linearGradient>
	<path fill="url(#SVGID_4_)" d="M68.924,24.941v-8.612c0-1.072-0.147-1.875-0.441-2.411c-0.293-0.537-0.757-0.805-1.391-0.805
		c-0.839,0-1.454,0.359-1.845,1.077c-0.391,0.718-0.588,1.841-0.588,3.369v7.382h-5.479v-8.612c0-1.072-0.14-1.875-0.42-2.411
		c-0.279-0.537-0.73-0.805-1.355-0.805c-0.857,0-1.481,0.382-1.873,1.147s-0.587,2.013-0.587,3.747v6.935h-5.467V9.101h4.125
		l0.685,1.957h0.321c0.42-0.726,1.028-1.281,1.825-1.663s1.703-0.574,2.719-0.574c2.284,0,3.886,0.694,4.81,2.083h0.434
		c0.446-0.653,1.069-1.163,1.865-1.531c0.798-0.368,1.675-0.553,2.635-0.553c1.874,0,3.259,0.48,4.152,1.44
		c0.895,0.961,1.343,2.419,1.343,4.376v10.304H68.924z"/>
	<linearGradient id="SVGID_5_" gradientUnits="userSpaceOnUse" x1="1.0698" y1="15.5737" x2="247.1869" y2="15.5737">
		<stop  offset="0.304" style="stop-color:#F17821"/>
		<stop  offset="1" style="stop-color:#F7ED28"/>
	</linearGradient>
	<path fill="url(#SVGID_5_)" d="M93.306,20.901c0.736,0,1.618-0.182,2.643-0.545v3.983c-0.736,0.317-1.438,0.543-2.104,0.679
		s-1.447,0.202-2.342,0.202c-1.836,0-3.159-0.448-3.97-1.349c-0.811-0.898-1.216-2.281-1.216-4.145v-6.529h-1.915v-2.223l2.432-1.72
		l1.412-3.327h3.58v3.173h3.887v4.096h-3.887v6.166C91.824,20.388,92.318,20.901,93.306,20.901z"/>
	<linearGradient id="SVGID_6_" gradientUnits="userSpaceOnUse" x1="1.0649" y1="14.1123" x2="247.1934" y2="14.1123">
		<stop  offset="0.304" style="stop-color:#F17821"/>
		<stop  offset="1" style="stop-color:#F7ED28"/>
	</linearGradient>
	<path fill="url(#SVGID_6_)" d="M113.843,16.986c0,2.591-0.697,4.612-2.09,6.061c-1.393,1.449-3.344,2.173-5.85,2.173
		c-2.406,0-4.319-0.739-5.74-2.222c-1.421-1.482-2.132-3.485-2.132-6.011c0-2.581,0.695-4.588,2.09-6.019
		c1.393-1.431,3.348-2.146,5.864-2.146c1.557,0,2.932,0.332,4.125,0.992c1.193,0.663,2.113,1.611,2.761,2.846
		C113.521,13.895,113.843,15.336,113.843,16.986z M108.74,7.591c-0.783-0.447-1.719-1.146-2.81-2.097
		c-1.165,0.997-2.069,1.696-2.711,2.097h-3.608V7.187c0.643-0.606,1.316-1.319,2.02-2.139c0.704-0.821,1.234-1.501,1.588-2.042
		h5.493c0.876,1.277,2.069,2.67,3.578,4.181v0.405H108.74z M103.582,16.986c0,1.36,0.181,2.397,0.544,3.111
		c0.363,0.712,0.974,1.068,1.832,1.068c0.848,0,1.447-0.356,1.795-1.068c0.351-0.713,0.525-1.75,0.525-3.111
		c0-1.352-0.177-2.372-0.531-3.062c-0.354-0.689-0.96-1.034-1.817-1.034c-0.839,0-1.441,0.342-1.804,1.028
		C103.763,14.603,103.582,15.625,103.582,16.986z"/>
	<linearGradient id="SVGID_7_" gradientUnits="userSpaceOnUse" x1="1.064" y1="16.8813" x2="247.1945" y2="16.8813">
		<stop  offset="0.304" style="stop-color:#F17821"/>
		<stop  offset="1" style="stop-color:#F7ED28"/>
	</linearGradient>
	<path fill="url(#SVGID_7_)" d="M134.395,24.941v-8.64c0-1.054-0.151-1.848-0.455-2.383c-0.303-0.537-0.789-0.805-1.461-0.805
		c-0.922,0-1.589,0.369-1.998,1.104c-0.411,0.736-0.616,1.999-0.616,3.789v6.935h-5.466V9.101h4.124l0.685,1.957h0.322
		c0.466-0.745,1.111-1.304,1.937-1.677c0.824-0.373,1.771-0.56,2.844-0.56c1.752,0,3.115,0.508,4.088,1.524
		c0.974,1.016,1.462,2.446,1.462,4.292v10.304H134.395z"/>
	<linearGradient id="SVGID_8_" gradientUnits="userSpaceOnUse" x1="1.064" y1="20.3203" x2="247.1945" y2="20.3203">
		<stop  offset="0.304" style="stop-color:#F17821"/>
		<stop  offset="1" style="stop-color:#F7ED28"/>
	</linearGradient>
	<path fill="url(#SVGID_8_)" d="M158.525,9.101v2.643l-2.167,0.797c0.298,0.541,0.447,1.17,0.447,1.888
		c0,1.706-0.6,3.029-1.797,3.97c-1.198,0.941-2.984,1.412-5.362,1.412c-0.586,0-1.052-0.038-1.397-0.112
		c-0.13,0.243-0.196,0.471-0.196,0.686c0,0.271,0.22,0.478,0.658,0.623c0.438,0.145,1.012,0.217,1.719,0.217h2.629
		c3.55,0,5.326,1.495,5.326,4.486c0,1.93-0.822,3.431-2.468,4.503c-1.645,1.071-3.954,1.607-6.927,1.607
		c-2.246,0-3.978-0.375-5.194-1.125c-1.216-0.751-1.825-1.828-1.825-3.237c0-1.892,1.175-3.112,3.524-3.663
		c-0.484-0.204-0.907-0.535-1.266-0.992c-0.358-0.456-0.538-0.909-0.538-1.356c0-0.493,0.135-0.93,0.405-1.308
		c0.27-0.378,0.834-0.827,1.693-1.349c-0.822-0.364-1.466-0.932-1.937-1.706c-0.471-0.774-0.707-1.715-0.707-2.824
		c0-1.724,0.587-3.062,1.762-4.013c1.175-0.95,2.852-1.426,5.033-1.426c0.289,0,0.788,0.033,1.496,0.098
		c0.708,0.065,1.23,0.125,1.565,0.182H158.525z M146.586,26.913c0,0.446,0.242,0.808,0.726,1.083
		c0.485,0.274,1.133,0.412,1.944,0.412c1.323,0,2.384-0.164,3.18-0.496c0.797-0.331,1.196-0.758,1.196-1.279
		c0-0.42-0.243-0.716-0.727-0.887c-0.486-0.174-1.179-0.26-2.083-0.26h-2.139c-0.587,0-1.083,0.137-1.489,0.413
		C146.789,26.173,146.586,26.512,146.586,26.913z M148.305,14.288c0,1.621,0.564,2.433,1.693,2.433c0.521,0,0.924-0.201,1.208-0.601
		c0.285-0.401,0.427-1.002,0.427-1.804c0-1.641-0.545-2.46-1.635-2.46C148.869,11.855,148.305,12.666,148.305,14.288z"/>
	<linearGradient id="SVGID_9_" gradientUnits="userSpaceOnUse" x1="1.063" y1="14.1123" x2="247.1955" y2="14.1123">
		<stop  offset="0.304" style="stop-color:#F17821"/>
		<stop  offset="1" style="stop-color:#F7ED28"/>
	</linearGradient>
	<path fill="url(#SVGID_9_)" d="M171.261,24.941l-1.048-2.098h-0.112c-0.738,0.914-1.487,1.54-2.251,1.875
		c-0.766,0.335-1.751,0.502-2.963,0.502c-1.491,0-2.666-0.446-3.524-1.342c-0.856-0.894-1.286-2.152-1.286-3.773
		c0-1.688,0.587-2.943,1.761-3.769c1.175-0.825,2.876-1.288,5.103-1.392l2.643-0.083v-0.224c0-1.305-0.643-1.958-1.929-1.958
		c-1.156,0-2.624,0.392-4.404,1.174l-1.58-3.607c1.846-0.95,4.175-1.426,6.99-1.426c2.033,0,3.605,0.503,4.718,1.511
		c1.116,1.006,1.671,2.414,1.671,4.222v10.388H171.261z M167.935,7.591c-0.644-0.41-1.592-1.056-2.846-1.936
		c-1.253-0.881-2.318-1.666-3.194-2.356V3.005h6.012c0.484,0.653,1.43,1.739,2.836,3.258l0.826,0.923v0.405H167.935z
		 M167.207,21.362c0.662,0,1.228-0.209,1.699-0.629c0.47-0.419,0.706-0.964,0.706-1.635v-1.231l-1.259,0.056
		c-1.798,0.066-2.699,0.727-2.699,1.986C165.654,20.877,166.172,21.362,167.207,21.362z"/>
	<linearGradient id="SVGID_10_" gradientUnits="userSpaceOnUse" x1="1.0688" y1="20.46" x2="247.1934" y2="20.46">
		<stop  offset="0.304" style="stop-color:#F17821"/>
		<stop  offset="1" style="stop-color:#F7ED28"/>
	</linearGradient>
	<path fill="url(#SVGID_10_)" d="M176.854,9.101h5.76l2.685,9.088c0.131,0.475,0.218,1.048,0.266,1.719h0.111
		c0.074-0.644,0.187-1.207,0.334-1.692l2.756-9.115h5.577l-6.262,16.846c-0.803,2.145-1.788,3.659-2.957,4.544
		c-1.17,0.886-2.696,1.328-4.579,1.328c-0.727,0-1.473-0.078-2.237-0.237v-4.291c0.494,0.111,1.057,0.166,1.692,0.166
		c0.484,0,0.909-0.093,1.272-0.279c0.363-0.187,0.681-0.449,0.951-0.789c0.27-0.341,0.558-0.897,0.867-1.671L176.854,9.101z"/>
	<linearGradient id="SVGID_11_" gradientUnits="userSpaceOnUse" x1="1.0781" y1="15.5737" x2="247.1905" y2="15.5737">
		<stop  offset="0.304" style="stop-color:#F17821"/>
		<stop  offset="1" style="stop-color:#F7ED28"/>
	</linearGradient>
	<path fill="url(#SVGID_11_)" d="M211.427,20.901c0.736,0,1.617-0.182,2.642-0.545v3.983c-0.735,0.317-1.437,0.543-2.104,0.679
		c-0.666,0.136-1.446,0.202-2.342,0.202c-1.835,0-3.16-0.448-3.97-1.349c-0.812-0.898-1.217-2.281-1.217-4.145v-6.529h-1.916v-2.223
		l2.433-1.72l1.413-3.327h3.578v3.173h3.887v4.096h-3.887v6.166C209.945,20.388,210.44,20.901,211.427,20.901z"/>
	<linearGradient id="SVGID_12_" gradientUnits="userSpaceOnUse" x1="1.061" y1="16.8813" x2="247.1933" y2="16.8813">
		<stop  offset="0.304" style="stop-color:#F17821"/>
		<stop  offset="1" style="stop-color:#F7ED28"/>
	</linearGradient>
	<path fill="url(#SVGID_12_)" d="M226.401,8.821c0.476,0,0.927,0.038,1.355,0.112l0.309,0.056l-0.489,5.159
		c-0.447-0.113-1.068-0.168-1.859-0.168c-1.194,0-2.061,0.272-2.601,0.818c-0.541,0.544-0.811,1.33-0.811,2.356v7.787h-5.466V9.101
		h4.068l0.853,2.531h0.266c0.457-0.839,1.092-1.517,1.908-2.034S225.571,8.821,226.401,8.821z"/>
	<linearGradient id="SVGID_13_" gradientUnits="userSpaceOnUse" x1="1.0693" y1="20.2295" x2="247.1931" y2="20.2295">
		<stop  offset="0.304" style="stop-color:#F17821"/>
		<stop  offset="1" style="stop-color:#F7ED28"/>
	</linearGradient>
	<path fill="url(#SVGID_13_)" d="M245.4,16.986c0,2.591-0.695,4.612-2.089,6.061c-1.395,1.449-3.345,2.173-5.853,2.173
		c-2.403,0-4.316-0.739-5.739-2.222c-1.42-1.482-2.131-3.485-2.131-6.011c0-2.581,0.696-4.588,2.089-6.019
		c1.394-1.431,3.349-2.146,5.866-2.146c1.555,0,2.931,0.332,4.123,0.992c1.193,0.663,2.114,1.611,2.761,2.846
		C245.076,13.895,245.4,15.336,245.4,16.986z M234.552,29.205c0-0.82,0.228-1.432,0.685-1.831c0.456-0.401,1.188-0.603,2.194-0.603
		c1.017,0,1.757,0.205,2.224,0.615c0.466,0.411,0.698,1.017,0.698,1.818c0,1.622-0.975,2.433-2.922,2.433
		c-0.979,0-1.703-0.201-2.174-0.601C234.787,30.637,234.552,30.025,234.552,29.205z M235.137,16.986c0,1.36,0.183,2.397,0.546,3.111
		c0.363,0.712,0.974,1.068,1.832,1.068c0.848,0,1.447-0.356,1.797-1.068c0.349-0.713,0.523-1.75,0.523-3.111
		c0-1.352-0.177-2.372-0.53-3.062c-0.355-0.689-0.961-1.034-1.817-1.034c-0.84,0-1.441,0.342-1.805,1.028
		C235.32,14.603,235.137,15.625,235.137,16.986z"/>
	<linearGradient id="SVGID_14_" gradientUnits="userSpaceOnUse" x1="1.0713" y1="16.8813" x2="247.194" y2="16.8813">
		<stop  offset="0.304" style="stop-color:#F17821"/>
		<stop  offset="1" style="stop-color:#F7ED28"/>
	</linearGradient>
	<path fill="url(#SVGID_14_)" d="M258.513,24.941v-8.64c0-1.054-0.15-1.848-0.453-2.383c-0.304-0.537-0.792-0.805-1.462-0.805
		c-0.922,0-1.59,0.369-1.999,1.104c-0.409,0.736-0.615,1.999-0.615,3.789v6.935h-5.465V9.101h4.124l0.684,1.957h0.321
		c0.467-0.745,1.112-1.304,1.936-1.677c0.826-0.373,1.774-0.56,2.847-0.56c1.751,0,3.115,0.508,4.089,1.524
		c0.975,1.016,1.461,2.446,1.461,4.292v10.304H258.513z"/>
	<linearGradient id="SVGID_15_" gradientUnits="userSpaceOnUse" x1="1.0391" y1="20.3203" x2="247.1911" y2="20.3203">
		<stop  offset="0.304" style="stop-color:#F17821"/>
		<stop  offset="1" style="stop-color:#F7ED28"/>
	</linearGradient>
	<path fill="url(#SVGID_15_)" d="M282.644,9.101v2.643l-2.166,0.797c0.297,0.541,0.447,1.17,0.447,1.888
		c0,1.706-0.6,3.029-1.797,3.97c-1.197,0.941-2.985,1.412-5.361,1.412c-0.589,0-1.055-0.038-1.399-0.112
		c-0.13,0.243-0.195,0.471-0.195,0.686c0,0.271,0.22,0.478,0.657,0.623c0.438,0.145,1.012,0.217,1.72,0.217h2.629
		c3.551,0,5.326,1.495,5.326,4.486c0,1.93-0.822,3.431-2.468,4.503c-1.645,1.071-3.954,1.607-6.928,1.607
		c-2.244,0-3.978-0.375-5.194-1.125c-1.215-0.751-1.824-1.828-1.824-3.237c0-1.892,1.175-3.112,3.524-3.663
		c-0.485-0.204-0.907-0.535-1.265-0.992c-0.361-0.456-0.539-0.909-0.539-1.356c0-0.493,0.134-0.93,0.404-1.308
		s0.835-0.827,1.692-1.349c-0.82-0.364-1.466-0.932-1.938-1.706c-0.47-0.774-0.705-1.715-0.705-2.824
		c0-1.724,0.587-3.062,1.762-4.013c1.175-0.95,2.852-1.426,5.033-1.426c0.289,0,0.786,0.033,1.497,0.098
		c0.707,0.065,1.229,0.125,1.564,0.182H282.644z M270.704,26.913c0,0.446,0.243,0.808,0.728,1.083
		c0.484,0.274,1.133,0.412,1.944,0.412c1.322,0,2.383-0.164,3.18-0.496c0.797-0.331,1.196-0.758,1.196-1.279
		c0-0.42-0.243-0.716-0.728-0.887c-0.484-0.174-1.178-0.26-2.083-0.26h-2.14c-0.586,0-1.082,0.137-1.489,0.413
		C270.908,26.173,270.704,26.512,270.704,26.913z M272.424,14.288c0,1.621,0.563,2.433,1.692,2.433c0.521,0,0.925-0.201,1.209-0.601
		c0.284-0.401,0.427-1.002,0.427-1.804c0-1.641-0.546-2.46-1.636-2.46C272.988,11.855,272.424,12.666,272.424,14.288z"/>
	<linearGradient id="SVGID_16_" gradientUnits="userSpaceOnUse" x1="1.0825" y1="14.2036" x2="247.1966" y2="14.2036">
		<stop  offset="0.304" style="stop-color:#F17821"/>
		<stop  offset="1" style="stop-color:#F7ED28"/>
	</linearGradient>
	<path fill="url(#SVGID_16_)" d="M297.185,25.22c-1.661,0-2.974-0.673-3.938-2.02c-0.964-1.346-1.446-3.161-1.446-5.445
		c0-2.386,0.517-4.239,1.552-5.558c1.035-1.318,2.484-1.978,4.349-1.978c1.836,0,3.247,0.764,4.235,2.292h0.111
		c-0.111-0.438-0.211-1.002-0.3-1.691c-0.089-0.69-0.133-1.374-0.133-2.056V8.626h-3.229V5.243h3.229V3.188h5.508v2.055h2.167v3.383
		h-2.167v16.315h-4.474l-1.23-1.999h-0.194C300.246,24.462,298.898,25.22,297.185,25.22z M299.938,20.901
		c0.783,0,1.328-0.228,1.636-0.685c0.308-0.457,0.475-1.152,0.502-2.083v-0.35c0-1.016-0.202-1.794-0.606-2.333
		c-0.405-0.541-0.944-0.812-1.615-0.812c-1.342,0-2.014,1.058-2.014,3.173c0,0.96,0.191,1.715,0.572,2.265
		C298.795,20.626,299.303,20.901,299.938,20.901z"/>
	<linearGradient id="SVGID_17_" gradientUnits="userSpaceOnUse" x1="1.062" y1="20.2295" x2="247.1926" y2="20.2295">
		<stop  offset="0.304" style="stop-color:#F17821"/>
		<stop  offset="1" style="stop-color:#F7ED28"/>
	</linearGradient>
	<path fill="url(#SVGID_17_)" d="M321.803,24.941l-1.048-2.098h-0.112c-0.736,0.914-1.486,1.54-2.251,1.875
		c-0.764,0.335-1.752,0.502-2.965,0.502c-1.491,0-2.664-0.446-3.521-1.342c-0.858-0.894-1.286-2.152-1.286-3.773
		c0-1.688,0.586-2.943,1.761-3.769c1.175-0.825,2.876-1.288,5.103-1.392l2.645-0.083v-0.224c0-1.305-0.645-1.958-1.931-1.958
		c-1.156,0-2.623,0.392-4.404,1.174l-1.579-3.607c1.846-0.95,4.176-1.426,6.991-1.426c2.03,0,3.603,0.503,4.718,1.511
		c1.113,1.006,1.671,2.414,1.671,4.222v10.388H321.803z M315.122,29.205c0-0.82,0.228-1.432,0.684-1.831
		c0.459-0.401,1.189-0.603,2.196-0.603c1.015,0,1.756,0.205,2.222,0.615c0.466,0.411,0.698,1.017,0.698,1.818
		c0,1.622-0.973,2.433-2.92,2.433c-0.979,0-1.705-0.201-2.174-0.601C315.355,30.637,315.122,30.025,315.122,29.205z M317.749,21.362
		c0.662,0,1.229-0.209,1.699-0.629c0.47-0.419,0.706-0.964,0.706-1.635v-1.231l-1.258,0.056c-1.799,0.066-2.699,0.727-2.699,1.986
		C316.197,20.877,316.715,21.362,317.749,21.362z"/>
	<linearGradient id="SVGID_18_" gradientUnits="userSpaceOnUse" x1="1.0654" y1="13.834" x2="247.1936" y2="13.834">
		<stop  offset="0.304" style="stop-color:#F17821"/>
		<stop  offset="1" style="stop-color:#F7ED28"/>
	</linearGradient>
	<path fill="url(#SVGID_18_)" d="M329.2,5.158c0-0.819,0.229-1.431,0.685-1.831c0.457-0.4,1.192-0.601,2.208-0.601
		c1.017,0,1.758,0.205,2.224,0.615c0.467,0.41,0.699,1.016,0.699,1.817c0,1.604-0.975,2.405-2.923,2.405
		C330.164,7.563,329.2,6.762,329.2,5.158z M334.804,24.941h-5.465V9.101h5.465V24.941z"/>
</g>
</svg>
