<?xml version="1.0" encoding="utf-8"?>
<!-- Generator: Adobe Illustrator 16.0.2, SVG Export Plug-In . SVG Version: 6.00 Build 0)  -->
<!DOCTYPE svg PUBLIC "-//W3C//DTD SVG 1.1//EN" "http://www.w3.org/Graphics/SVG/1.1/DTD/svg11.dtd">
<svg version="1.1" id="Layer_1" xmlns="http://www.w3.org/2000/svg" xmlns:xlink="http://www.w3.org/1999/xlink" x="0px" y="0px"
	 width="216.062px" height="42.104px" viewBox="0 0 216.062 42.104" enable-background="new 0 0 216.062 42.104"
	 xml:space="preserve">
<g>
	<linearGradient id="SVGID_1_" gradientUnits="userSpaceOnUse" x1="31.8696" y1="27.332" x2="195.2243" y2="27.332">
		<stop  offset="0" style="stop-color:#F17D30"/>
		<stop  offset="1" style="stop-color:#F7ED28"/>
	</linearGradient>
	<path fill="url(#SVGID_1_)" d="M20.128,32.983c0,1.782-0.452,3.364-1.356,4.747c-0.904,1.383-2.208,2.457-3.912,3.224
		c-1.703,0.767-3.702,1.149-5.995,1.149c-1.914,0-3.519-0.134-4.816-0.403C2.752,41.433,1.402,40.964,0,40.295v-6.918
		c1.481,0.76,3.02,1.354,4.619,1.778c1.598,0.426,3.066,0.639,4.403,0.639c1.153,0,1.998-0.199,2.536-0.6
		c0.537-0.399,0.806-0.913,0.806-1.543c0-0.393-0.109-0.737-0.324-1.031c-0.217-0.295-0.564-0.593-1.042-0.895
		c-0.479-0.301-1.753-0.917-3.824-1.848C5.3,29.026,3.895,28.2,2.958,27.401c-0.938-0.799-1.631-1.717-2.083-2.752
		s-0.679-2.26-0.679-3.676c0-2.646,0.964-4.71,2.891-6.191c1.926-1.481,4.573-2.221,7.94-2.221c2.975,0,6.009,0.688,9.101,2.064
		L17.75,20.62c-2.686-1.232-5.006-1.848-6.958-1.848c-1.009,0-1.743,0.176-2.202,0.531c-0.458,0.354-0.687,0.793-0.687,1.317
		c0,0.563,0.291,1.068,0.874,1.513c0.583,0.446,2.166,1.259,4.748,2.438c2.477,1.113,4.196,2.309,5.16,3.587
		C19.646,29.436,20.128,31.044,20.128,32.983z"/>
	<linearGradient id="SVGID_2_" gradientUnits="userSpaceOnUse" x1="31.8701" y1="21.5635" x2="195.226" y2="21.5635">
		<stop  offset="0" style="stop-color:#F17D30"/>
		<stop  offset="1" style="stop-color:#F7ED28"/>
	</linearGradient>
	<path fill="url(#SVGID_2_)" d="M42.202,41.711l-1.416-5.387H31.45l-1.455,5.387h-8.531l9.376-28.855h10.358l9.494,28.855H42.202z
		 M41.416,5.917c0,1.022-0.271,1.894-0.816,2.614c-0.543,0.721-1.379,1.232-2.505,1.534l-0.216,0.924h-4.069l-0.55-2.536
		c0.865-0.104,1.447-0.297,1.75-0.58c0.3-0.281,0.452-0.664,0.452-1.149c0-0.38-0.131-0.682-0.394-0.904
		c-0.262-0.223-0.596-0.334-1.002-0.334c-0.393,0-0.747,0.026-1.062,0.079c-0.315,0.053-0.865,0.21-1.651,0.472v-4.01
		c1.219-0.406,2.661-0.609,4.324-0.609c1.874,0,3.299,0.394,4.275,1.18C40.927,3.381,41.416,4.488,41.416,5.917z M39.175,29.956
		l-1.238-4.717c-0.289-1.049-0.639-2.405-1.052-4.069c-0.413-1.664-0.685-2.856-0.816-3.577c-0.117,0.668-0.35,1.769-0.698,3.302
		c-0.347,1.533-1.116,4.554-2.309,9.061H39.175z"/>
	<linearGradient id="SVGID_3_" gradientUnits="userSpaceOnUse" x1="31.8711" y1="27.3418" x2="195.223" y2="27.3418">
		<stop  offset="0" style="stop-color:#F17D30"/>
		<stop  offset="1" style="stop-color:#F7ED28"/>
	</linearGradient>
	<path fill="url(#SVGID_3_)" d="M81.161,41.711H70.979L60.482,21.465h-0.177c0.249,3.184,0.374,5.615,0.374,7.292v12.954H53.8
		V12.973h10.142l10.457,19.971h0.118c-0.184-2.896-0.276-5.222-0.276-6.978V12.973h6.919V41.711z"/>
	<linearGradient id="SVGID_4_" gradientUnits="userSpaceOnUse" x1="31.873" y1="27.3418" x2="195.2225" y2="27.3418">
		<stop  offset="0" style="stop-color:#F17D30"/>
		<stop  offset="1" style="stop-color:#F7ED28"/>
	</linearGradient>
	<path fill="url(#SVGID_4_)" d="M118.684,22.113c0,3.211-0.946,5.691-2.84,7.44c-1.894,1.749-4.583,2.623-8.069,2.623h-2.181v9.534
		H97.83V12.973h9.945c3.63,0,6.356,0.793,8.177,2.379C117.773,16.938,118.684,19.191,118.684,22.113z M105.594,25.848h1.415
		c1.166,0,2.093-0.327,2.781-0.982c0.688-0.656,1.032-1.56,1.032-2.713c0-1.939-1.075-2.909-3.224-2.909h-2.005V25.848z"/>
	<linearGradient id="SVGID_5_" gradientUnits="userSpaceOnUse" x1="31.8716" y1="27.3418" x2="195.2258" y2="27.3418">
		<stop  offset="0" style="stop-color:#F17D30"/>
		<stop  offset="1" style="stop-color:#F7ED28"/>
	</linearGradient>
	<path fill="url(#SVGID_5_)" d="M147.894,41.711h-7.803V29.995h-9.023v11.716h-7.802V12.973h7.802v10.654h9.023V12.973h7.803V41.711
		z"/>
	<linearGradient id="SVGID_6_" gradientUnits="userSpaceOnUse" x1="31.8726" y1="20.8555" x2="195.2258" y2="20.8555">
		<stop  offset="0" style="stop-color:#F17D30"/>
		<stop  offset="1" style="stop-color:#F7ED28"/>
	</linearGradient>
	<path fill="url(#SVGID_6_)" d="M171.737,41.711l-1.416-5.387h-9.336l-1.455,5.387H151l9.376-28.855h10.358l9.494,28.855H171.737z
		 M173.938,10.674h-4.03c-1.375-0.917-2.759-2.005-4.146-3.263c-1.494,1.324-2.877,2.411-4.148,3.263h-4.01v-0.57
		c1.232-1.441,2.641-3.361,4.227-5.759h7.883c1.585,2.398,2.993,4.318,4.226,5.759V10.674z M168.71,29.956l-1.238-4.717
		c-0.288-1.049-0.639-2.405-1.052-4.069c-0.412-1.664-0.685-2.856-0.816-3.577c-0.117,0.668-0.35,1.769-0.697,3.302
		s-1.118,4.554-2.31,9.061H168.71z M178.283,3.146c0,1.559-0.819,2.496-2.458,2.811l-0.117,0.963h-3.048l-0.216-2.123
		c1.586,0,2.379-0.321,2.379-0.964c0-0.589-0.439-0.884-1.317-0.884c-0.472,0-0.943,0.079-1.415,0.236V0.197
		C172.483,0.066,173.14,0,174.056,0c1.363,0,2.408,0.266,3.136,0.796C177.919,1.327,178.283,2.11,178.283,3.146z"/>
	<linearGradient id="SVGID_7_" gradientUnits="userSpaceOnUse" x1="31.8701" y1="27.3418" x2="195.2263" y2="27.3418">
		<stop  offset="0" style="stop-color:#F17D30"/>
		<stop  offset="1" style="stop-color:#F7ED28"/>
	</linearGradient>
	<path fill="url(#SVGID_7_)" d="M195.854,41.711l-5.877-20.698h-0.177c0.275,3.525,0.413,6.264,0.413,8.216v12.482h-6.88V12.973
		h10.339l5.995,20.404h0.157l5.878-20.404h10.358v28.738h-7.135v-12.6c0-0.655,0.009-1.382,0.029-2.182
		c0.02-0.799,0.107-2.758,0.265-5.877h-0.177l-5.799,20.659H195.854z"/>
</g>
</svg>
