<?xml version="1.0" encoding="utf-8"?>
<!-- Generator: Adobe Illustrator 16.0.2, SVG Export Plug-In . SVG Version: 6.00 Build 0)  -->
<!DOCTYPE svg PUBLIC "-//W3C//DTD SVG 1.1//EN" "http://www.w3.org/Graphics/SVG/1.1/DTD/svg11.dtd">
<svg version="1.1" id="Layer_1" xmlns="http://www.w3.org/2000/svg" xmlns:xlink="http://www.w3.org/1999/xlink" x="0px" y="0px"
	 width="147.288px" height="20.083px" viewBox="0 0 147.288 20.083" enable-background="new 0 0 147.288 20.083"
	 xml:space="preserve">
<g>
	<linearGradient id="SVGID_1_" gradientUnits="userSpaceOnUse" x1="10.9834" y1="10.5063" x2="141.4998" y2="10.5063">
		<stop  offset="0" style="stop-color:#209EC7"/>
		<stop  offset="0.9946" style="stop-color:#DE6364"/>
	</linearGradient>
	<path fill="url(#SVGID_1_)" d="M8.983,5.059c-1.198,0-2.132,0.491-2.803,1.472c-0.672,0.981-1.007,2.334-1.007,4.058
		c0,3.585,1.364,5.377,4.09,5.377c0.824,0,1.623-0.114,2.396-0.344c0.773-0.229,1.55-0.505,2.333-0.828v4.255
		c-1.555,0.688-3.313,1.032-5.276,1.032c-2.812,0-4.967-0.815-6.467-2.446C0.75,16.004,0,13.647,0,10.563
		C0,8.635,0.363,6.94,1.089,5.479c0.727-1.461,1.771-2.584,3.135-3.371C5.587,1.323,7.192,0.93,9.035,0.93
		c2.013,0,3.937,0.438,5.772,1.313l-1.542,3.962c-0.688-0.323-1.377-0.594-2.064-0.815C10.513,5.169,9.773,5.059,8.983,5.059z"/>
	<linearGradient id="SVGID_2_" gradientUnits="userSpaceOnUse" x1="10.9829" y1="10.5132" x2="141.4961" y2="10.5132">
		<stop  offset="0" style="stop-color:#209EC7"/>
		<stop  offset="0.9946" style="stop-color:#DE6364"/>
	</linearGradient>
	<path fill="url(#SVGID_2_)" d="M33.093,19.828h-5.058v-7.595h-5.849v7.595h-5.059V1.198h5.059v6.906h5.849V1.198h5.058V19.828z"/>
	<linearGradient id="SVGID_3_" gradientUnits="userSpaceOnUse" x1="10.9824" y1="10.0415" x2="141.5028" y2="10.0415">
		<stop  offset="0" style="stop-color:#209EC7"/>
		<stop  offset="0.9946" style="stop-color:#DE6364"/>
	</linearGradient>
	<path fill="url(#SVGID_3_)" d="M54.152,10.487c0,3.127-0.771,5.508-2.313,7.143c-1.542,1.635-3.799,2.453-6.773,2.453
		c-2.922,0-5.163-0.824-6.722-2.473c-1.558-1.647-2.338-4.03-2.338-7.148c0-3.1,0.782-5.469,2.345-7.104
		c1.563-1.635,3.827-2.454,6.792-2.454c3.067,0,5.348,0.829,6.843,2.485c0.331-0.628,0.552-1.201,0.663-1.72
		c0.11-0.518,0.166-1.074,0.166-1.669h4.778l0.179,0.28c-0.348,1.682-0.841,2.973-1.479,3.875c-0.637,0.899-1.516,1.592-2.637,2.076
		C53.986,7.471,54.152,8.89,54.152,10.487z M41.307,10.487c0,3.603,1.254,5.403,3.759,5.403c1.283,0,2.235-0.446,2.854-1.338
		c0.621-0.892,0.93-2.247,0.93-4.065c0-1.843-0.312-3.213-0.937-4.109c-0.625-0.896-1.565-1.344-2.822-1.344
		C42.569,5.033,41.307,6.851,41.307,10.487z"/>
	<linearGradient id="SVGID_4_" gradientUnits="userSpaceOnUse" x1="10.9805" y1="10.5132" x2="141.5058" y2="10.5132">
		<stop  offset="0" style="stop-color:#209EC7"/>
		<stop  offset="0.9946" style="stop-color:#DE6364"/>
	</linearGradient>
	<path fill="url(#SVGID_4_)" d="M59.057,19.828V1.198h5.059v18.629H59.057z"/>
	<linearGradient id="SVGID_5_" gradientUnits="userSpaceOnUse" x1="10.9819" y1="10.5132" x2="141.5012" y2="10.5132">
		<stop  offset="0" style="stop-color:#209EC7"/>
		<stop  offset="0.9946" style="stop-color:#DE6364"/>
	</linearGradient>
	<path fill="url(#SVGID_5_)" d="M92.137,19.828h-6.601L78.732,6.702h-0.115c0.162,2.064,0.242,3.641,0.242,4.728v8.397h-4.46V1.198
		h6.576l6.779,12.946h0.076c-0.119-1.878-0.178-3.385-0.178-4.523V1.198h4.485V19.828z"/>
	<linearGradient id="SVGID_6_" gradientUnits="userSpaceOnUse" x1="10.9883" y1="10.5063" x2="141.4984" y2="10.5063">
		<stop  offset="0" style="stop-color:#209EC7"/>
		<stop  offset="0.9946" style="stop-color:#DE6364"/>
	</linearGradient>
	<path fill="url(#SVGID_6_)" d="M103.221,8.919h8.04v10.042c-2.183,0.747-4.582,1.121-7.198,1.121c-2.872,0-5.091-0.832-6.658-2.497
		s-2.351-4.04-2.351-7.124c0-3.007,0.858-5.348,2.575-7.021c1.715-1.673,4.12-2.51,7.212-2.51c1.172,0,2.278,0.11,3.318,0.331
		c1.042,0.221,1.948,0.501,2.722,0.841l-1.594,3.95c-1.342-0.663-2.816-0.994-4.422-0.994c-1.47,0-2.604,0.478-3.407,1.434
		c-0.804,0.955-1.205,2.321-1.205,4.096c0,1.742,0.363,3.068,1.09,3.982c0.727,0.914,1.773,1.37,3.142,1.37
		c0.747,0,1.436-0.071,2.063-0.217v-2.917h-3.326V8.919z"/>
	<linearGradient id="SVGID_7_" gradientUnits="userSpaceOnUse" x1="10.9766" y1="10.4746" x2="141.5018" y2="10.4746">
		<stop  offset="0" style="stop-color:#209EC7"/>
		<stop  offset="0.9946" style="stop-color:#DE6364"/>
	</linearGradient>
	<path fill="url(#SVGID_7_)" d="M126.373,19.828l-0.917-3.491h-6.052l-0.943,3.491h-5.531l6.078-18.706h6.716l6.155,18.706H126.373z
		 M124.411,12.208l-0.803-3.059c-0.187-0.68-0.414-1.559-0.681-2.637c-0.269-1.079-0.444-1.852-0.529-2.319
		c-0.077,0.433-0.228,1.146-0.453,2.14c-0.225,0.994-0.724,2.952-1.497,5.875H124.411z"/>
	<linearGradient id="SVGID_8_" gradientUnits="userSpaceOnUse" x1="10.9814" y1="10.5132" x2="141.5012" y2="10.5132">
		<stop  offset="0" style="stop-color:#209EC7"/>
		<stop  offset="0.9946" style="stop-color:#DE6364"/>
	</linearGradient>
	<path fill="url(#SVGID_8_)" d="M138.622,8.104l3.212-6.906h5.454l-6.129,11.354v7.276h-5.072v-7.123l-6.129-11.506h5.479
		L138.622,8.104z"/>
</g>
</svg>
