<?xml version="1.0" encoding="utf-8"?>
<!-- Generator: Adobe Illustrator 16.0.2, SVG Export Plug-In . SVG Version: 6.00 Build 0)  -->
<!DOCTYPE svg PUBLIC "-//W3C//DTD SVG 1.1//EN" "http://www.w3.org/Graphics/SVG/1.1/DTD/svg11.dtd">
<svg version="1.1" id="Layer_1" xmlns="http://www.w3.org/2000/svg" xmlns:xlink="http://www.w3.org/1999/xlink" x="0px" y="0px"
	 width="146.95px" height="20.036px" viewBox="0 0 146.95 20.036" enable-background="new 0 0 146.95 20.036" xml:space="preserve">
<g>
	<path fill="#764E24" d="M8.963,5.047c-1.195,0-2.127,0.489-2.797,1.468s-1.004,2.329-1.004,4.049c0,3.577,1.36,5.365,4.081,5.365
		c0.822,0,1.619-0.114,2.39-0.343c0.771-0.229,1.546-0.505,2.326-0.827v4.247c-1.551,0.687-3.305,1.029-5.263,1.029
		c-2.805,0-4.956-0.813-6.452-2.441C0.748,15.968,0,13.616,0,10.539c0-1.924,0.362-3.615,1.087-5.072
		c0.725-1.458,1.767-2.579,3.127-3.363c1.362-0.784,2.96-1.176,4.8-1.176c2.009,0,3.928,0.437,5.759,1.309l-1.539,3.954
		c-0.687-0.322-1.373-0.593-2.06-0.813C10.488,5.157,9.751,5.047,8.963,5.047z"/>
	<path fill="#764E24" d="M33.018,19.782h-5.047v-7.578h-5.835v7.578h-5.047V1.195h5.047v6.89h5.835v-6.89h5.047V19.782z"/>
	<path fill="#764E24" d="M54.027,10.463c0,3.119-0.769,5.495-2.307,7.127c-1.539,1.631-3.791,2.446-6.758,2.446
		c-2.915,0-5.15-0.822-6.705-2.467c-1.556-1.644-2.333-4.021-2.333-7.132c0-3.093,0.779-5.456,2.339-7.087
		c1.559-1.632,3.817-2.447,6.776-2.447c3.06,0,5.334,0.826,6.827,2.479c0.331-0.627,0.55-1.199,0.66-1.716
		c0.11-0.517,0.166-1.072,0.166-1.666h4.768l0.178,0.28c-0.347,1.678-0.838,2.966-1.474,3.865c-0.636,0.898-1.513,1.589-2.632,2.072
		C53.863,7.454,54.027,8.87,54.027,10.463z M41.212,10.463c0,3.594,1.25,5.391,3.75,5.391c1.281,0,2.229-0.445,2.849-1.335
		c0.619-0.89,0.929-2.242,0.929-4.056c0-1.839-0.312-3.206-0.935-4.1c-0.623-0.894-1.562-1.341-2.816-1.341
		C42.471,5.022,41.212,6.835,41.212,10.463z"/>
	<path fill="#764E24" d="M58.922,19.782V1.195h5.047v18.587H58.922z"/>
	<path fill="#764E24" d="M91.925,19.782H85.34L78.551,6.687h-0.115c0.161,2.06,0.243,3.632,0.243,4.717v8.378H74.23V1.195h6.56
		l6.763,12.917h0.076c-0.119-1.873-0.178-3.377-0.178-4.513V1.195h4.475V19.782z"/>
	<path fill="#764E24" d="M102.984,8.899h8.022v10.018c-2.179,0.746-4.572,1.119-7.183,1.119c-2.865,0-5.08-0.831-6.644-2.492
		c-1.563-1.661-2.345-4.03-2.345-7.106c0-3,0.856-5.335,2.568-7.005c1.712-1.67,4.111-2.504,7.196-2.504
		c1.169,0,2.272,0.11,3.312,0.331c1.037,0.22,1.943,0.5,2.714,0.839l-1.589,3.941c-1.339-0.661-2.81-0.992-4.411-0.992
		c-1.467,0-2.601,0.477-3.4,1.43c-0.802,0.953-1.202,2.316-1.202,4.087c0,1.737,0.362,3.062,1.088,3.973
		c0.723,0.912,1.769,1.367,3.133,1.367c0.746,0,1.433-0.072,2.06-0.216v-2.912h-3.318V8.899z"/>
	<path fill="#764E24" d="M126.083,19.782l-0.915-3.483h-6.037l-0.942,3.483h-5.517l6.063-18.664h6.699l6.143,18.664H126.083z
		 M124.127,12.179l-0.803-3.051c-0.187-0.678-0.412-1.555-0.679-2.631c-0.268-1.077-0.444-1.848-0.527-2.314
		c-0.078,0.432-0.228,1.144-0.452,2.136c-0.225,0.991-0.723,2.945-1.494,5.86H124.127z"/>
	<path fill="#764E24" d="M138.305,8.085l3.204-6.89h5.441l-6.115,11.328v7.259h-5.06v-7.107l-6.115-11.48h5.467L138.305,8.085z"/>
</g>
</svg>
