<?xml version="1.0" encoding="utf-8"?>
<!-- Generator: Adobe Illustrator 16.0.2, SVG Export Plug-In . SVG Version: 6.00 Build 0)  -->
<!DOCTYPE svg PUBLIC "-//W3C//DTD SVG 1.1//EN" "http://www.w3.org/Graphics/SVG/1.1/DTD/svg11.dtd">
<svg version="1.1" id="Layer_1" xmlns="http://www.w3.org/2000/svg" xmlns:xlink="http://www.w3.org/1999/xlink" x="0px" y="0px"
	 width="186.256px" height="55.051px" viewBox="0 0 186.256 55.051" enable-background="new 0 0 186.256 55.051"
	 xml:space="preserve">
<linearGradient id="SVGID_1_" gradientUnits="userSpaceOnUse" x1="-261.0874" y1="592.167" x2="-260.0874" y2="592.167" gradientTransform="matrix(187.256 0 0 -187.256 48889.75 110914.2891)">
	<stop  offset="0" style="stop-color:#DC5C5B"/>
	<stop  offset="0.4785" style="stop-color:#209EC7"/>
	<stop  offset="0.9946" style="stop-color:#DE6364"/>
	<stop  offset="1" style="stop-color:#DE6364"/>
</linearGradient>
<polygon fill="url(#SVGID_1_)" points="185.756,54.551 185.756,55.051 0,55.051 0,0 186.256,0 186.256,55.051 185.756,55.051 
	185.756,54.551 185.256,54.551 185.256,1 1,1 1,54.051 185.756,54.051 185.756,54.551 185.256,54.551 "/>
<g>
	<defs>
		<path id="SVGID_2_" d="M42.209,21.494c-1.045,0.604-1.846,1.465-2.402,2.584c-0.557,1.119-0.834,2.418-0.834,3.896
			c0,2.363,0.574,4.169,1.723,5.419c1.15,1.251,2.8,1.876,4.957,1.876c1.504,0,2.851-0.264,4.043-0.791v-3.262
			c-0.6,0.248-1.196,0.459-1.788,0.635c-0.593,0.175-1.204,0.263-1.835,0.263c-2.09,0-3.136-1.373-3.136-4.121
			c0-1.32,0.257-2.357,0.773-3.109c0.513-0.752,1.23-1.128,2.148-1.128c0.606,0,1.172,0.085,1.699,0.254
			c0.527,0.17,1.055,0.378,1.582,0.625l1.182-3.037c-1.407-0.67-2.881-1.006-4.424-1.006C44.483,20.592,43.254,20.893,42.209,21.494
			"/>
	</defs>
	<clipPath id="SVGID_3_">
		<use xlink:href="#SVGID_2_"  overflow="visible"/>
	</clipPath>
	
		<linearGradient id="SVGID_4_" gradientUnits="userSpaceOnUse" x1="-261.1016" y1="592.6338" x2="-260.0966" y2="592.6338" gradientTransform="matrix(113.5508 0 0 -113.5508 29687.2188 67321.9297)">
		<stop  offset="0" style="stop-color:#209EC7"/>
		<stop  offset="0.9946" style="stop-color:#DE6364"/>
		<stop  offset="1" style="stop-color:#DE6364"/>
	</linearGradient>
	<rect x="38.973" y="20.592" clip-path="url(#SVGID_3_)" fill="url(#SVGID_4_)" width="11.348" height="14.678"/>
</g>
<g>
	<defs>
		<polygon id="SVGID_5_" points="60.57,20.797 60.57,26.09 56.088,26.09 56.088,20.797 52.211,20.797 52.211,35.074 56.088,35.074 
			56.088,29.254 60.57,29.254 60.57,35.074 64.447,35.074 64.447,20.797 		"/>
	</defs>
	<clipPath id="SVGID_6_">
		<use xlink:href="#SVGID_5_"  overflow="visible"/>
	</clipPath>
	
		<linearGradient id="SVGID_7_" gradientUnits="userSpaceOnUse" x1="-261.1011" y1="592.6338" x2="-260.1011" y2="592.6338" gradientTransform="matrix(113.5508 0 0 -113.5508 29687.2188 67321.9297)">
		<stop  offset="0" style="stop-color:#209EC7"/>
		<stop  offset="0.9946" style="stop-color:#DE6364"/>
		<stop  offset="1" style="stop-color:#DE6364"/>
	</linearGradient>
	<rect x="52.211" y="20.797" clip-path="url(#SVGID_6_)" fill="url(#SVGID_7_)" width="12.236" height="14.277"/>
</g>
<g>
	<defs>
		<path id="SVGID_8_" d="M70.852,27.915c0-2.785,0.966-4.18,2.9-4.18c0.963,0,1.683,0.344,2.162,1.031s0.719,1.737,0.719,3.148
			c0,1.394-0.238,2.433-0.712,3.115c-0.477,0.685-1.206,1.026-2.188,1.026C71.811,32.057,70.852,30.677,70.852,27.915 M79.67,19.879
			c0,0.456-0.042,0.883-0.127,1.278c-0.085,0.398-0.254,0.837-0.507,1.319c-1.147-1.27-2.895-1.905-5.245-1.905
			c-2.273,0-4.008,0.627-5.205,1.88c-1.199,1.254-1.797,3.068-1.797,5.444c0,2.39,0.598,4.217,1.791,5.479
			c1.195,1.264,2.913,1.895,5.153,1.895c2.277,0,4.007-0.626,5.189-1.88c1.182-1.253,1.774-3.077,1.774-5.475
			c0-1.224-0.127-2.31-0.382-3.262c0.86-0.37,1.534-0.9,2.023-1.592c0.488-0.689,0.865-1.679,1.132-2.968l-0.137-0.215H79.67z"/>
	</defs>
	<clipPath id="SVGID_9_">
		<use xlink:href="#SVGID_8_"  overflow="visible"/>
	</clipPath>
	
		<linearGradient id="SVGID_10_" gradientUnits="userSpaceOnUse" x1="-261.1011" y1="592.6377" x2="-260.1011" y2="592.6377" gradientTransform="matrix(113.5508 0 0 -113.5508 29687.2188 67321.9297)">
		<stop  offset="0" style="stop-color:#209EC7"/>
		<stop  offset="0.9946" style="stop-color:#DE6364"/>
		<stop  offset="1" style="stop-color:#DE6364"/>
	</linearGradient>
	<rect x="66.789" y="19.879" clip-path="url(#SVGID_9_)" fill="url(#SVGID_10_)" width="16.68" height="15.391"/>
</g>
<g>
	<defs>
		<rect id="SVGID_11_" x="84.551" y="20.797" width="3.877" height="14.277"/>
	</defs>
	<clipPath id="SVGID_12_">
		<use xlink:href="#SVGID_11_"  overflow="visible"/>
	</clipPath>
	
		<linearGradient id="SVGID_13_" gradientUnits="userSpaceOnUse" x1="-261.1016" y1="592.6338" x2="-260.1016" y2="592.6338" gradientTransform="matrix(113.5508 0 0 -113.5508 29687.2188 67321.9297)">
		<stop  offset="0" style="stop-color:#209EC7"/>
		<stop  offset="0.9946" style="stop-color:#DE6364"/>
		<stop  offset="1" style="stop-color:#DE6364"/>
	</linearGradient>
	<rect x="84.551" y="20.797" clip-path="url(#SVGID_12_)" fill="url(#SVGID_13_)" width="3.877" height="14.277"/>
</g>
<g>
	<defs>
		<path id="SVGID_14_" d="M106.465,20.797v6.455c0,0.873,0.047,2.027,0.137,3.467h-0.059l-5.195-9.922h-5.039v14.277h3.417v-6.436
			c0-0.834-0.06-2.041-0.185-3.624h0.088l5.215,10.06h5.059V20.797H106.465z"/>
	</defs>
	<clipPath id="SVGID_15_">
		<use xlink:href="#SVGID_14_"  overflow="visible"/>
	</clipPath>
	
		<linearGradient id="SVGID_16_" gradientUnits="userSpaceOnUse" x1="-261.1011" y1="592.6338" x2="-260.1011" y2="592.6338" gradientTransform="matrix(113.5508 0 0 -113.5508 29687.2188 67321.9297)">
		<stop  offset="0" style="stop-color:#209EC7"/>
		<stop  offset="0.9946" style="stop-color:#DE6364"/>
		<stop  offset="1" style="stop-color:#DE6364"/>
	</linearGradient>
	<rect x="96.309" y="20.797" clip-path="url(#SVGID_15_)" fill="url(#SVGID_16_)" width="13.594" height="14.277"/>
</g>
<g>
	<defs>
		<path id="SVGID_17_" d="M114.221,22.516c-1.317,1.283-1.973,3.076-1.973,5.38c0,2.364,0.6,4.184,1.801,5.46
			c1.202,1.276,2.902,1.914,5.104,1.914c2.003,0,3.844-0.286,5.518-0.859v-7.695h-6.162v2.979h2.549v2.236
			c-0.483,0.11-1.009,0.166-1.582,0.166c-1.049,0-1.852-0.35-2.408-1.05c-0.557-0.699-0.835-1.718-0.835-3.053
			c0-1.359,0.308-2.406,0.923-3.14c0.615-0.731,1.486-1.098,2.613-1.098c1.23,0,2.359,0.254,3.388,0.762l1.222-3.028
			c-0.595-0.259-1.287-0.474-2.086-0.644c-0.797-0.17-1.645-0.254-2.542-0.254C117.377,20.592,115.536,21.233,114.221,22.516"/>
	</defs>
	<clipPath id="SVGID_18_">
		<use xlink:href="#SVGID_17_"  overflow="visible"/>
	</clipPath>
	
		<linearGradient id="SVGID_19_" gradientUnits="userSpaceOnUse" x1="-261.1011" y1="592.6338" x2="-260.1011" y2="592.6338" gradientTransform="matrix(113.5508 0 0 -113.5508 29687.2188 67321.9297)">
		<stop  offset="0" style="stop-color:#209EC7"/>
		<stop  offset="0.9946" style="stop-color:#DE6364"/>
		<stop  offset="1" style="stop-color:#DE6364"/>
	</linearGradient>
	<rect x="112.249" y="20.592" clip-path="url(#SVGID_18_)" fill="url(#SVGID_19_)" width="12.422" height="14.678"/>
</g>
<g>
	<defs>
		<path id="SVGID_20_" d="M132.962,24.732c0.173-0.762,0.289-1.309,0.347-1.641c0.064,0.357,0.199,0.951,0.404,1.777
			c0.205,0.827,0.379,1.5,0.523,2.021l0.615,2.344h-3.037C132.406,26.994,132.791,25.493,132.962,24.732 M130.712,20.738
			l-4.659,14.336h4.238l0.723-2.677h4.639l0.703,2.677h4.219l-4.717-14.336H130.712z"/>
	</defs>
	<clipPath id="SVGID_21_">
		<use xlink:href="#SVGID_20_"  overflow="visible"/>
	</clipPath>
	
		<linearGradient id="SVGID_22_" gradientUnits="userSpaceOnUse" x1="-261.1011" y1="592.6338" x2="-260.1011" y2="592.6338" gradientTransform="matrix(113.5508 0 0 -113.5508 29687.2188 67321.9297)">
		<stop  offset="0" style="stop-color:#209EC7"/>
		<stop  offset="0.9946" style="stop-color:#DE6364"/>
		<stop  offset="1" style="stop-color:#DE6364"/>
	</linearGradient>
	<rect x="126.053" y="20.738" clip-path="url(#SVGID_21_)" fill="url(#SVGID_22_)" width="14.521" height="14.336"/>
</g>
<g>
	<defs>
		<polygon id="SVGID_23_" points="148.344,20.797 145.883,26.09 143.441,20.797 139.243,20.797 143.94,29.614 143.94,35.074 
			147.826,35.074 147.826,29.497 152.524,20.797 		"/>
	</defs>
	<clipPath id="SVGID_24_">
		<use xlink:href="#SVGID_23_"  overflow="visible"/>
	</clipPath>
	
		<linearGradient id="SVGID_25_" gradientUnits="userSpaceOnUse" x1="-261.0972" y1="592.6338" x2="-260.1013" y2="592.6338" gradientTransform="matrix(113.5508 0 0 -113.5508 29687.2188 67321.9297)">
		<stop  offset="0" style="stop-color:#209EC7"/>
		<stop  offset="0.9946" style="stop-color:#DE6364"/>
		<stop  offset="1" style="stop-color:#DE6364"/>
	</linearGradient>
	<rect x="139.243" y="20.797" clip-path="url(#SVGID_24_)" fill="url(#SVGID_25_)" width="13.281" height="14.277"/>
</g>
</svg>
