<?xml version="1.0" encoding="utf-8"?>
<!-- Generator: Adobe Illustrator 19.0.0, SVG Export Plug-In . SVG Version: 6.00 Build 0)  -->
<svg version="1.1" id="Layer_1" xmlns="http://www.w3.org/2000/svg" xmlns:xlink="http://www.w3.org/1999/xlink" x="0px" y="0px"
	 viewBox="-311.7 559.7 347 78.8" style="enable-background:new -311.7 559.7 347 78.8;" xml:space="preserve">
<style type="text/css">
	.st0{fill:url(#SVGID_1_);}
	.st1{fill:url(#SVGID_2_);}
	.st2{fill:url(#SVGID_3_);}
	.st3{fill:url(#SVGID_4_);}
	.st4{fill:url(#SVGID_5_);}
	.st5{fill:url(#SVGID_6_);}
	.st6{fill:url(#SVGID_7_);}
	.st7{fill:url(#SVGID_8_);}
	.st8{fill:url(#SVGID_9_);}
	.st9{fill:url(#SVGID_10_);}
	.st10{fill:url(#SVGID_11_);}
	.st11{fill:url(#SVGID_12_);}
	.st12{fill:url(#SVGID_13_);}
	.st13{fill:url(#SVGID_14_);}
	.st14{fill:url(#SVGID_15_);}
	.st15{fill:url(#SVGID_16_);}
	.st16{fill:url(#SVGID_17_);}
	.st17{fill:url(#SVGID_18_);}
	.st18{fill:url(#SVGID_19_);}
	.st19{fill:url(#SVGID_20_);}
	.st20{fill:url(#SVGID_21_);}
	.st21{fill:url(#SVGID_22_);}
	.st22{fill:url(#SVGID_23_);}
	.st23{fill:url(#SVGID_24_);}
	.st24{fill:url(#SVGID_25_);}
	.st25{fill:url(#SVGID_26_);}
	.st26{fill:url(#SVGID_27_);}
	.st27{fill:url(#SVGID_28_);}
	.st28{fill:url(#SVGID_29_);}
	.st29{fill:url(#SVGID_30_);}
	.st30{fill:url(#SVGID_31_);}
</style>
<g id="Background">
</g>
<g id="Layer_1_1_">
	<g>
		<g>
			
				<linearGradient id="SVGID_1_" gradientUnits="userSpaceOnUse" x1="-279.3238" y1="605.0145" x2="-31.8169" y2="592.9996" gradientTransform="matrix(1 0 0 -1 0 1203.8)">
				<stop  offset="0" style="stop-color:#16A4E0"/>
				<stop  offset="0.9946" style="stop-color:#DE6364"/>
			</linearGradient>
			<path class="st0" d="M-288.4,591.6l-5.5,5.5l17.7,17.7l39.4-39.4l-5.5-5.5l-33.9,33.9L-288.4,591.6z M-240.8,599.1
				c0,17.3-14.2,31.5-31.5,31.5c-17.3,0-31.5-14.2-31.5-31.5c0-17.3,14.2-31.5,31.5-31.5c3.2,0,5.9,0.4,8.7,1.2l6.3-6.3
				c-4.7-1.6-9.8-2.8-15-2.8c-21.7,0-39.4,17.7-39.4,39.4c0,21.7,17.7,39.4,39.4,39.4c21.7,0,39.4-17.7,39.4-39.4H-240.8
				L-240.8,599.1z"/>
		</g>
		<g>
			
				<linearGradient id="SVGID_2_" gradientUnits="userSpaceOnUse" x1="-278.5236" y1="621.4964" x2="-31.0167" y2="609.4815" gradientTransform="matrix(1 0 0 -1 0 1203.8)">
				<stop  offset="0" style="stop-color:#16A4E0"/>
				<stop  offset="0.9946" style="stop-color:#DE6364"/>
			</linearGradient>
			<path class="st1" d="M-196.7,579.7c-1.4,0-2.6,0.6-3.4,1.8s-1.2,2.8-1.2,4.9c0,4.3,1.6,6.4,4.9,6.4c1,0,1.9-0.1,2.9-0.4
				c0.9-0.3,1.9-0.6,2.8-1v5.1c-1.9,0.8-4,1.2-6.3,1.2c-3.4,0-5.9-1-7.7-2.9c-1.8-2-2.7-4.8-2.7-8.5c0-2.3,0.4-4.3,1.3-6.1
				c0.9-1.7,2.1-3.1,3.8-4c1.7-0.9,3.6-1.4,5.8-1.4c2.4,0,4.7,0.5,6.9,1.6l-1.8,4.7c-0.8-0.4-1.6-0.7-2.5-1
				C-194.8,579.8-195.7,579.7-196.7,579.7z"/>
			
				<linearGradient id="SVGID_3_" gradientUnits="userSpaceOnUse" x1="-278.4719" y1="622.5621" x2="-30.965" y2="610.5472" gradientTransform="matrix(1 0 0 -1 0 1203.8)">
				<stop  offset="0" style="stop-color:#16A4E0"/>
				<stop  offset="0.9946" style="stop-color:#DE6364"/>
			</linearGradient>
			<path class="st2" d="M-167.2,597.3h-6.1v-9.1h-7v9.1h-6.1V575h6.1v8.3h7V575h6.1V597.3z"/>
			
				<linearGradient id="SVGID_4_" gradientUnits="userSpaceOnUse" x1="-278.2529" y1="627.0744" x2="-30.7459" y2="615.0595" gradientTransform="matrix(1 0 0 -1 0 1203.8)">
				<stop  offset="0" style="stop-color:#16A4E0"/>
				<stop  offset="0.9946" style="stop-color:#DE6364"/>
			</linearGradient>
			<path class="st3" d="M-143.4,575v13.4c0,2.9-0.8,5.2-2.5,6.8c-1.7,1.6-4,2.4-7.1,2.4c-3,0-5.4-0.8-7-2.3
				c-1.6-1.6-2.4-3.8-2.4-6.7V575h6.1v13.1c0,1.6,0.3,2.7,0.9,3.4s1.5,1.1,2.6,1.1c1.2,0,2.1-0.4,2.7-1.1c0.6-0.7,0.8-1.9,0.8-3.5
				v-13H-143.4z M-156.2,573.2v-0.4c1.6-1.7,2.6-2.8,3-3.2c0.4-0.5,0.8-0.9,1-1.3h6.5v0.3c-0.8,0.7-1.9,1.5-3.4,2.5
				c-1.4,1-2.5,1.7-3.2,2.2L-156.2,573.2L-156.2,573.2z"/>
			
				<linearGradient id="SVGID_5_" gradientUnits="userSpaceOnUse" x1="-278.364" y1="624.7848" x2="-30.8571" y2="612.7699" gradientTransform="matrix(1 0 0 -1 0 1203.8)">
				<stop  offset="0" style="stop-color:#16A4E0"/>
				<stop  offset="0.9946" style="stop-color:#DE6364"/>
			</linearGradient>
			<path class="st4" d="M-128.8,579.7c-1.4,0-2.6,0.6-3.4,1.8s-1.2,2.8-1.2,4.9c0,4.3,1.6,6.4,4.9,6.4c1,0,1.9-0.1,2.9-0.4
				c0.9-0.3,1.9-0.6,2.8-1v5.1c-1.9,0.8-4,1.2-6.3,1.2c-3.4,0-5.9-1-7.7-2.9c-1.8-2-2.7-4.8-2.7-8.5c0-2.3,0.4-4.3,1.3-6.1
				c0.9-1.7,2.1-3.1,3.8-4c1.6-0.9,3.6-1.4,5.8-1.4c2.4,0,4.7,0.5,6.9,1.6l-1.8,4.7c-0.8-0.4-1.6-0.7-2.5-1
				C-127,579.8-127.9,579.7-128.8,579.7z"/>
			
				<linearGradient id="SVGID_6_" gradientUnits="userSpaceOnUse" x1="-278.2857" y1="626.3978" x2="-30.7788" y2="614.3829" gradientTransform="matrix(1 0 0 -1 0 1203.8)">
				<stop  offset="0" style="stop-color:#16A4E0"/>
				<stop  offset="0.9946" style="stop-color:#DE6364"/>
			</linearGradient>
			<path class="st5" d="M-100.6,597.3l-4.6-16.1h-0.1c0.2,2.7,0.3,4.9,0.3,6.4v9.7h-5.3V575h8l4.7,15.8h0.1l4.6-15.8h8v22.3h-5.5
				v-9.8c0-0.5,0-1.1,0-1.7c0-0.6,0.1-2.1,0.2-4.6h-0.1l-4.5,16L-100.6,597.3L-100.6,597.3z"/>
			
				<linearGradient id="SVGID_7_" gradientUnits="userSpaceOnUse" x1="-278.0676" y1="630.8916" x2="-30.5606" y2="618.8767" gradientTransform="matrix(1 0 0 -1 0 1203.8)">
				<stop  offset="0" style="stop-color:#16A4E0"/>
				<stop  offset="0.9946" style="stop-color:#DE6364"/>
			</linearGradient>
			<path class="st6" d="M-61.2,575v3.1c0.7-0.3,1.2-0.9,1.5-1.7s0.5-1.7,0.5-2.8h5.8l0.2,0.3c-0.4,1.8-0.9,3.2-1.5,4.1
				c-0.6,0.9-1.4,1.7-2.5,2.3c-1,0.6-2.4,1-4,1.2v7.9c0,1.6-0.4,3-1.2,4.3c-0.8,1.2-1.9,2.2-3.4,2.9c-1.5,0.7-3.2,1-5.2,1
				c-2.9,0-5.2-0.7-6.9-2.2c-1.6-1.5-2.4-3.5-2.4-6V575h6.1v13.7c0,1.4,0.3,2.4,0.8,3s1.4,0.9,2.7,0.9c1.3,0,2.2-0.3,2.7-0.9
				c0.6-0.6,0.8-1.6,0.8-3V575H-61.2z M-72.1,573.2c-0.7-0.4-1.7-1.2-3.1-2.1c-1.4-1-2.5-1.8-3.5-2.6v-0.3h6.6
				c0.5,0.7,1.6,1.9,3.1,3.6l0.9,1v0.4H-72.1z"/>
			
				<linearGradient id="SVGID_8_" gradientUnits="userSpaceOnUse" x1="-278.1559" y1="629.0721" x2="-30.649" y2="617.0572" gradientTransform="matrix(1 0 0 -1 0 1203.8)">
				<stop  offset="0" style="stop-color:#16A4E0"/>
				<stop  offset="0.9946" style="stop-color:#DE6364"/>
			</linearGradient>
			<path class="st7" d="M-30.8,597.3h-7.9l-8.1-15.7H-47c0.2,2.5,0.3,4.4,0.3,5.7v10.1H-52V575h7.9l8.1,15.5h0.1
				c-0.1-2.2-0.2-4.1-0.2-5.4V575h5.4L-30.8,597.3L-30.8,597.3z"/>
			
				<linearGradient id="SVGID_9_" gradientUnits="userSpaceOnUse" x1="-278.0925" y1="630.3767" x2="-30.5856" y2="618.3618" gradientTransform="matrix(1 0 0 -1 0 1203.8)">
				<stop  offset="0" style="stop-color:#16A4E0"/>
				<stop  offset="0.9946" style="stop-color:#DE6364"/>
			</linearGradient>
			<path class="st8" d="M-17,584.3h9.6v12c-2.6,0.9-5.5,1.3-8.6,1.3c-3.4,0-6.1-1-8-3s-2.8-4.8-2.8-8.5c0-3.6,1-6.4,3.1-8.4
				s4.9-3,8.6-3c1.4,0,2.7,0.1,4,0.4c1.2,0.3,2.3,0.6,3.3,1l-1.9,4.7c-1.6-0.8-3.4-1.2-5.3-1.2c-1.8,0-3.1,0.6-4.1,1.7
				c-1,1.1-1.4,2.8-1.4,4.9s0.4,3.7,1.3,4.8c0.9,1.1,2.1,1.6,3.8,1.6c0.9,0,1.7-0.1,2.5-0.3v-3.5h-4v-4.5H-17z"/>
			
				<linearGradient id="SVGID_10_" gradientUnits="userSpaceOnUse" x1="-278.0637" y1="630.9705" x2="-30.5568" y2="618.9556" gradientTransform="matrix(1 0 0 -1 0 1203.8)">
				<stop  offset="0" style="stop-color:#16A4E0"/>
				<stop  offset="0.9946" style="stop-color:#DE6364"/>
			</linearGradient>
			<path class="st9" d="M1.8,589.5h-5L-4,575h6.6L1.8,589.5z M-3.9,594.8c0-0.9,0.3-1.6,0.8-2.2c0.5-0.5,1.3-0.8,2.4-0.8
				c1,0,1.8,0.3,2.4,0.8c0.5,0.5,0.8,1.2,0.8,2.2c0,0.9-0.3,1.6-0.8,2.1c-0.6,0.5-1.3,0.8-2.3,0.8s-1.8-0.3-2.4-0.8
				S-3.9,595.7-3.9,594.8z"/>
		</g>
		<g>
			
				<linearGradient id="SVGID_11_" gradientUnits="userSpaceOnUse" x1="-280.1687" y1="587.6087" x2="-32.6618" y2="575.5938" gradientTransform="matrix(1 0 0 -1 0 1203.8)">
				<stop  offset="0" style="stop-color:#16A4E0"/>
				<stop  offset="0.9946" style="stop-color:#DE6364"/>
			</linearGradient>
			<path class="st10" d="M-206.5,614.2h3.9c1.5,0,2.6,0.2,3.4,0.7c0.7,0.5,1.1,1.2,1.1,2.1c0,0.6-0.2,1.2-0.5,1.6
				c-0.3,0.4-0.7,0.7-1.3,0.9v0.1c0.7,0.2,1.2,0.5,1.5,0.9c0.3,0.4,0.5,1,0.5,1.7c0,1-0.4,1.8-1.1,2.4c-0.8,0.6-1.8,0.9-3.1,0.9
				h-4.3L-206.5,614.2L-206.5,614.2z M-203.5,618.5h0.9c0.4,0,0.8-0.1,1-0.3c0.2-0.2,0.4-0.4,0.4-0.8c0-0.6-0.5-0.9-1.4-0.9h-0.8
				L-203.5,618.5L-203.5,618.5z M-203.5,620.7v2.3h1.1c0.9,0,1.4-0.4,1.4-1.2c0-0.4-0.1-0.7-0.4-0.9c-0.3-0.2-0.6-0.3-1.1-0.3
				L-203.5,620.7L-203.5,620.7z"/>
			
				<linearGradient id="SVGID_12_" gradientUnits="userSpaceOnUse" x1="-280.2186" y1="586.5798" x2="-32.7117" y2="574.5649" gradientTransform="matrix(1 0 0 -1 0 1203.8)">
				<stop  offset="0" style="stop-color:#16A4E0"/>
				<stop  offset="0.9946" style="stop-color:#DE6364"/>
			</linearGradient>
			<path class="st11" d="M-189.1,625.3l-0.5-2.1h-3.6l-0.6,2.1h-3.3l3.6-11.2h4l3.7,11.2H-189.1z M-193.1,627.7c0-0.4,0.1-0.8,0.4-1
				s0.6-0.3,1.2-0.3c0.6,0,1,0.1,1.2,0.3c0.3,0.2,0.4,0.6,0.4,1c0,0.9-0.5,1.3-1.6,1.3c-0.5,0-0.9-0.1-1.2-0.3
				C-193,628.5-193.1,628.1-193.1,627.7z M-190.3,620.8l-0.5-1.8c-0.1-0.4-0.2-0.9-0.4-1.6c-0.2-0.6-0.3-1.1-0.3-1.4
				c0,0.3-0.1,0.7-0.3,1.3c-0.1,0.6-0.4,1.8-0.9,3.5H-190.3z"/>
			
				<linearGradient id="SVGID_13_" gradientUnits="userSpaceOnUse" x1="-280.1055" y1="588.9104" x2="-32.5986" y2="576.8955" gradientTransform="matrix(1 0 0 -1 0 1203.8)">
				<stop  offset="0" style="stop-color:#16A4E0"/>
				<stop  offset="0.9946" style="stop-color:#DE6364"/>
			</linearGradient>
			<path class="st12" d="M-174,625.3h-4l-4.1-7.9h-0.1c0.1,1.2,0.1,2.2,0.1,2.8v5h-2.7v-11h3.9l4.1,7.8l0,0c-0.1-1.1-0.1-2-0.1-2.7
				v-5h2.7v11H-174z"/>
			
				<linearGradient id="SVGID_14_" gradientUnits="userSpaceOnUse" x1="-280.0724" y1="589.5915" x2="-32.5655" y2="577.5766" gradientTransform="matrix(1 0 0 -1 0 1203.8)">
				<stop  offset="0" style="stop-color:#16A4E0"/>
				<stop  offset="0.9946" style="stop-color:#DE6364"/>
			</linearGradient>
			<path class="st13" d="M-158.1,619.5c0,1.9-0.5,3.3-1.5,4.3s-2.5,1.5-4.3,1.5h-3.6V621h-1v-2.4h1v-4.4h3.9c1.8,0,3.2,0.5,4.1,1.4
				C-158.6,616.5-158.1,617.8-158.1,619.5z M-161.2,619.6c0-1-0.2-1.8-0.6-2.3c-0.4-0.5-1-0.7-1.8-0.7h-0.9v2h1.6v2.4h-1.6v1.8h0.7
				c0.9,0,1.6-0.3,2-0.8C-161.4,621.5-161.2,620.7-161.2,619.6z"/>
			
				<linearGradient id="SVGID_15_" gradientUnits="userSpaceOnUse" x1="-279.9554" y1="592.0016" x2="-32.4485" y2="579.9868" gradientTransform="matrix(1 0 0 -1 0 1203.8)">
				<stop  offset="0" style="stop-color:#16A4E0"/>
				<stop  offset="0.9946" style="stop-color:#DE6364"/>
			</linearGradient>
			<path class="st14" d="M-149.2,625.3l-0.5-2.1h-3.6l-0.6,2.1h-3.3l3.6-11.2h4l3.7,11.2H-149.2z M-150.2,613.3
				c-0.2,0-0.5,0-0.7-0.1c-0.2-0.1-0.5-0.2-0.7-0.3c-0.2-0.1-0.4-0.2-0.7-0.3c-0.3-0.1-0.4-0.1-0.6-0.1c-0.3,0-0.5,0.2-0.5,0.7h-1.4
				c0.1-0.9,0.2-1.5,0.5-2c0.3-0.4,0.8-0.6,1.4-0.6c0.2,0,0.4,0,0.6,0.1c0.2,0.1,0.4,0.2,0.7,0.3c0.3,0.1,0.4,0.2,0.7,0.3
				c0.2,0.1,0.4,0.1,0.6,0.1c0.1,0,0.3-0.1,0.4-0.2s0.2-0.3,0.2-0.6h1.4c-0.1,0.8-0.2,1.5-0.6,1.9
				C-149.3,612.9-149.7,613.3-150.2,613.3z M-150.4,620.8l-0.5-1.8c-0.1-0.4-0.2-0.9-0.4-1.6c-0.2-0.6-0.3-1.1-0.3-1.4
				c0,0.3-0.1,0.7-0.3,1.3c-0.1,0.6-0.4,1.8-0.9,3.5H-150.4z"/>
			
				<linearGradient id="SVGID_16_" gradientUnits="userSpaceOnUse" x1="-280.0005" y1="591.0736" x2="-32.4936" y2="579.0587" gradientTransform="matrix(1 0 0 -1 0 1203.8)">
				<stop  offset="0" style="stop-color:#16A4E0"/>
				<stop  offset="0.9946" style="stop-color:#DE6364"/>
			</linearGradient>
			<path class="st15" d="M-135.7,616.5c-0.7,0-1.3,0.3-1.7,0.9c-0.4,0.6-0.6,1.4-0.6,2.4c0,2.1,0.8,3.2,2.4,3.2c0.5,0,1-0.1,1.4-0.2
				c0.5-0.1,0.9-0.3,1.4-0.5v2.5c-0.9,0.4-2,0.6-3.2,0.6c-1.7,0-3-0.5-3.9-1.5s-1.3-2.4-1.3-4.2c0-1.2,0.2-2.2,0.7-3
				c0.4-0.9,1.1-1.5,1.9-2c0.8-0.5,1.8-0.7,2.9-0.7c1.2,0,2.4,0.3,3.5,0.8l-0.9,2.4c-0.4-0.2-0.8-0.4-1.2-0.5
				C-134.8,616.6-135.2,616.5-135.7,616.5z"/>
			
				<linearGradient id="SVGID_17_" gradientUnits="userSpaceOnUse" x1="-279.9791" y1="591.5135" x2="-32.4722" y2="579.4986" gradientTransform="matrix(1 0 0 -1 0 1203.8)">
				<stop  offset="0" style="stop-color:#16A4E0"/>
				<stop  offset="0.9946" style="stop-color:#DE6364"/>
			</linearGradient>
			<path class="st16" d="M-121,625.3h-3v-4.5h-3.5v4.5h-3v-11.1h3v4.1h3.5v-4.1h3V625.3z"/>
			
				<linearGradient id="SVGID_18_" gradientUnits="userSpaceOnUse" x1="-279.9612" y1="591.8825" x2="-32.4543" y2="579.8676" gradientTransform="matrix(1 0 0 -1 0 1203.8)">
				<stop  offset="0" style="stop-color:#16A4E0"/>
				<stop  offset="0.9946" style="stop-color:#DE6364"/>
			</linearGradient>
			<path class="st17" d="M-118.6,625.3v-11.1h3v11.2h-3V625.3z"/>
			
				<linearGradient id="SVGID_19_" gradientUnits="userSpaceOnUse" x1="-279.9409" y1="592.3019" x2="-32.434" y2="580.287" gradientTransform="matrix(1 0 0 -1 0 1203.8)">
				<stop  offset="0" style="stop-color:#16A4E0"/>
				<stop  offset="0.9946" style="stop-color:#DE6364"/>
			</linearGradient>
			<path class="st18" d="M-106.3,625.3l-0.5-2.1h-3.6l-0.6,2.1h-3.3l3.6-11.2h4l3.7,11.2H-106.3z M-107.5,620.8l-0.5-1.8
				c-0.1-0.4-0.2-0.9-0.4-1.6c-0.2-0.6-0.3-1.1-0.3-1.4c0,0.3-0.1,0.7-0.3,1.3c-0.2,0.6-0.4,1.8-0.9,3.5H-107.5z"/>
			
				<linearGradient id="SVGID_20_" gradientUnits="userSpaceOnUse" x1="-279.9004" y1="593.136" x2="-32.3934" y2="581.1211" gradientTransform="matrix(1 0 0 -1 0 1203.8)">
				<stop  offset="0" style="stop-color:#16A4E0"/>
				<stop  offset="0.9946" style="stop-color:#DE6364"/>
			</linearGradient>
			<path class="st19" d="M-90.4,621.9c0,0.7-0.2,1.3-0.5,1.8s-0.9,1-1.5,1.3c-0.7,0.3-1.4,0.4-2.3,0.4c-0.7,0-1.4-0.1-1.9-0.2
				s-1-0.3-1.6-0.5V622c0.6,0.3,1.2,0.5,1.8,0.7c0.6,0.2,1.2,0.2,1.7,0.2c0.4,0,0.8-0.1,1-0.2c0.2-0.2,0.3-0.4,0.3-0.6
				c0-0.2,0-0.3-0.1-0.4s-0.2-0.2-0.4-0.3c-0.2-0.1-0.7-0.4-1.5-0.7c-0.7-0.3-1.3-0.7-1.6-1c-0.4-0.3-0.6-0.7-0.8-1.1
				c-0.2-0.4-0.3-0.9-0.3-1.4c0-1,0.4-1.8,1.1-2.4c0.7-0.6,1.8-0.9,3.1-0.9c1.2,0,2.3,0.3,3.5,0.8l-0.9,2.3c-1-0.5-1.9-0.7-2.7-0.7
				c-0.4,0-0.7,0.1-0.9,0.2c-0.2,0.1-0.3,0.3-0.3,0.5c0,0.2,0.1,0.4,0.3,0.6c0.2,0.2,0.8,0.5,1.8,0.9c1,0.4,1.6,0.9,2,1.4
				S-90.4,621.2-90.4,621.9z"/>
			
				<linearGradient id="SVGID_21_" gradientUnits="userSpaceOnUse" x1="-279.7792" y1="595.6321" x2="-32.2723" y2="583.6172" gradientTransform="matrix(1 0 0 -1 0 1203.8)">
				<stop  offset="0" style="stop-color:#16A4E0"/>
				<stop  offset="0.9946" style="stop-color:#DE6364"/>
			</linearGradient>
			<path class="st20" d="M-82.1,625.3h-6.6v-11.1h6.6v2.4h-3.6v1.8h3.3v2.4h-3.3v2.1h3.6V625.3z M-83.3,611.4c0,0.4-0.1,0.7-0.3,1
				c-0.2,0.3-0.5,0.5-1,0.6l-0.1,0.4h-1.6l-0.2-1c0.3,0,0.6-0.1,0.7-0.2s0.2-0.3,0.2-0.4c0-0.1-0.1-0.3-0.2-0.4
				c-0.1-0.1-0.2-0.1-0.4-0.1c-0.2,0-0.3,0-0.4,0s-0.3,0.1-0.6,0.2v-1.6c0.5-0.2,1-0.2,1.7-0.2s1.3,0.2,1.7,0.5
				C-83.4,610.5-83.3,610.9-83.3,611.4z"/>
			
				<linearGradient id="SVGID_22_" gradientUnits="userSpaceOnUse" x1="-279.8511" y1="594.1505" x2="-32.3442" y2="582.1356" gradientTransform="matrix(1 0 0 -1 0 1203.8)">
				<stop  offset="0" style="stop-color:#16A4E0"/>
				<stop  offset="0.9946" style="stop-color:#DE6364"/>
			</linearGradient>
			<path class="st21" d="M-71.2,625.3h-3v-8.7h-2.7v-2.4h8.5v2.5h-2.7L-71.2,625.3L-71.2,625.3z"/>
			
				<linearGradient id="SVGID_23_" gradientUnits="userSpaceOnUse" x1="-279.8293" y1="594.5984" x2="-32.3225" y2="582.5836" gradientTransform="matrix(1 0 0 -1 0 1203.8)">
				<stop  offset="0" style="stop-color:#16A4E0"/>
				<stop  offset="0.9946" style="stop-color:#DE6364"/>
			</linearGradient>
			<path class="st22" d="M-57.3,625.3h-3v-4.5h-3.5v4.5h-3v-11.1h3v4.1h3.5v-4.1h3V625.3z"/>
			
				<linearGradient id="SVGID_24_" gradientUnits="userSpaceOnUse" x1="-279.7241" y1="596.7657" x2="-32.2172" y2="584.7508" gradientTransform="matrix(1 0 0 -1 0 1203.8)">
				<stop  offset="0" style="stop-color:#16A4E0"/>
				<stop  offset="0.9946" style="stop-color:#DE6364"/>
			</linearGradient>
			<path class="st23" d="M-48,625.3l-0.5-2.1h-3.6l-0.6,2.1H-56l3.6-11.2h4l3.7,11.2H-48z M-50.7,613.3c-0.4-0.2-0.9-0.6-1.6-1.1
				s-1.3-0.9-1.7-1.3v-0.2h3.3c0.3,0.4,0.8,0.9,1.5,1.8l0.5,0.5v0.2L-50.7,613.3L-50.7,613.3z M-49.2,620.8l-0.5-1.8
				c-0.1-0.4-0.2-0.9-0.4-1.6c-0.2-0.6-0.3-1.1-0.3-1.4c0,0.3-0.1,0.7-0.3,1.3c-0.2,0.6-0.4,1.8-0.9,3.5H-49.2z"/>
			
				<linearGradient id="SVGID_25_" gradientUnits="userSpaceOnUse" x1="-279.7735" y1="595.7487" x2="-32.2666" y2="583.7338" gradientTransform="matrix(1 0 0 -1 0 1203.8)">
				<stop  offset="0" style="stop-color:#16A4E0"/>
				<stop  offset="0.9946" style="stop-color:#DE6364"/>
			</linearGradient>
			<path class="st24" d="M-32.9,625.3h-4l-4.1-7.9l0,0c0.1,1.2,0.1,2.2,0.1,2.8v5h-2.7v-11h3.9l4.1,7.8l0,0c-0.1-1.1-0.1-2-0.1-2.7
				v-5h2.7v11H-32.9z"/>
			
				<linearGradient id="SVGID_26_" gradientUnits="userSpaceOnUse" x1="-279.7438" y1="596.3613" x2="-32.2369" y2="584.3464" gradientTransform="matrix(1 0 0 -1 0 1203.8)">
				<stop  offset="0" style="stop-color:#16A4E0"/>
				<stop  offset="0.9946" style="stop-color:#DE6364"/>
			</linearGradient>
			<path class="st25" d="M-20.9,625.3h-3v-4.5h-3.5v4.5h-3v-11.1h3v4.1h3.5v-4.1h3V625.3z"/>
			
				<linearGradient id="SVGID_27_" gradientUnits="userSpaceOnUse" x1="-279.7038" y1="597.1854" x2="-32.1969" y2="585.1705" gradientTransform="matrix(1 0 0 -1 0 1203.8)">
				<stop  offset="0" style="stop-color:#16A4E0"/>
				<stop  offset="0.9946" style="stop-color:#DE6364"/>
			</linearGradient>
			<path class="st26" d="M-9.5,616.5c-0.7,0-1.3,0.3-1.7,0.9c-0.4,0.6-0.6,1.4-0.6,2.4c0,2.1,0.8,3.2,2.4,3.2c0.5,0,1-0.1,1.4-0.2
				c0.5-0.1,0.9-0.3,1.4-0.5v2.5c-0.9,0.4-2,0.6-3.2,0.6c-1.7,0-3-0.5-3.9-1.5s-1.3-2.4-1.3-4.2c0-1.2,0.2-2.2,0.7-3
				c0.4-0.9,1.1-1.5,1.9-2s1.8-0.7,2.9-0.7c1.2,0,2.4,0.3,3.5,0.8l-0.9,2.4c-0.4-0.2-0.8-0.4-1.2-0.5C-8.5,616.6-9,616.5-9.5,616.5z
				"/>
			
				<linearGradient id="SVGID_28_" gradientUnits="userSpaceOnUse" x1="-279.6029" y1="599.265" x2="-32.0959" y2="587.2501" gradientTransform="matrix(1 0 0 -1 0 1203.8)">
				<stop  offset="0" style="stop-color:#16A4E0"/>
				<stop  offset="0.9946" style="stop-color:#DE6364"/>
			</linearGradient>
			<path class="st27" d="M6.1,619.7c0,1.9-0.5,3.3-1.4,4.3s-2.3,1.5-4,1.5s-3.1-0.5-4-1.5s-1.4-2.4-1.4-4.3s0.5-3.3,1.4-4.3
				s2.3-1.5,4-1.5c1.8,0,3.1,0.5,4,1.5S6.1,617.9,6.1,619.7z M2.2,613.3c-0.4-0.2-0.9-0.6-1.5-1.1c-0.6,0.5-1.1,0.9-1.5,1.1h-2v-0.2
				c0.4-0.3,0.7-0.7,1.1-1.2c0.4-0.4,0.7-0.8,0.9-1.1h3c0.5,0.7,1.1,1.5,2,2.3v0.2C4.2,613.3,2.2,613.3,2.2,613.3z M-1.6,619.7
				c0,2.2,0.8,3.2,2.3,3.2c0.8,0,1.3-0.3,1.7-0.8c0.4-0.5,0.6-1.3,0.6-2.4c0-1.1-0.2-1.9-0.6-2.5c-0.4-0.5-0.9-0.8-1.7-0.8
				C-0.8,616.5-1.6,617.6-1.6,619.7z"/>
			
				<linearGradient id="SVGID_29_" gradientUnits="userSpaceOnUse" x1="-279.6524" y1="598.2427" x2="-32.1455" y2="586.2278" gradientTransform="matrix(1 0 0 -1 0 1203.8)">
				<stop  offset="0" style="stop-color:#16A4E0"/>
				<stop  offset="0.9946" style="stop-color:#DE6364"/>
			</linearGradient>
			<path class="st28" d="M18.7,625.3h-4l-4.1-7.9h-0.1c0.1,1.2,0.1,2.2,0.1,2.8v5H7.9v-11h3.9l4.1,7.8l0,0c-0.1-1.1-0.1-2-0.1-2.7
				v-5h2.7v11H18.7z"/>
			
				<linearGradient id="SVGID_30_" gradientUnits="userSpaceOnUse" x1="-279.6217" y1="598.8769" x2="-32.1147" y2="586.862" gradientTransform="matrix(1 0 0 -1 0 1203.8)">
				<stop  offset="0" style="stop-color:#16A4E0"/>
				<stop  offset="0.9946" style="stop-color:#DE6364"/>
			</linearGradient>
			<path class="st29" d="M25.6,618.8h4.8v6c-1.3,0.4-2.7,0.7-4.3,0.7c-1.7,0-3-0.5-4-1.5c-0.9-1-1.4-2.4-1.4-4.3
				c0-1.8,0.5-3.2,1.5-4.2s2.5-1.5,4.3-1.5c0.7,0,1.4,0.1,2,0.2c0.6,0.1,1.2,0.3,1.6,0.5l-1,2.4c-0.8-0.4-1.7-0.6-2.6-0.6
				s-1.6,0.3-2,0.9c-0.5,0.6-0.7,1.4-0.7,2.5c0,1,0.2,1.8,0.7,2.4c0.4,0.5,1.1,0.8,1.9,0.8c0.4,0,0.9,0,1.2-0.1v-1.7h-2V618.8z"/>
			
				<linearGradient id="SVGID_31_" gradientUnits="userSpaceOnUse" x1="-279.8145" y1="594.9031" x2="-32.3076" y2="582.8882" gradientTransform="matrix(1 0 0 -1 0 1203.8)">
				<stop  offset="0" style="stop-color:#16A4E0"/>
				<stop  offset="0.9946" style="stop-color:#DE6364"/>
			</linearGradient>
			<path class="st30" d="M32.2,624.1c0-0.5,0.1-0.8,0.4-1.1s0.7-0.4,1.2-0.4s0.9,0.1,1.2,0.4c0.3,0.3,0.4,0.6,0.4,1.1
				s-0.1,0.8-0.4,1.1s-0.7,0.4-1.1,0.4c-0.5,0-0.9-0.1-1.2-0.4C32.3,624.9,32.2,624.5,32.2,624.1z"/>
		</g>
	</g>
</g>
<g id="header__x26__footer">
</g>
</svg>
