<?xml version="1.0" encoding="utf-8"?>
<!-- Generator: Adobe Illustrator 16.0.2, SVG Export Plug-In . SVG Version: 6.00 Build 0)  -->
<!DOCTYPE svg PUBLIC "-//W3C//DTD SVG 1.1//EN" "http://www.w3.org/Graphics/SVG/1.1/DTD/svg11.dtd">
<svg version="1.1" id="Layer_1" xmlns="http://www.w3.org/2000/svg" xmlns:xlink="http://www.w3.org/1999/xlink" x="0px" y="0px"
	 width="186.257px" height="55.051px" viewBox="0 0 186.257 55.051" enable-background="new 0 0 186.257 55.051"
	 xml:space="preserve">
<linearGradient id="SVGID_1_" gradientUnits="userSpaceOnUse" x1="-321.894" y1="281.3359" x2="-320.894" y2="281.3359" gradientTransform="matrix(187.256 0 0 -187.256 60276.1094 52709.25)">
	<stop  offset="0" style="stop-color:#DC5C5B"/>
	<stop  offset="0.4785" style="stop-color:#209EC7"/>
	<stop  offset="0.9946" style="stop-color:#DE6364"/>
	<stop  offset="1" style="stop-color:#DE6364"/>
</linearGradient>
<polygon fill="url(#SVGID_1_)" points="185.757,54.551 185.757,55.051 0,55.051 0,0 186.257,0 186.257,55.051 185.757,55.051 
	185.757,54.551 185.257,54.551 185.257,1 1,1 1,54.051 185.757,54.051 185.757,54.551 185.257,54.551 "/>
<g>
	<g>
		<defs>
			<path id="SVGID_2_" d="M26.002,23.862c-1.043,0.604-1.84,1.463-2.398,2.58c-0.556,1.118-0.833,2.415-0.833,3.891
				c0,2.358,0.574,4.161,1.721,5.409s2.793,1.872,4.948,1.872c1.5,0,2.845-0.263,4.034-0.789v-3.256
				c-0.598,0.247-1.191,0.457-1.783,0.633c-0.594,0.177-1.203,0.264-1.831,0.264c-2.088,0-3.131-1.37-3.131-4.114
				c0-1.319,0.254-2.354,0.77-3.104c0.513-0.752,1.228-1.127,2.144-1.127c0.604,0,1.169,0.086,1.697,0.254
				c0.526,0.17,1.053,0.377,1.58,0.625l1.18-3.032c-1.403-0.67-2.876-1.005-4.416-1.005C28.271,22.962,27.045,23.263,26.002,23.862"
				/>
		</defs>
		<clipPath id="SVGID_3_">
			<use xlink:href="#SVGID_2_"  overflow="visible"/>
		</clipPath>
		
			<linearGradient id="SVGID_4_" gradientUnits="userSpaceOnUse" x1="-321.7788" y1="281.3457" x2="-320.7788" y2="281.3457" gradientTransform="matrix(137.7962 0 0 -137.7962 44363.5898 38798.6953)">
			<stop  offset="0" style="stop-color:#209EC7"/>
			<stop  offset="0.9946" style="stop-color:#DE6364"/>
			<stop  offset="1" style="stop-color:#DE6364"/>
		</linearGradient>
		<rect x="22.771" y="22.962" clip-path="url(#SVGID_3_)" fill="url(#SVGID_4_)" width="11.328" height="14.652"/>
	</g>
	<g>
		<defs>
			<polygon id="SVGID_5_" points="44.597,23.168 44.597,28.451 40.122,28.451 40.122,23.168 36.253,23.168 36.253,37.42 
				40.122,37.42 40.122,31.608 44.597,31.608 44.597,37.42 48.466,37.42 48.466,23.168 			"/>
		</defs>
		<clipPath id="SVGID_6_">
			<use xlink:href="#SVGID_5_"  overflow="visible"/>
		</clipPath>
		
			<linearGradient id="SVGID_7_" gradientUnits="userSpaceOnUse" x1="-321.7788" y1="281.3467" x2="-320.7788" y2="281.3467" gradientTransform="matrix(137.7576 0 0 -137.7576 44351.1719 38787.7969)">
			<stop  offset="0" style="stop-color:#209EC7"/>
			<stop  offset="0.9946" style="stop-color:#DE6364"/>
			<stop  offset="1" style="stop-color:#DE6364"/>
		</linearGradient>
		<rect x="36.253" y="23.168" clip-path="url(#SVGID_6_)" fill="url(#SVGID_7_)" width="12.213" height="14.252"/>
	</g>
	<g>
		<defs>
			<rect id="SVGID_8_" x="51.546" y="23.168" width="3.871" height="14.252"/>
		</defs>
		<clipPath id="SVGID_9_">
			<use xlink:href="#SVGID_8_"  overflow="visible"/>
		</clipPath>
		
			<linearGradient id="SVGID_10_" gradientUnits="userSpaceOnUse" x1="-321.7788" y1="281.3467" x2="-320.7788" y2="281.3467" gradientTransform="matrix(137.7923 0 0 -137.7923 44362.418 38797.7188)">
			<stop  offset="0" style="stop-color:#209EC7"/>
			<stop  offset="0.9946" style="stop-color:#DE6364"/>
			<stop  offset="1" style="stop-color:#DE6364"/>
		</linearGradient>
		<rect x="51.546" y="23.168" clip-path="url(#SVGID_9_)" fill="url(#SVGID_10_)" width="3.871" height="14.252"/>
	</g>
	<g>
		<defs>
			<path id="SVGID_11_" d="M63.853,27.095c0.176-0.759,0.289-1.306,0.348-1.636c0.064,0.356,0.199,0.948,0.402,1.772
				c0.205,0.825,0.377,1.498,0.523,2.019l0.615,2.34h-3.033C63.3,29.353,63.681,27.856,63.853,27.095 M61.606,23.109l-4.65,14.311
				h4.23l0.725-2.672h4.629l0.701,2.672h4.211l-4.707-14.311H61.606z"/>
		</defs>
		<clipPath id="SVGID_12_">
			<use xlink:href="#SVGID_11_"  overflow="visible"/>
		</clipPath>
		
			<linearGradient id="SVGID_13_" gradientUnits="userSpaceOnUse" x1="-321.7788" y1="281.3457" x2="-320.7788" y2="281.3457" gradientTransform="matrix(137.7914 0 0 -137.7914 44362.0469 38797.3438)">
			<stop  offset="0" style="stop-color:#209EC7"/>
			<stop  offset="0.9946" style="stop-color:#DE6364"/>
			<stop  offset="1" style="stop-color:#DE6364"/>
		</linearGradient>
		<rect x="56.956" y="23.109" clip-path="url(#SVGID_12_)" fill="url(#SVGID_13_)" width="14.496" height="14.311"/>
	</g>
	<g>
		<defs>
			<path id="SVGID_14_" d="M79.048,24.063c-0.957,0.736-1.436,1.76-1.436,3.072c0,0.702,0.113,1.309,0.338,1.821
				c0.223,0.513,0.566,0.971,1.031,1.365c0.469,0.396,1.162,0.807,2.092,1.231c1.029,0.46,1.66,0.763,1.898,0.914
				c0.234,0.148,0.406,0.296,0.514,0.441c0.109,0.147,0.162,0.318,0.162,0.512c0,0.314-0.133,0.568-0.4,0.765
				c-0.268,0.201-0.682,0.3-1.256,0.3c-0.664,0-1.391-0.104-2.184-0.318c-0.797-0.21-1.559-0.503-2.291-0.881v3.431
				c0.695,0.332,1.363,0.563,2.008,0.697c0.643,0.135,1.439,0.2,2.389,0.2c1.137,0,2.127-0.19,2.973-0.571
				c0.844-0.379,1.49-0.912,1.939-1.599c0.449-0.683,0.674-1.469,0.674-2.353c0-0.961-0.24-1.761-0.717-2.395
				c-0.479-0.634-1.332-1.228-2.561-1.777c-1.279-0.586-2.064-0.989-2.354-1.209c-0.289-0.222-0.434-0.473-0.434-0.753
				c0-0.258,0.113-0.477,0.342-0.651c0.225-0.177,0.592-0.263,1.092-0.263c0.967,0,2.119,0.305,3.453,0.914l1.178-2.971
				c-1.533-0.683-3.039-1.025-4.512-1.025C81.317,22.962,80.001,23.329,79.048,24.063"/>
		</defs>
		<clipPath id="SVGID_15_">
			<use xlink:href="#SVGID_14_"  overflow="visible"/>
		</clipPath>
		
			<linearGradient id="SVGID_16_" gradientUnits="userSpaceOnUse" x1="-321.7788" y1="281.3457" x2="-320.7788" y2="281.3457" gradientTransform="matrix(137.7901 0 0 -137.7901 44361.6992 38796.9297)">
			<stop  offset="0" style="stop-color:#209EC7"/>
			<stop  offset="0.9946" style="stop-color:#DE6364"/>
			<stop  offset="1" style="stop-color:#DE6364"/>
		</linearGradient>
		<rect x="77.517" y="22.962" clip-path="url(#SVGID_15_)" fill="url(#SVGID_16_)" width="9.982" height="14.652"/>
	</g>
	<g>
		<defs>
			<path id="SVGID_17_" d="M89.7,23.168V37.42h8.463v-3.14h-4.611v-2.69h4.27V28.5h-4.27v-2.243h4.611v-3.089H89.7z M91.671,17.737
				v1.988c0.389-0.13,0.662-0.207,0.82-0.232c0.154-0.025,0.328-0.04,0.523-0.04c0.201,0,0.369,0.054,0.498,0.165
				c0.129,0.112,0.195,0.261,0.195,0.449c0,0.24-0.076,0.432-0.225,0.57s-0.439,0.235-0.869,0.288l0.273,1.257h2.02l0.107-0.459
				c0.559-0.149,0.971-0.404,1.24-0.76c0.271-0.357,0.406-0.789,0.406-1.296c0-0.707-0.242-1.258-0.727-1.647
				c-0.486-0.389-1.189-0.585-2.119-0.585C92.989,17.436,92.274,17.536,91.671,17.737"/>
		</defs>
		<clipPath id="SVGID_18_">
			<use xlink:href="#SVGID_17_"  overflow="visible"/>
		</clipPath>
		
			<linearGradient id="SVGID_19_" gradientUnits="userSpaceOnUse" x1="-321.7788" y1="281.3467" x2="-320.7788" y2="281.3467" gradientTransform="matrix(137.8082 0 0 -137.8082 44367.543 38799.3828)">
			<stop  offset="0" style="stop-color:#209EC7"/>
			<stop  offset="0.9946" style="stop-color:#DE6364"/>
			<stop  offset="1" style="stop-color:#DE6364"/>
		</linearGradient>
		<rect x="89.7" y="17.436" clip-path="url(#SVGID_18_)" fill="url(#SVGID_19_)" width="8.463" height="19.984"/>
	</g>
	<g>
		<defs>
			<path id="SVGID_20_" d="M115.981,23.168v6.442c0,0.871,0.047,2.024,0.137,3.461h-0.059l-5.186-9.903h-5.031V37.42h3.412v-6.425
				c0-0.833-0.061-2.038-0.184-3.616h0.09l5.203,10.041h5.049V23.168H115.981z"/>
		</defs>
		<clipPath id="SVGID_21_">
			<use xlink:href="#SVGID_20_"  overflow="visible"/>
		</clipPath>
		
			<linearGradient id="SVGID_22_" gradientUnits="userSpaceOnUse" x1="-321.7788" y1="281.3477" x2="-320.7788" y2="281.3477" gradientTransform="matrix(137.7942 0 0 -137.7942 44362.9258 38798.1719)">
			<stop  offset="0" style="stop-color:#209EC7"/>
			<stop  offset="0.9946" style="stop-color:#DE6364"/>
			<stop  offset="1" style="stop-color:#DE6364"/>
		</linearGradient>
		<rect x="105.843" y="23.168" clip-path="url(#SVGID_21_)" fill="url(#SVGID_22_)" width="13.57" height="14.252"/>
	</g>
	<g>
		<defs>
			<path id="SVGID_23_" d="M123.937,24.885c-1.314,1.281-1.969,3.069-1.969,5.369c0,2.358,0.6,4.177,1.799,5.45
				c1.197,1.271,2.896,1.91,5.094,1.91c2,0,3.836-0.287,5.51-0.856v-7.683h-6.154v2.974h2.545v2.231
				c-0.482,0.111-1.01,0.166-1.578,0.166c-1.047,0-1.85-0.35-2.404-1.049c-0.557-0.699-0.834-1.714-0.834-3.046
				c0-1.359,0.307-2.403,0.92-3.134c0.615-0.732,1.484-1.098,2.611-1.098c1.227,0,2.354,0.254,3.381,0.763l1.219-3.024
				c-0.596-0.257-1.285-0.473-2.08-0.643c-0.799-0.169-1.645-0.254-2.541-0.254C127.089,22.962,125.249,23.603,123.937,24.885"/>
		</defs>
		<clipPath id="SVGID_24_">
			<use xlink:href="#SVGID_23_"  overflow="visible"/>
		</clipPath>
		
			<linearGradient id="SVGID_25_" gradientUnits="userSpaceOnUse" x1="-321.7788" y1="281.3457" x2="-320.7788" y2="281.3457" gradientTransform="matrix(137.7945 0 0 -137.7945 44363.1289 38798.1406)">
			<stop  offset="0" style="stop-color:#209EC7"/>
			<stop  offset="0.9946" style="stop-color:#DE6364"/>
			<stop  offset="1" style="stop-color:#DE6364"/>
		</linearGradient>
		<rect x="121.968" y="22.962" clip-path="url(#SVGID_24_)" fill="url(#SVGID_25_)" width="12.402" height="14.652"/>
	</g>
	<g>
		<defs>
			<path id="SVGID_26_" d="M142.628,27.095c0.174-0.759,0.289-1.306,0.346-1.636c0.066,0.356,0.201,0.948,0.404,1.772
				c0.205,0.825,0.379,1.498,0.523,2.019l0.613,2.34h-3.033C142.075,29.353,142.456,27.856,142.628,27.095 M140.382,23.109
				l-4.65,14.311h4.23l0.721-2.672h4.631l0.703,2.672h4.211l-4.709-14.311H140.382z"/>
		</defs>
		<clipPath id="SVGID_27_">
			<use xlink:href="#SVGID_26_"  overflow="visible"/>
		</clipPath>
		
			<linearGradient id="SVGID_28_" gradientUnits="userSpaceOnUse" x1="-321.7788" y1="281.3457" x2="-320.7788" y2="281.3457" gradientTransform="matrix(137.7914 0 0 -137.7914 44362.0469 38797.3438)">
			<stop  offset="0" style="stop-color:#209EC7"/>
			<stop  offset="0.9946" style="stop-color:#DE6364"/>
			<stop  offset="1" style="stop-color:#DE6364"/>
		</linearGradient>
		<rect x="135.731" y="23.109" clip-path="url(#SVGID_27_)" fill="url(#SVGID_28_)" width="14.496" height="14.311"/>
	</g>
	<g>
		<defs>
			<polygon id="SVGID_29_" points="159.312,23.168 156.856,28.451 154.419,23.168 150.228,23.168 154.917,31.971 154.917,37.42 
				158.796,37.42 158.796,31.854 163.485,23.168 			"/>
		</defs>
		<clipPath id="SVGID_30_">
			<use xlink:href="#SVGID_29_"  overflow="visible"/>
		</clipPath>
		
			<linearGradient id="SVGID_31_" gradientUnits="userSpaceOnUse" x1="-321.7788" y1="281.3467" x2="-320.7788" y2="281.3467" gradientTransform="matrix(137.7883 0 0 -137.7883 44361.1133 38796.5078)">
			<stop  offset="0" style="stop-color:#209EC7"/>
			<stop  offset="0.9946" style="stop-color:#DE6364"/>
			<stop  offset="1" style="stop-color:#DE6364"/>
		</linearGradient>
		<rect x="150.228" y="23.168" clip-path="url(#SVGID_30_)" fill="url(#SVGID_31_)" width="13.258" height="14.252"/>
	</g>
</g>
</svg>
