<?xml version="1.0" encoding="utf-8"?>
<!-- Generator: Adobe Illustrator 16.0.2, SVG Export Plug-In . SVG Version: 6.00 Build 0)  -->
<!DOCTYPE svg PUBLIC "-//W3C//DTD SVG 1.1//EN" "http://www.w3.org/Graphics/SVG/1.1/DTD/svg11.dtd">
<svg version="1.1" id="Layer_1" xmlns="http://www.w3.org/2000/svg" xmlns:xlink="http://www.w3.org/1999/xlink" x="0px" y="0px"
	 width="92.738px" height="11.172px" viewBox="0 0 92.738 11.172" enable-background="new 0 0 92.738 11.172" xml:space="preserve">
<g>
	<g>
		<defs>
			<polygon id="SVGID_1_" points="0,1.546 0,3.222 2.579,3.222 2.579,11.042 4.592,11.042 4.592,3.222 7.171,3.222 7.171,1.546 			
				"/>
		</defs>
		<clipPath id="SVGID_2_">
			<use xlink:href="#SVGID_1_"  overflow="visible"/>
		</clipPath>
		
			<linearGradient id="SVGID_3_" gradientUnits="userSpaceOnUse" x1="-302.8584" y1="474.3394" x2="-301.8584" y2="474.3394" gradientTransform="matrix(39.9059 0.8868 0.8868 -39.9059 11706.6768 19204.6816)">
			<stop  offset="0" style="stop-color:#209EC7"/>
			<stop  offset="0.9946" style="stop-color:#DE6364"/>
			<stop  offset="1" style="stop-color:#DE6364"/>
		</linearGradient>
		<polygon clip-path="url(#SVGID_2_)" fill="url(#SVGID_3_)" points="0.003,1.387 7.382,1.551 7.167,11.202 -0.211,11.038 		"/>
	</g>
	<g>
		<defs>
			<path id="SVGID_4_" d="M11.278,4.017c-0.382,0.25-0.687,0.577-0.912,0.984h-0.097L9.976,3.78H8.477v7.262h1.98V7.346
				c0-0.584,0.177-1.039,0.53-1.364c0.352-0.325,0.845-0.487,1.477-0.487c0.23,0,0.424,0.022,0.584,0.065l0.15-1.858
				c-0.177-0.039-0.401-0.058-0.669-0.058C12.079,3.644,11.662,3.768,11.278,4.017"/>
		</defs>
		<clipPath id="SVGID_5_">
			<use xlink:href="#SVGID_4_"  overflow="visible"/>
		</clipPath>
		
			<linearGradient id="SVGID_6_" gradientUnits="userSpaceOnUse" x1="-302.8584" y1="474.3413" x2="-301.8584" y2="474.3413" gradientTransform="matrix(39.9058 0.8868 0.8868 -39.9058 11706.5547 19205.5684)">
			<stop  offset="0" style="stop-color:#209EC7"/>
			<stop  offset="0.9946" style="stop-color:#DE6364"/>
			<stop  offset="1" style="stop-color:#DE6364"/>
		</linearGradient>
		<polygon clip-path="url(#SVGID_5_)" fill="url(#SVGID_6_)" points="8.479,3.539 13.362,3.647 13.195,11.147 8.313,11.038 		"/>
	</g>
	<g>
		<defs>
			<path id="SVGID_7_" d="M16.069,8.885c0-0.39,0.14-0.681,0.422-0.871c0.282-0.19,0.71-0.293,1.286-0.312l0.767-0.026v0.599
				c0,0.437-0.138,0.788-0.412,1.052c-0.276,0.264-0.643,0.396-1.102,0.396C16.389,9.723,16.069,9.444,16.069,8.885 M14.712,4.287
				l0.655,1.339c0.784-0.352,1.466-0.527,2.047-0.527c0.753,0,1.13,0.369,1.13,1.104v0.318l-1.26,0.039
				c-1.087,0.039-1.9,0.241-2.439,0.608c-0.539,0.365-0.809,0.934-0.809,1.703c0,0.736,0.201,1.303,0.601,1.702
				s0.949,0.599,1.646,0.599c0.568,0,1.028-0.082,1.381-0.244c0.352-0.162,0.695-0.454,1.028-0.873h0.053l0.383,0.986h1.383V6.203
				c0-0.866-0.26-1.511-0.779-1.935c-0.519-0.425-1.266-0.637-2.24-0.637C16.474,3.631,15.547,3.849,14.712,4.287 M16.741,0.042
				c-0.228,0.029-0.406,0.064-0.535,0.107v1.092c0.32-0.1,0.621-0.149,0.902-0.149c0.147,0,0.267,0.036,0.358,0.109
				c0.091,0.074,0.136,0.18,0.136,0.319c0,0.16-0.059,0.295-0.176,0.406c-0.116,0.11-0.337,0.192-0.662,0.244l0.15,0.954h1.129
				l0.066-0.461c0.701-0.177,1.051-0.604,1.051-1.28c0-0.441-0.15-0.782-0.451-1.023C18.409,0.121,17.954,0,17.349,0
				C17.171,0,16.968,0.014,16.741,0.042"/>
		</defs>
		<clipPath id="SVGID_8_">
			<use xlink:href="#SVGID_7_"  overflow="visible"/>
		</clipPath>
		
			<linearGradient id="SVGID_9_" gradientUnits="userSpaceOnUse" x1="-302.8584" y1="474.3403" x2="-301.8584" y2="474.3403" gradientTransform="matrix(39.9066 0.8868 0.8868 -39.9066 11706.8438 19204.041)">
			<stop  offset="0" style="stop-color:#209EC7"/>
			<stop  offset="0.9946" style="stop-color:#DE6364"/>
			<stop  offset="1" style="stop-color:#DE6364"/>
		</linearGradient>
		<polygon clip-path="url(#SVGID_8_)" fill="url(#SVGID_9_)" points="14.039,-0.144 20.759,0.005 20.508,11.316 13.788,11.167 		"/>
	</g>
	<g>
		<defs>
			<rect id="SVGID_10_" x="26.007" y="0.935" width="1.982" height="10.106"/>
		</defs>
		<clipPath id="SVGID_11_">
			<use xlink:href="#SVGID_10_"  overflow="visible"/>
		</clipPath>
		
			<linearGradient id="SVGID_12_" gradientUnits="userSpaceOnUse" x1="-302.8584" y1="474.3403" x2="-301.8584" y2="474.3403" gradientTransform="matrix(39.9069 0.8868 0.8868 -39.9069 11706.9639 19204.4023)">
			<stop  offset="0" style="stop-color:#209EC7"/>
			<stop  offset="0.9946" style="stop-color:#DE6364"/>
			<stop  offset="1" style="stop-color:#DE6364"/>
		</linearGradient>
		<polygon clip-path="url(#SVGID_11_)" fill="url(#SVGID_12_)" points="26.008,0.891 28.213,0.94 27.988,11.086 25.782,11.038 		"/>
	</g>
	<g>
		<defs>
			<path id="SVGID_13_" d="M31.999,9.029c-0.236-0.368-0.354-0.912-0.354-1.631c0-0.724,0.117-1.263,0.351-1.621
				c0.234-0.356,0.614-0.536,1.143-0.536c0.532,0,0.915,0.18,1.15,0.54c0.233,0.358,0.351,0.899,0.351,1.617
				c0,0.723-0.117,1.269-0.348,1.633C34.06,9.398,33.68,9.58,33.152,9.58C32.62,9.58,32.236,9.397,31.999,9.029 M36.621,2.689
				c0,1.04-0.323,1.656-0.968,1.851c-0.308-0.298-0.679-0.523-1.111-0.673c-0.434-0.148-0.893-0.223-1.377-0.223
				c-1.122,0-1.992,0.329-2.611,0.987c-0.62,0.658-0.928,1.581-0.928,2.767c0,0.762,0.142,1.429,0.428,2.001
				c0.285,0.57,0.696,1.009,1.227,1.314c0.533,0.307,1.147,0.459,1.845,0.459c1.112,0,1.982-0.334,2.604-1
				c0.624-0.668,0.936-1.592,0.936-2.774c0-0.667-0.112-1.271-0.338-1.812c0.455-0.113,0.836-0.285,1.144-0.517
				c0.307-0.232,0.554-0.518,0.743-0.858c0.188-0.339,0.34-0.8,0.458-1.38l-0.098-0.143H36.621z M30.593,0.851v0.136
				c0.294,0.286,0.706,0.643,1.234,1.069c0.528,0.426,0.929,0.735,1.201,0.926h1.313V2.806c-0.746-0.866-1.253-1.518-1.527-1.955
				H30.593z"/>
		</defs>
		<clipPath id="SVGID_14_">
			<use xlink:href="#SVGID_13_"  overflow="visible"/>
		</clipPath>
		
			<linearGradient id="SVGID_15_" gradientUnits="userSpaceOnUse" x1="-302.8584" y1="474.3423" x2="-301.8584" y2="474.3423" gradientTransform="matrix(39.9063 0.8868 0.8868 -39.9063 11706.7656 19203.9785)">
			<stop  offset="0" style="stop-color:#209EC7"/>
			<stop  offset="0.9946" style="stop-color:#DE6364"/>
			<stop  offset="1" style="stop-color:#DE6364"/>
		</linearGradient>
		<polygon clip-path="url(#SVGID_14_)" fill="url(#SVGID_15_)" points="29.63,0.65 38.902,0.856 38.668,11.374 29.396,11.167 		"/>
	</g>
	<g>
		<defs>
			<path id="SVGID_16_" d="M39.101,11.042h1.982V3.78h-1.982V11.042z M39.016,1.903c0,0.649,0.359,0.974,1.079,0.974
				c0.358,0,0.629-0.085,0.808-0.256c0.181-0.171,0.27-0.411,0.27-0.718c0-0.645-0.36-0.968-1.078-0.968
				C39.375,0.935,39.016,1.258,39.016,1.903"/>
		</defs>
		<clipPath id="SVGID_17_">
			<use xlink:href="#SVGID_16_"  overflow="visible"/>
		</clipPath>
		
			<linearGradient id="SVGID_18_" gradientUnits="userSpaceOnUse" x1="-302.8584" y1="474.3423" x2="-301.8584" y2="474.3423" gradientTransform="matrix(39.9076 0.8868 0.8868 -39.9076 11707.1436 19204.4316)">
			<stop  offset="0" style="stop-color:#209EC7"/>
			<stop  offset="0.9946" style="stop-color:#DE6364"/>
			<stop  offset="1" style="stop-color:#DE6364"/>
		</linearGradient>
		<polygon clip-path="url(#SVGID_17_)" fill="url(#SVGID_18_)" points="39.017,0.887 41.397,0.94 41.172,11.09 38.792,11.038 		"/>
	</g>
	<g>
		<defs>
			<path id="SVGID_19_" d="M47.097,4.621c-0.614,0.652-0.922,1.595-0.922,2.829c0,2.48,1.13,3.723,3.39,3.723
				c0.5,0,0.911-0.039,1.238-0.117c0.326-0.078,0.65-0.219,0.971-0.422V8.937c-0.324,0.217-0.649,0.376-0.975,0.478
				c-0.324,0.103-0.678,0.153-1.059,0.153c-1.03,0-1.547-0.711-1.547-2.131c0-1.464,0.517-2.196,1.547-2.196
				c0.269,0,0.537,0.041,0.806,0.12c0.269,0.081,0.558,0.185,0.87,0.31l0.585-1.534c-0.667-0.328-1.421-0.493-2.261-0.493
				C48.593,3.644,47.712,3.97,47.097,4.621"/>
		</defs>
		<clipPath id="SVGID_20_">
			<use xlink:href="#SVGID_19_"  overflow="visible"/>
		</clipPath>
		
			<linearGradient id="SVGID_21_" gradientUnits="userSpaceOnUse" x1="-302.8584" y1="474.3413" x2="-301.8584" y2="474.3413" gradientTransform="matrix(39.9056 0.8868 0.8868 -39.9056 11706.5264 19204.6309)">
			<stop  offset="0" style="stop-color:#209EC7"/>
			<stop  offset="0.9946" style="stop-color:#DE6364"/>
			<stop  offset="1" style="stop-color:#DE6364"/>
		</linearGradient>
		<polygon clip-path="url(#SVGID_20_)" fill="url(#SVGID_21_)" points="46.178,3.515 52.168,3.647 51.998,11.301 46.008,11.168 		
			"/>
	</g>
	<g>
		<defs>
			<path id="SVGID_22_" d="M55.008,8.885c0-0.39,0.143-0.681,0.423-0.871c0.281-0.19,0.71-0.293,1.285-0.312l0.767-0.026v0.599
				c0,0.437-0.137,0.788-0.412,1.052c-0.274,0.264-0.642,0.396-1.101,0.396C55.328,9.723,55.008,9.444,55.008,8.885 M53.65,4.287
				l0.656,1.339c0.783-0.352,1.467-0.527,2.047-0.527c0.752,0,1.129,0.369,1.129,1.104v0.318l-1.26,0.039
				c-1.087,0.039-1.9,0.241-2.439,0.608c-0.539,0.365-0.808,0.934-0.808,1.703c0,0.736,0.2,1.303,0.601,1.702
				s0.949,0.599,1.646,0.599c0.567,0,1.027-0.082,1.381-0.244c0.352-0.162,0.695-0.454,1.029-0.873h0.051l0.385,0.986h1.383V6.203
				c0-0.866-0.26-1.511-0.78-1.935c-0.519-0.425-1.267-0.637-2.24-0.637C55.412,3.631,54.486,3.849,53.65,4.287 M55.23,0.858
				c-0.291,0.485-0.846,1.136-1.664,1.954v0.176h1.318c0.654-0.411,1.15-0.793,1.488-1.143c0.332,0.359,0.839,0.74,1.519,1.143
				h1.319V2.812c-0.313-0.303-0.633-0.648-0.965-1.035c-0.331-0.388-0.564-0.694-0.698-0.919H55.23z"/>
		</defs>
		<clipPath id="SVGID_23_">
			<use xlink:href="#SVGID_22_"  overflow="visible"/>
		</clipPath>
		
			<linearGradient id="SVGID_24_" gradientUnits="userSpaceOnUse" x1="-302.8584" y1="474.3403" x2="-301.8584" y2="474.3403" gradientTransform="matrix(39.906 0.8868 0.8868 -39.906 11706.7158 19203.293)">
			<stop  offset="0" style="stop-color:#209EC7"/>
			<stop  offset="0.9946" style="stop-color:#DE6364"/>
			<stop  offset="1" style="stop-color:#DE6364"/>
		</linearGradient>
		<polygon clip-path="url(#SVGID_23_)" fill="url(#SVGID_24_)" points="52.979,0.714 59.68,0.863 59.447,11.316 52.746,11.167 		"/>
	</g>
	<g>
		<defs>
			<path id="SVGID_25_" d="M66.175,3.78v3.416c0,0.857-0.124,1.473-0.371,1.842c-0.247,0.371-0.647,0.555-1.202,0.555
				c-0.406,0-0.703-0.131-0.89-0.392c-0.185-0.262-0.279-0.655-0.279-1.179V3.78h-1.981v4.734c0,0.859,0.218,1.516,0.65,1.973
				c0.434,0.457,1.076,0.686,1.93,0.686c0.496,0,0.941-0.093,1.332-0.277c0.389-0.184,0.688-0.444,0.901-0.782h0.104l0.266,0.929
				h1.52V3.78H66.175z"/>
		</defs>
		<clipPath id="SVGID_26_">
			<use xlink:href="#SVGID_25_"  overflow="visible"/>
		</clipPath>
		
			<linearGradient id="SVGID_27_" gradientUnits="userSpaceOnUse" x1="-302.8584" y1="474.3403" x2="-301.8584" y2="474.3403" gradientTransform="matrix(39.9062 0.8868 0.8868 -39.9062 11706.709 19204.6426)">
			<stop  offset="0" style="stop-color:#209EC7"/>
			<stop  offset="0.9946" style="stop-color:#DE6364"/>
			<stop  offset="1" style="stop-color:#DE6364"/>
		</linearGradient>
		<polygon clip-path="url(#SVGID_26_)" fill="url(#SVGID_27_)" points="61.455,3.631 68.318,3.784 68.151,11.321 61.287,11.168 		
			"/>
	</g>
	<g>
		<defs>
			<path id="SVGID_28_" d="M73.689,0.935v10.106h1.98V7.625c0-0.846,0.124-1.455,0.37-1.832c0.247-0.377,0.647-0.564,1.202-0.564
				c0.779,0,1.168,0.523,1.168,1.57v4.242h1.981V6.307c0-0.858-0.221-1.515-0.663-1.975c-0.441-0.458-1.089-0.688-1.941-0.688
				c-0.961,0-1.663,0.355-2.104,1.065h-0.104l0.047-0.584c0.029-0.593,0.045-0.971,0.045-1.131V0.935H73.689z"/>
		</defs>
		<clipPath id="SVGID_29_">
			<use xlink:href="#SVGID_28_"  overflow="visible"/>
		</clipPath>
		
			<linearGradient id="SVGID_30_" gradientUnits="userSpaceOnUse" x1="-302.8613" y1="474.3442" x2="-301.8585" y2="474.3442" gradientTransform="matrix(39.9062 0.8868 0.8868 -39.9062 11706.7393 19202.957)">
			<stop  offset="0" style="stop-color:#209EC7"/>
			<stop  offset="0.9946" style="stop-color:#DE6364"/>
			<stop  offset="1" style="stop-color:#DE6364"/>
		</linearGradient>
		<polygon clip-path="url(#SVGID_29_)" fill="url(#SVGID_30_)" points="73.691,0.786 80.616,0.94 80.389,11.191 73.465,11.037 		"/>
	</g>
	<g>
		<defs>
			<path id="SVGID_31_" d="M84.363,9.029c-0.235-0.368-0.354-0.912-0.354-1.631c0-0.724,0.117-1.263,0.352-1.621
				c0.233-0.356,0.613-0.536,1.143-0.536c0.531,0,0.915,0.18,1.148,0.54c0.234,0.358,0.352,0.899,0.352,1.617
				c0,0.723-0.116,1.269-0.348,1.633c-0.231,0.367-0.611,0.549-1.141,0.549C84.984,9.58,84.6,9.397,84.363,9.029 M82.918,4.631
				c-0.619,0.658-0.928,1.581-0.928,2.767c0,0.762,0.142,1.429,0.429,2.001c0.284,0.57,0.694,1.009,1.226,1.314
				c0.534,0.307,1.148,0.459,1.846,0.459c1.113,0,1.981-0.334,2.604-1c0.624-0.668,0.937-1.592,0.937-2.774
				c0-0.763-0.144-1.427-0.43-1.994c-0.285-0.567-0.695-1.002-1.227-1.306c-0.534-0.303-1.148-0.454-1.846-0.454
				C84.408,3.644,83.537,3.973,82.918,4.631 M84.761,0.042c-0.228,0.029-0.405,0.064-0.537,0.107v1.092
				c0.32-0.1,0.621-0.149,0.903-0.149c0.146,0,0.266,0.036,0.357,0.109c0.09,0.074,0.135,0.18,0.135,0.319
				c0,0.16-0.057,0.295-0.174,0.406c-0.117,0.11-0.338,0.192-0.662,0.244l0.148,0.954h1.131l0.065-0.461
				c0.702-0.177,1.051-0.604,1.051-1.28c0-0.441-0.149-0.782-0.45-1.023C86.427,0.121,85.974,0,85.367,0
				C85.189,0,84.986,0.014,84.761,0.042"/>
		</defs>
		<clipPath id="SVGID_32_">
			<use xlink:href="#SVGID_31_"  overflow="visible"/>
		</clipPath>
		
			<linearGradient id="SVGID_33_" gradientUnits="userSpaceOnUse" x1="-302.8584" y1="474.3413" x2="-301.8584" y2="474.3413" gradientTransform="matrix(39.9065 0.8868 0.8868 -39.9065 11706.8262 19202.4785)">
			<stop  offset="0" style="stop-color:#209EC7"/>
			<stop  offset="0.9946" style="stop-color:#DE6364"/>
			<stop  offset="1" style="stop-color:#DE6364"/>
		</linearGradient>
		<polygon clip-path="url(#SVGID_32_)" fill="url(#SVGID_33_)" points="81.993,-0.156 89.279,0.005 89.027,11.329 81.742,11.167 		
			"/>
	</g>
	<g>
		<defs>
			<path id="SVGID_34_" d="M90.667,11.042h1.981V3.78h-1.981V11.042z M90.583,1.903c0,0.649,0.358,0.974,1.079,0.974
				c0.357,0,0.629-0.085,0.808-0.256c0.181-0.171,0.269-0.411,0.269-0.718c0-0.645-0.358-0.968-1.076-0.968
				C90.941,0.935,90.583,1.258,90.583,1.903"/>
		</defs>
		<clipPath id="SVGID_35_">
			<use xlink:href="#SVGID_34_"  overflow="visible"/>
		</clipPath>
		
			<linearGradient id="SVGID_36_" gradientUnits="userSpaceOnUse" x1="-302.8584" y1="474.3413" x2="-301.8584" y2="474.3413" gradientTransform="matrix(39.9059 0.8868 0.8868 -39.9059 11706.6523 19202.4668)">
			<stop  offset="0" style="stop-color:#209EC7"/>
			<stop  offset="0.9946" style="stop-color:#DE6364"/>
			<stop  offset="1" style="stop-color:#DE6364"/>
		</linearGradient>
		<polygon clip-path="url(#SVGID_35_)" fill="url(#SVGID_36_)" points="90.584,0.887 92.963,0.94 92.738,11.09 90.358,11.037 		"/>
	</g>
</g>
</svg>
