<?xml version="1.0" encoding="utf-8"?>
<!-- Generator: Adobe Illustrator 16.0.2, SVG Export Plug-In . SVG Version: 6.00 Build 0)  -->
<!DOCTYPE svg PUBLIC "-//W3C//DTD SVG 1.1//EN" "http://www.w3.org/Graphics/SVG/1.1/DTD/svg11.dtd">
<svg version="1.1" id="Layer_1" xmlns="http://www.w3.org/2000/svg" xmlns:xlink="http://www.w3.org/1999/xlink" x="0px" y="0px"
	 width="331.892px" height="78.77px" viewBox="0 0 331.892 78.77" enable-background="new 0 0 331.892 78.77" xml:space="preserve">
<g>
	<g>
		<g>
			<g>
				<defs>
					<path id="SVGID_1_" d="M92.489,16.385c-1.633,0.94-2.883,2.286-3.754,4.035c-0.869,1.75-1.305,3.778-1.305,6.088
						c0,3.692,0.899,6.515,2.694,8.468c1.795,1.953,4.376,2.929,7.743,2.929c2.35,0,4.455-0.412,6.316-1.236v-5.096
						c-0.936,0.387-1.867,0.717-2.793,0.992c-0.925,0.274-1.882,0.412-2.867,0.412c-3.266,0-4.898-2.146-4.898-6.439
						c0-2.065,0.402-3.684,1.206-4.86c0.803-1.174,1.922-1.762,3.356-1.762c0.945,0,1.83,0.133,2.654,0.397
						c0.824,0.265,1.648,0.59,2.473,0.977l1.846-4.745c-2.197-1.048-4.502-1.572-6.912-1.572
						C96.042,14.973,94.122,15.443,92.489,16.385"/>
				</defs>
				<clipPath id="SVGID_2_">
					<use xlink:href="#SVGID_1_"  overflow="visible"/>
				</clipPath>
				
					<linearGradient id="SVGID_3_" gradientUnits="userSpaceOnUse" x1="-25.1011" y1="626.6172" x2="-24.1077" y2="626.6172" gradientTransform="matrix(239.0852 0 0 -239.0852 6022.6563 149841.1719)">
					<stop  offset="0" style="stop-color:#209EC7"/>
					<stop  offset="0.9946" style="stop-color:#DE6364"/>
					<stop  offset="1" style="stop-color:#DE6364"/>
				</linearGradient>
				<rect x="87.431" y="14.974" clip-path="url(#SVGID_2_)" fill="url(#SVGID_3_)" width="17.73" height="22.932"/>
			</g>
			<g>
				<defs>
					<polygon id="SVGID_4_" points="121.594,15.293 121.594,23.563 114.59,23.563 114.59,15.293 108.532,15.293 108.532,37.599 
						114.59,37.599 114.59,28.507 121.594,28.507 121.594,37.599 127.651,37.599 127.651,15.293 					"/>
				</defs>
				<clipPath id="SVGID_5_">
					<use xlink:href="#SVGID_4_"  overflow="visible"/>
				</clipPath>
				
					<linearGradient id="SVGID_6_" gradientUnits="userSpaceOnUse" x1="-25.106" y1="626.6172" x2="-24.0998" y2="626.6172" gradientTransform="matrix(239.0852 0 0 -239.0852 6022.6563 149841.1719)">
					<stop  offset="0" style="stop-color:#209EC7"/>
					<stop  offset="0.9946" style="stop-color:#DE6364"/>
					<stop  offset="1" style="stop-color:#DE6364"/>
				</linearGradient>
				<rect x="108.532" y="15.293" clip-path="url(#SVGID_5_)" fill="url(#SVGID_6_)" width="19.119" height="22.306"/>
			</g>
			<g>
				<defs>
					<path id="SVGID_7_" d="M145.409,15.293v13.061c0,1.607-0.276,2.764-0.83,3.471c-0.555,0.706-1.448,1.06-2.678,1.06
						c-1.149,0-2.02-0.356-2.609-1.068s-0.885-1.856-0.885-3.433V15.293h-6.059v13.565c0,2.918,0.817,5.157,2.449,6.713
						c1.633,1.556,3.971,2.334,7.012,2.334c3.112,0,5.495-0.801,7.147-2.403c1.653-1.602,2.479-3.862,2.479-6.782V15.293H145.409z
						 M142.647,8.504c-0.273,0.386-0.623,0.824-1.045,1.311c-0.422,0.489-1.416,1.573-2.981,3.25v0.443h3.967
						c0.731-0.457,1.81-1.19,3.233-2.197c1.425-1.007,2.543-1.836,3.357-2.486V8.504H142.647z"/>
				</defs>
				<clipPath id="SVGID_8_">
					<use xlink:href="#SVGID_7_"  overflow="visible"/>
				</clipPath>
				
					<linearGradient id="SVGID_9_" gradientUnits="userSpaceOnUse" x1="-25.1064" y1="626.6172" x2="-24.1003" y2="626.6172" gradientTransform="matrix(239.0852 0 0 -239.0852 6022.6563 149837.9219)">
					<stop  offset="0" style="stop-color:#209EC7"/>
					<stop  offset="0.9946" style="stop-color:#DE6364"/>
					<stop  offset="1" style="stop-color:#DE6364"/>
				</linearGradient>
				<rect x="132.349" y="8.504" clip-path="url(#SVGID_8_)" fill="url(#SVGID_9_)" width="19.088" height="29.401"/>
			</g>
			<g>
				<defs>
					<path id="SVGID_10_" d="M160.354,16.385c-1.633,0.94-2.884,2.286-3.753,4.035c-0.871,1.75-1.305,3.778-1.305,6.088
						c0,3.692,0.898,6.515,2.693,8.468c1.795,1.953,4.376,2.929,7.742,2.929c2.351,0,4.455-0.412,6.316-1.236v-5.096
						c-0.935,0.387-1.865,0.717-2.791,0.992c-0.926,0.274-1.882,0.412-2.869,0.412c-3.265,0-4.897-2.146-4.897-6.439
						c0-2.065,0.402-3.684,1.206-4.86c0.803-1.174,1.922-1.762,3.356-1.762c0.945,0,1.83,0.133,2.655,0.397
						c0.823,0.265,1.646,0.59,2.471,0.977l1.847-4.745c-2.197-1.048-4.502-1.572-6.911-1.572
						C163.907,14.973,161.987,15.443,160.354,16.385"/>
				</defs>
				<clipPath id="SVGID_11_">
					<use xlink:href="#SVGID_10_"  overflow="visible"/>
				</clipPath>
				
					<linearGradient id="SVGID_12_" gradientUnits="userSpaceOnUse" x1="-25.103" y1="626.6172" x2="-24.103" y2="626.6172" gradientTransform="matrix(239.0852 0 0 -239.0852 6022.6563 149841.1719)">
					<stop  offset="0" style="stop-color:#209EC7"/>
					<stop  offset="0.9946" style="stop-color:#DE6364"/>
					<stop  offset="1" style="stop-color:#DE6364"/>
				</linearGradient>
				<rect x="155.297" y="14.974" clip-path="url(#SVGID_11_)" fill="url(#SVGID_12_)" width="17.729" height="22.932"/>
			</g>
			<g>
				<defs>
					<path id="SVGID_13_" d="M201.878,15.293l-4.563,15.837h-0.121l-4.653-15.837h-8.026v22.306h5.34v-9.688
						c0-1.516-0.105-3.641-0.319-6.377h0.137l4.562,16.065h5.737l4.501-16.035h0.139c-0.123,2.421-0.191,3.942-0.207,4.562
						s-0.023,1.186-0.023,1.694v9.779h5.539V15.293H201.878z"/>
				</defs>
				<clipPath id="SVGID_14_">
					<use xlink:href="#SVGID_13_"  overflow="visible"/>
				</clipPath>
				
					<linearGradient id="SVGID_15_" gradientUnits="userSpaceOnUse" x1="-25.103" y1="626.6172" x2="-24.103" y2="626.6172" gradientTransform="matrix(239.0852 0 0 -239.0852 6022.6563 149841.1719)">
					<stop  offset="0" style="stop-color:#209EC7"/>
					<stop  offset="0.9946" style="stop-color:#DE6364"/>
					<stop  offset="1" style="stop-color:#DE6364"/>
				</linearGradient>
				<rect x="184.515" y="15.293" clip-path="url(#SVGID_14_)" fill="url(#SVGID_15_)" width="25.404" height="22.306"/>
			</g>
			<g>
				<defs>
					<path id="SVGID_16_" d="M235.719,13.859c0,1.078-0.173,2.017-0.518,2.815c-0.347,0.799-0.851,1.366-1.512,1.701v-3.082h-6.026
						v13.656c0,1.394-0.28,2.398-0.839,3.013c-0.56,0.615-1.47,0.923-2.731,0.923c-1.271,0-2.161-0.298-2.671-0.893
						c-0.508-0.594-0.762-1.599-0.762-3.013V15.293h-6.058v14.373c0,2.553,0.814,4.565,2.441,6.034
						c1.627,1.47,3.916,2.205,6.866,2.205c1.983,0,3.715-0.338,5.194-1.015c1.48-0.676,2.614-1.635,3.403-2.875
						c0.788-1.241,1.182-2.671,1.182-4.288v-7.934c1.628-0.214,2.962-0.613,4.006-1.197c1.043-0.585,1.871-1.346,2.486-2.282
						c0.616-0.936,1.116-2.308,1.503-4.119l-0.214-0.336H235.719z M216.205,8.504v0.321c0.956,0.752,2.118,1.609,3.485,2.57
						c1.368,0.961,2.403,1.666,3.105,2.113h3.967v-0.443l-0.899-1.006c-1.536-1.658-2.568-2.843-3.099-3.555H216.205z"/>
				</defs>
				<clipPath id="SVGID_17_">
					<use xlink:href="#SVGID_16_"  overflow="visible"/>
				</clipPath>
				
					<linearGradient id="SVGID_18_" gradientUnits="userSpaceOnUse" x1="-25.103" y1="626.6172" x2="-24.103" y2="626.6172" gradientTransform="matrix(239.0852 0 0 -239.0852 6022.6563 149837.9219)">
					<stop  offset="0" style="stop-color:#209EC7"/>
					<stop  offset="0.9946" style="stop-color:#DE6364"/>
					<stop  offset="1" style="stop-color:#DE6364"/>
				</linearGradient>
				<rect x="214.603" y="8.504" clip-path="url(#SVGID_17_)" fill="url(#SVGID_18_)" width="27.082" height="29.401"/>
			</g>
			<g>
				<defs>
					<path id="SVGID_19_" d="M258.712,15.293v10.085c0,1.364,0.071,3.169,0.213,5.417h-0.09l-8.117-15.502h-7.874v22.306h5.341
						V27.546c0-1.303-0.097-3.19-0.29-5.661h0.138l8.147,15.714h7.902V15.293H258.712z"/>
				</defs>
				<clipPath id="SVGID_20_">
					<use xlink:href="#SVGID_19_"  overflow="visible"/>
				</clipPath>
				
					<linearGradient id="SVGID_21_" gradientUnits="userSpaceOnUse" x1="-25.103" y1="626.6172" x2="-24.103" y2="626.6172" gradientTransform="matrix(239.0852 0 0 -239.0852 6022.6563 149841.1719)">
					<stop  offset="0" style="stop-color:#209EC7"/>
					<stop  offset="0.9946" style="stop-color:#DE6364"/>
					<stop  offset="1" style="stop-color:#DE6364"/>
				</linearGradient>
				<rect x="242.844" y="15.293" clip-path="url(#SVGID_20_)" fill="url(#SVGID_21_)" width="21.238" height="22.306"/>
			</g>
			<g>
				<defs>
					<path id="SVGID_22_" d="M271.162,17.979c-2.055,2.004-3.082,4.806-3.082,8.406c0,3.693,0.938,6.536,2.814,8.53
						c1.877,1.993,4.535,2.99,7.974,2.99c3.133,0,6.005-0.448,8.62-1.342V24.54h-9.627v4.654h3.98v3.494
						c-0.752,0.173-1.576,0.259-2.471,0.259c-1.639,0-2.892-0.547-3.761-1.64c-0.87-1.093-1.305-2.682-1.305-4.768
						c0-2.125,0.48-3.761,1.441-4.905c0.962-1.144,2.32-1.717,4.082-1.717c1.922,0,3.687,0.397,5.294,1.191l1.907-4.73
						c-0.926-0.407-2.013-0.743-3.258-1.008c-1.246-0.264-2.571-0.396-3.975-0.396C276.096,14.973,273.217,15.975,271.162,17.979"/>
				</defs>
				<clipPath id="SVGID_23_">
					<use xlink:href="#SVGID_22_"  overflow="visible"/>
				</clipPath>
				
					<linearGradient id="SVGID_24_" gradientUnits="userSpaceOnUse" x1="-25.0967" y1="626.6172" x2="-24.1027" y2="626.6172" gradientTransform="matrix(239.0852 0 0 -239.0852 6022.6563 149841.1719)">
					<stop  offset="0" style="stop-color:#209EC7"/>
					<stop  offset="0.9946" style="stop-color:#DE6364"/>
					<stop  offset="1" style="stop-color:#DE6364"/>
				</linearGradient>
				<rect x="268.08" y="14.974" clip-path="url(#SVGID_23_)" fill="url(#SVGID_24_)" width="19.408" height="22.932"/>
			</g>
			<g>
				<defs>
					<path id="SVGID_25_" d="M291.76,32.909c-0.55,0.513-0.824,1.233-0.824,2.158c0,0.915,0.285,1.63,0.855,2.144
						c0.569,0.514,1.356,0.77,2.364,0.77c0.996,0,1.772-0.256,2.326-0.77c0.556-0.514,0.832-1.229,0.832-2.144
						c0-0.925-0.267-1.645-0.802-2.158c-0.534-0.514-1.319-0.772-2.356-0.772C293.106,32.137,292.309,32.396,291.76,32.909
						 M290.875,15.293l0.778,14.434h5.034l0.778-14.434H290.875z"/>
				</defs>
				<clipPath id="SVGID_26_">
					<use xlink:href="#SVGID_25_"  overflow="visible"/>
				</clipPath>
				
					<linearGradient id="SVGID_27_" gradientUnits="userSpaceOnUse" x1="-25.1235" y1="626.6172" x2="-24.1057" y2="626.6172" gradientTransform="matrix(239.0852 0 0 -239.0852 6022.6563 149841.4219)">
					<stop  offset="0" style="stop-color:#209EC7"/>
					<stop  offset="0.9946" style="stop-color:#DE6364"/>
					<stop  offset="1" style="stop-color:#DE6364"/>
				</linearGradient>
				<rect x="290.875" y="15.293" clip-path="url(#SVGID_26_)" fill="url(#SVGID_27_)" width="6.591" height="22.688"/>
			</g>
			<g>
				<defs>
					<path id="SVGID_28_" d="M91.364,60.925h1c0.479,0,0.844,0.1,1.096,0.297c0.252,0.199,0.378,0.482,0.378,0.854
						c0,0.795-0.472,1.191-1.412,1.191h-1.062V60.925z M91.364,56.72h0.848c0.945,0,1.419,0.314,1.419,0.939
						c0,0.352-0.117,0.615-0.354,0.793c-0.236,0.178-0.571,0.268-1.004,0.268h-0.908V56.72z M88.353,54.44v11.152h4.34
						c1.313,0,2.35-0.291,3.108-0.873c0.761-0.582,1.142-1.381,1.142-2.393c0-0.68-0.155-1.236-0.465-1.662
						c-0.311-0.428-0.813-0.732-1.504-0.916v-0.076c0.524-0.127,0.946-0.412,1.268-0.854c0.32-0.443,0.479-0.979,0.479-1.604
						c0-0.951-0.366-1.65-1.103-2.102c-0.735-0.449-1.86-0.674-3.375-0.674H88.353z"/>
				</defs>
				<clipPath id="SVGID_29_">
					<use xlink:href="#SVGID_28_"  overflow="visible"/>
				</clipPath>
				
					<linearGradient id="SVGID_30_" gradientUnits="userSpaceOnUse" x1="-25.1074" y1="626.6172" x2="-24.0937" y2="626.6172" gradientTransform="matrix(239.0852 0 0 -239.0852 6022.6563 149874.6719)">
					<stop  offset="0" style="stop-color:#209EC7"/>
					<stop  offset="0.9946" style="stop-color:#DE6364"/>
					<stop  offset="1" style="stop-color:#DE6364"/>
				</linearGradient>
				<rect x="88.353" y="54.44" clip-path="url(#SVGID_29_)" fill="url(#SVGID_30_)" width="8.59" height="11.152"/>
			</g>
			<g>
				<defs>
					<path id="SVGID_31_" d="M102.13,66.921c-0.249,0.217-0.374,0.551-0.374,0.998c0,0.449,0.129,0.781,0.385,1
						c0.257,0.219,0.652,0.328,1.187,0.328c1.063,0,1.595-0.443,1.595-1.328c0-0.438-0.127-0.768-0.382-0.992
						c-0.253-0.223-0.658-0.334-1.213-0.334C102.778,66.593,102.379,66.702,102.13,66.921 M103.071,57.515
						c0.136-0.596,0.226-1.023,0.271-1.281c0.052,0.277,0.157,0.742,0.317,1.387c0.16,0.646,0.296,1.174,0.408,1.58l0.481,1.83
						h-2.374C102.639,59.28,102.937,58.11,103.071,57.515 M101.313,54.394l-3.64,11.199h3.312l0.564-2.09h3.624l0.549,2.09h3.296
						l-3.685-11.199H101.313z"/>
				</defs>
				<clipPath id="SVGID_32_">
					<use xlink:href="#SVGID_31_"  overflow="visible"/>
				</clipPath>
				
					<linearGradient id="SVGID_33_" gradientUnits="userSpaceOnUse" x1="-25.1035" y1="626.6162" x2="-24.1035" y2="626.6162" gradientTransform="matrix(239.0852 0 0 -239.0852 6022.6563 149876.4219)">
					<stop  offset="0" style="stop-color:#209EC7"/>
					<stop  offset="0.9946" style="stop-color:#DE6364"/>
					<stop  offset="1" style="stop-color:#DE6364"/>
				</linearGradient>
				<rect x="97.674" y="54.394" clip-path="url(#SVGID_32_)" fill="url(#SVGID_33_)" width="11.345" height="14.854"/>
			</g>
			<g>
				<defs>
					<path id="SVGID_34_" d="M118.157,54.44v5.043c0,0.68,0.035,1.584,0.107,2.707h-0.046l-4.058-7.75h-3.938v11.152h2.67v-5.027
						c0-0.65-0.048-1.594-0.145-2.83h0.068l4.073,7.857h3.952V54.44H118.157z"/>
				</defs>
				<clipPath id="SVGID_35_">
					<use xlink:href="#SVGID_34_"  overflow="visible"/>
				</clipPath>
				
					<linearGradient id="SVGID_36_" gradientUnits="userSpaceOnUse" x1="-25.103" y1="626.6172" x2="-24.103" y2="626.6172" gradientTransform="matrix(239.0852 0 0 -239.0852 6022.6563 149874.6719)">
					<stop  offset="0" style="stop-color:#209EC7"/>
					<stop  offset="0.9946" style="stop-color:#DE6364"/>
					<stop  offset="1" style="stop-color:#DE6364"/>
				</linearGradient>
				<rect x="110.224" y="54.44" clip-path="url(#SVGID_35_)" fill="url(#SVGID_36_)" width="10.619" height="11.152"/>
			</g>
			<g>
				<defs>
					<path id="SVGID_37_" d="M130.325,56.874h0.878c0.823,0,1.438,0.246,1.842,0.74c0.403,0.492,0.606,1.25,0.606,2.271
						c0,1.096-0.213,1.906-0.641,2.438c-0.427,0.531-1.099,0.799-2.014,0.799h-0.672v-1.824h1.609v-2.441h-1.609V56.874z
						 M127.312,54.44v4.416h-0.968v2.441h0.968v4.295h3.608c1.856,0,3.298-0.504,4.321-1.51c1.025-1.008,1.537-2.443,1.537-4.303
						c0-1.73-0.486-3.051-1.459-3.967c-0.975-0.916-2.357-1.373-4.147-1.373H127.312z"/>
				</defs>
				<clipPath id="SVGID_38_">
					<use xlink:href="#SVGID_37_"  overflow="visible"/>
				</clipPath>
				
					<linearGradient id="SVGID_39_" gradientUnits="userSpaceOnUse" x1="-25.0981" y1="626.6172" x2="-24.1093" y2="626.6172" gradientTransform="matrix(239.0852 0 0 -239.0852 6022.6563 149874.6719)">
					<stop  offset="0" style="stop-color:#209EC7"/>
					<stop  offset="0.9946" style="stop-color:#DE6364"/>
					<stop  offset="1" style="stop-color:#DE6364"/>
				</linearGradient>
				<rect x="126.344" y="54.44" clip-path="url(#SVGID_38_)" fill="url(#SVGID_39_)" width="10.435" height="11.152"/>
			</g>
			<g>
				<defs>
					<path id="SVGID_40_" d="M142.97,57.515c0.135-0.596,0.225-1.023,0.271-1.281c0.051,0.277,0.156,0.742,0.316,1.387
						c0.16,0.646,0.297,1.174,0.408,1.58l0.48,1.83h-2.373C142.537,59.28,142.835,58.11,142.97,57.515 M141.212,54.394
						l-3.639,11.199h3.311l0.564-2.09h3.623l0.55,2.09h3.296l-3.686-11.199H141.212z M145.125,50.954
						c-0.045,0.244-0.112,0.428-0.198,0.557c-0.086,0.127-0.203,0.191-0.352,0.191c-0.193,0-0.398-0.039-0.616-0.117
						c-0.22-0.074-0.44-0.16-0.665-0.25c-0.225-0.092-0.444-0.176-0.663-0.252s-0.425-0.115-0.618-0.115
						c-0.605,0-1.063,0.213-1.374,0.639c-0.309,0.424-0.493,1.082-0.549,1.971h1.374c0.091-0.498,0.273-0.748,0.549-0.748
						c0.188,0,0.389,0.039,0.598,0.115c0.213,0.076,0.431,0.16,0.653,0.252c0.224,0.092,0.452,0.176,0.683,0.252
						c0.231,0.076,0.463,0.115,0.69,0.115c0.556,0,0.992-0.223,1.312-0.668c0.322-0.445,0.51-1.094,0.565-1.941H145.125z"/>
				</defs>
				<clipPath id="SVGID_41_">
					<use xlink:href="#SVGID_40_"  overflow="visible"/>
				</clipPath>
				
					<linearGradient id="SVGID_42_" gradientUnits="userSpaceOnUse" x1="-25.0981" y1="626.6162" x2="-24.1083" y2="626.6162" gradientTransform="matrix(239.0852 0 0 -239.0852 6022.6563 149872.9219)">
					<stop  offset="0" style="stop-color:#209EC7"/>
					<stop  offset="0.9946" style="stop-color:#DE6364"/>
					<stop  offset="1" style="stop-color:#DE6364"/>
				</linearGradient>
				<rect x="137.573" y="50.954" clip-path="url(#SVGID_41_)" fill="url(#SVGID_42_)" width="11.344" height="14.639"/>
			</g>
			<g>
				<defs>
					<path id="SVGID_43_" d="M156.298,54.985c-0.817,0.471-1.442,1.143-1.877,2.018s-0.652,1.891-0.652,3.043
						c0,1.848,0.449,3.258,1.347,4.234s2.188,1.465,3.872,1.465c1.174,0,2.227-0.205,3.157-0.617v-2.549
						c-0.468,0.193-0.933,0.359-1.396,0.496s-0.941,0.207-1.435,0.207c-1.632,0-2.448-1.074-2.448-3.219
						c0-1.033,0.2-1.844,0.602-2.432c0.403-0.588,0.962-0.881,1.679-0.881c0.474,0,0.915,0.066,1.327,0.199
						c0.413,0.131,0.824,0.295,1.236,0.488l0.924-2.373c-1.099-0.523-2.251-0.785-3.456-0.785
						C158.074,54.28,157.114,54.515,156.298,54.985"/>
				</defs>
				<clipPath id="SVGID_44_">
					<use xlink:href="#SVGID_43_"  overflow="visible"/>
				</clipPath>
				
					<linearGradient id="SVGID_45_" gradientUnits="userSpaceOnUse" x1="-25.103" y1="626.6172" x2="-24.103" y2="626.6172" gradientTransform="matrix(239.0852 0 0 -239.0852 6022.6563 149874.6719)">
					<stop  offset="0" style="stop-color:#209EC7"/>
					<stop  offset="0.9946" style="stop-color:#DE6364"/>
					<stop  offset="1" style="stop-color:#DE6364"/>
				</linearGradient>
				<rect x="153.769" y="54.28" clip-path="url(#SVGID_44_)" fill="url(#SVGID_45_)" width="8.865" height="11.465"/>
			</g>
			<g>
				<defs>
					<polygon id="SVGID_46_" points="170.85,54.44 170.85,58.575 167.348,58.575 167.348,54.44 164.319,54.44 164.319,65.593 
						167.348,65.593 167.348,61.046 170.85,61.046 170.85,65.593 173.878,65.593 173.878,54.44 					"/>
				</defs>
				<clipPath id="SVGID_47_">
					<use xlink:href="#SVGID_46_"  overflow="visible"/>
				</clipPath>
				
					<linearGradient id="SVGID_48_" gradientUnits="userSpaceOnUse" x1="-25.103" y1="626.6172" x2="-24.103" y2="626.6172" gradientTransform="matrix(239.0852 0 0 -239.0852 6022.6563 149874.6719)">
					<stop  offset="0" style="stop-color:#209EC7"/>
					<stop  offset="0.9946" style="stop-color:#DE6364"/>
					<stop  offset="1" style="stop-color:#DE6364"/>
				</linearGradient>
				<rect x="164.319" y="54.44" clip-path="url(#SVGID_47_)" fill="url(#SVGID_48_)" width="9.559" height="11.152"/>
			</g>
			<g>
				<defs>
					<rect id="SVGID_49_" x="176.288" y="54.44" width="3.028" height="11.152"/>
				</defs>
				<clipPath id="SVGID_50_">
					<use xlink:href="#SVGID_49_"  overflow="visible"/>
				</clipPath>
				
					<linearGradient id="SVGID_51_" gradientUnits="userSpaceOnUse" x1="-25.103" y1="626.6172" x2="-24.103" y2="626.6172" gradientTransform="matrix(239.0852 0 0 -239.0852 6022.6563 149874.6719)">
					<stop  offset="0" style="stop-color:#209EC7"/>
					<stop  offset="0.9946" style="stop-color:#DE6364"/>
					<stop  offset="1" style="stop-color:#DE6364"/>
				</linearGradient>
				<rect x="176.288" y="54.44" clip-path="url(#SVGID_50_)" fill="url(#SVGID_51_)" width="3.028" height="11.152"/>
			</g>
			<g>
				<defs>
					<path id="SVGID_52_" d="M185.92,57.515c0.135-0.596,0.225-1.023,0.271-1.281c0.051,0.277,0.157,0.742,0.317,1.387
						c0.16,0.646,0.296,1.174,0.408,1.58l0.479,1.83h-2.372C185.486,59.28,185.785,58.11,185.92,57.515 M184.162,54.394
						l-3.64,11.199h3.312l0.563-2.09h3.624l0.55,2.09h3.295l-3.685-11.199H184.162z"/>
				</defs>
				<clipPath id="SVGID_53_">
					<use xlink:href="#SVGID_52_"  overflow="visible"/>
				</clipPath>
				
					<linearGradient id="SVGID_54_" gradientUnits="userSpaceOnUse" x1="-25.103" y1="626.6172" x2="-24.103" y2="626.6172" gradientTransform="matrix(239.0852 0 0 -239.0852 6022.6563 149874.6719)">
					<stop  offset="0" style="stop-color:#209EC7"/>
					<stop  offset="0.9946" style="stop-color:#DE6364"/>
					<stop  offset="1" style="stop-color:#DE6364"/>
				</linearGradient>
				<rect x="180.522" y="54.394" clip-path="url(#SVGID_53_)" fill="url(#SVGID_54_)" width="11.344" height="11.199"/>
			</g>
			<g>
				<defs>
					<path id="SVGID_55_" d="M197.809,55.14c-0.747,0.576-1.121,1.379-1.121,2.404c0,0.549,0.089,1.025,0.264,1.428
						c0.176,0.4,0.444,0.758,0.809,1.066c0.363,0.311,0.909,0.631,1.636,0.961c0.805,0.363,1.3,0.602,1.484,0.719
						s0.32,0.232,0.404,0.348c0.085,0.113,0.126,0.248,0.126,0.4c0,0.242-0.104,0.443-0.313,0.598
						c-0.209,0.156-0.538,0.232-0.984,0.232c-0.519,0-1.089-0.082-1.709-0.248c-0.62-0.164-1.219-0.395-1.792-0.689v2.686
						c0.544,0.258,1.067,0.441,1.571,0.545c0.503,0.105,1.125,0.156,1.868,0.156c0.89,0,1.666-0.148,2.327-0.445
						c0.661-0.299,1.168-0.715,1.518-1.252c0.352-0.537,0.526-1.15,0.526-1.842c0-0.754-0.186-1.377-0.56-1.873
						s-1.042-0.961-2.003-1.393c-1.003-0.457-1.615-0.773-1.843-0.945c-0.226-0.172-0.339-0.369-0.339-0.588
						c0-0.203,0.089-0.373,0.268-0.512c0.177-0.137,0.462-0.205,0.854-0.205c0.758,0,1.658,0.238,2.701,0.717l0.922-2.326
						c-1.199-0.535-2.377-0.801-3.531-0.801C199.584,54.28,198.557,54.567,197.809,55.14"/>
				</defs>
				<clipPath id="SVGID_56_">
					<use xlink:href="#SVGID_55_"  overflow="visible"/>
				</clipPath>
				
					<linearGradient id="SVGID_57_" gradientUnits="userSpaceOnUse" x1="-25.103" y1="626.6172" x2="-24.103" y2="626.6172" gradientTransform="matrix(239.0852 0 0 -239.0852 6022.6563 149874.6719)">
					<stop  offset="0" style="stop-color:#209EC7"/>
					<stop  offset="0.9946" style="stop-color:#DE6364"/>
					<stop  offset="1" style="stop-color:#DE6364"/>
				</linearGradient>
				<rect x="196.612" y="54.28" clip-path="url(#SVGID_56_)" fill="url(#SVGID_57_)" width="7.811" height="11.465"/>
			</g>
			<g>
				<defs>
					<path id="SVGID_58_" d="M206.147,54.44v11.152h6.621v-2.457h-3.607V61.03h3.342v-2.418h-3.342v-1.754h3.607V54.44H206.147z
						 M207.688,50.19v1.557c0.307-0.102,0.521-0.162,0.642-0.184c0.123-0.021,0.259-0.031,0.412-0.031
						c0.157,0,0.288,0.043,0.389,0.131c0.102,0.086,0.153,0.203,0.153,0.35c0,0.189-0.059,0.338-0.176,0.447
						c-0.116,0.109-0.344,0.186-0.68,0.225l0.214,0.984h1.579l0.085-0.357c0.438-0.117,0.761-0.316,0.973-0.596
						c0.211-0.279,0.315-0.619,0.315-1.014c0-0.555-0.188-0.986-0.567-1.291s-0.933-0.457-1.659-0.457
						C208.721,49.954,208.162,50.032,207.688,50.19"/>
				</defs>
				<clipPath id="SVGID_59_">
					<use xlink:href="#SVGID_58_"  overflow="visible"/>
				</clipPath>
				
					<linearGradient id="SVGID_60_" gradientUnits="userSpaceOnUse" x1="-25.1172" y1="626.6162" x2="-24.0993" y2="626.6162" gradientTransform="matrix(239.0852 0 0 -239.0852 6022.6563 149872.4219)">
					<stop  offset="0" style="stop-color:#209EC7"/>
					<stop  offset="0.9946" style="stop-color:#DE6364"/>
					<stop  offset="1" style="stop-color:#DE6364"/>
				</linearGradient>
				<rect x="206.147" y="49.954" clip-path="url(#SVGID_59_)" fill="url(#SVGID_60_)" width="6.621" height="15.639"/>
			</g>
			<g>
				<defs>
					<polygon id="SVGID_61_" points="217.965,54.44 217.965,56.903 220.688,56.903 220.688,65.593 223.701,65.593 223.701,56.903 
						226.417,56.903 226.417,54.44 					"/>
				</defs>
				<clipPath id="SVGID_62_">
					<use xlink:href="#SVGID_61_"  overflow="visible"/>
				</clipPath>
				
					<linearGradient id="SVGID_63_" gradientUnits="userSpaceOnUse" x1="-25.103" y1="626.6172" x2="-24.103" y2="626.6172" gradientTransform="matrix(239.0852 0 0 -239.0852 6022.6563 149874.6719)">
					<stop  offset="0" style="stop-color:#209EC7"/>
					<stop  offset="0.9946" style="stop-color:#DE6364"/>
					<stop  offset="1" style="stop-color:#DE6364"/>
				</linearGradient>
				<rect x="217.965" y="54.44" clip-path="url(#SVGID_62_)" fill="url(#SVGID_63_)" width="8.452" height="11.152"/>
			</g>
			<g>
				<defs>
					<polygon id="SVGID_64_" points="234.542,54.44 234.542,58.575 231.04,58.575 231.04,54.44 228.011,54.44 228.011,65.593 
						231.04,65.593 231.04,61.046 234.542,61.046 234.542,65.593 237.57,65.593 237.57,54.44 					"/>
				</defs>
				<clipPath id="SVGID_65_">
					<use xlink:href="#SVGID_64_"  overflow="visible"/>
				</clipPath>
				
					<linearGradient id="SVGID_66_" gradientUnits="userSpaceOnUse" x1="-25.103" y1="626.6172" x2="-24.103" y2="626.6172" gradientTransform="matrix(239.0852 0 0 -239.0852 6022.6563 149874.6719)">
					<stop  offset="0" style="stop-color:#209EC7"/>
					<stop  offset="0.9946" style="stop-color:#DE6364"/>
					<stop  offset="1" style="stop-color:#DE6364"/>
				</linearGradient>
				<rect x="228.011" y="54.44" clip-path="url(#SVGID_65_)" fill="url(#SVGID_66_)" width="9.559" height="11.152"/>
			</g>
			<g>
				<defs>
					<path id="SVGID_67_" d="M244.173,57.515c0.135-0.596,0.226-1.023,0.271-1.281c0.051,0.277,0.155,0.742,0.315,1.387
						c0.161,0.646,0.296,1.174,0.409,1.58l0.48,1.83h-2.373C243.74,59.28,244.039,58.11,244.173,57.515 M242.415,54.394
						l-3.641,11.199h3.312l0.565-2.09h3.623l0.55,2.09h3.296l-3.686-11.199H242.415z M240.851,51.044v0.162
						c0.479,0.375,1.06,0.803,1.743,1.285c0.685,0.48,1.202,0.832,1.553,1.057h1.983v-0.223l-0.45-0.502
						c-0.768-0.83-1.284-1.422-1.549-1.779H240.851z"/>
				</defs>
				<clipPath id="SVGID_68_">
					<use xlink:href="#SVGID_67_"  overflow="visible"/>
				</clipPath>
				
					<linearGradient id="SVGID_69_" gradientUnits="userSpaceOnUse" x1="-25.103" y1="626.6162" x2="-24.103" y2="626.6162" gradientTransform="matrix(239.0852 0 0 -239.0852 6022.6563 149872.9219)">
					<stop  offset="0" style="stop-color:#209EC7"/>
					<stop  offset="0.9946" style="stop-color:#DE6364"/>
					<stop  offset="1" style="stop-color:#DE6364"/>
				</linearGradient>
				<rect x="238.774" y="51.044" clip-path="url(#SVGID_68_)" fill="url(#SVGID_69_)" width="11.346" height="14.549"/>
			</g>
			<g>
				<defs>
					<path id="SVGID_70_" d="M259.259,54.44v5.043c0,0.68,0.036,1.584,0.107,2.707h-0.046l-4.059-7.75h-3.937v11.152h2.67v-5.027
						c0-0.65-0.048-1.594-0.146-2.83h0.069l4.073,7.857h3.952V54.44H259.259z"/>
				</defs>
				<clipPath id="SVGID_71_">
					<use xlink:href="#SVGID_70_"  overflow="visible"/>
				</clipPath>
				
					<linearGradient id="SVGID_72_" gradientUnits="userSpaceOnUse" x1="-25.1035" y1="626.6172" x2="-24.1035" y2="626.6172" gradientTransform="matrix(239.0852 0 0 -239.0852 6022.6563 149874.6719)">
					<stop  offset="0" style="stop-color:#209EC7"/>
					<stop  offset="0.9946" style="stop-color:#DE6364"/>
					<stop  offset="1" style="stop-color:#DE6364"/>
				</linearGradient>
				<rect x="251.325" y="54.44" clip-path="url(#SVGID_71_)" fill="url(#SVGID_72_)" width="10.619" height="11.152"/>
			</g>
			<g>
				<defs>
					<polygon id="SVGID_73_" points="270.886,54.44 270.886,58.575 267.384,58.575 267.384,54.44 264.354,54.44 264.354,65.593 
						267.384,65.593 267.384,61.046 270.886,61.046 270.886,65.593 273.914,65.593 273.914,54.44 					"/>
				</defs>
				<clipPath id="SVGID_74_">
					<use xlink:href="#SVGID_73_"  overflow="visible"/>
				</clipPath>
				
					<linearGradient id="SVGID_75_" gradientUnits="userSpaceOnUse" x1="-25.103" y1="626.6172" x2="-24.103" y2="626.6172" gradientTransform="matrix(239.0852 0 0 -239.0852 6022.6563 149874.6719)">
					<stop  offset="0" style="stop-color:#209EC7"/>
					<stop  offset="0.9946" style="stop-color:#DE6364"/>
					<stop  offset="1" style="stop-color:#DE6364"/>
				</linearGradient>
				<rect x="264.354" y="54.44" clip-path="url(#SVGID_74_)" fill="url(#SVGID_75_)" width="9.56" height="11.152"/>
			</g>
			<g>
				<defs>
					<path id="SVGID_76_" d="M282.5,54.985c-0.816,0.471-1.442,1.143-1.876,2.018c-0.437,0.875-0.653,1.891-0.653,3.043
						c0,1.848,0.449,3.258,1.346,4.234c0.898,0.977,2.188,1.465,3.872,1.465c1.176,0,2.229-0.205,3.158-0.617v-2.549
						c-0.468,0.193-0.933,0.359-1.396,0.496c-0.462,0.137-0.941,0.207-1.435,0.207c-1.633,0-2.449-1.074-2.449-3.219
						c0-1.033,0.201-1.844,0.604-2.432c0.401-0.588,0.961-0.881,1.678-0.881c0.474,0,0.916,0.066,1.328,0.199
						c0.411,0.131,0.823,0.295,1.236,0.488l0.922-2.373c-1.098-0.523-2.25-0.785-3.455-0.785
						C284.276,54.28,283.315,54.515,282.5,54.985"/>
				</defs>
				<clipPath id="SVGID_77_">
					<use xlink:href="#SVGID_76_"  overflow="visible"/>
				</clipPath>
				
					<linearGradient id="SVGID_78_" gradientUnits="userSpaceOnUse" x1="-25.103" y1="626.6172" x2="-24.103" y2="626.6172" gradientTransform="matrix(239.0852 0 0 -239.0852 6022.6563 149874.6719)">
					<stop  offset="0" style="stop-color:#209EC7"/>
					<stop  offset="0.9946" style="stop-color:#DE6364"/>
					<stop  offset="1" style="stop-color:#DE6364"/>
				</linearGradient>
				<rect x="279.971" y="54.28" clip-path="url(#SVGID_77_)" fill="url(#SVGID_78_)" width="8.864" height="11.465"/>
			</g>
			<g>
				<defs>
					<path id="SVGID_79_" d="M293.283,60.001c0-2.178,0.755-3.266,2.266-3.266c0.743,0,1.301,0.266,1.674,0.799
						c0.375,0.531,0.562,1.352,0.562,2.467c0,1.109-0.186,1.926-0.554,2.449s-0.935,0.785-1.696,0.785
						C294.034,63.235,293.283,62.157,293.283,60.001 M291.502,55.733c-0.928,0.979-1.392,2.395-1.392,4.252
						c0,1.877,0.466,3.307,1.398,4.289c0.933,0.98,2.275,1.471,4.025,1.471c1.774,0,3.122-0.488,4.043-1.465
						c0.92-0.977,1.38-2.402,1.38-4.279c0-1.881-0.457-3.309-1.372-4.279c-0.916-0.973-2.261-1.457-4.036-1.457
						C293.779,54.265,292.43,54.753,291.502,55.733 M294.053,51.044c-0.191,0.295-0.48,0.668-0.865,1.115
						c-0.384,0.447-0.752,0.836-1.103,1.166v0.223h1.968c0.352-0.219,0.845-0.602,1.481-1.145c0.595,0.518,1.105,0.9,1.532,1.145
						h1.938v-0.223c-0.823-0.822-1.474-1.584-1.953-2.281H294.053z"/>
				</defs>
				<clipPath id="SVGID_80_">
					<use xlink:href="#SVGID_79_"  overflow="visible"/>
				</clipPath>
				
					<linearGradient id="SVGID_81_" gradientUnits="userSpaceOnUse" x1="-25.103" y1="626.6162" x2="-24.103" y2="626.6162" gradientTransform="matrix(239.0852 0 0 -239.0852 6022.6563 149873.1719)">
					<stop  offset="0" style="stop-color:#209EC7"/>
					<stop  offset="0.9946" style="stop-color:#DE6364"/>
					<stop  offset="1" style="stop-color:#DE6364"/>
				</linearGradient>
				<rect x="290.109" y="51.044" clip-path="url(#SVGID_80_)" fill="url(#SVGID_81_)" width="10.848" height="14.701"/>
			</g>
			<g>
				<defs>
					<path id="SVGID_82_" d="M310.906,54.44v5.043c0,0.68,0.034,1.584,0.105,2.707h-0.046l-4.058-7.75h-3.937v11.152h2.67v-5.027
						c0-0.65-0.049-1.594-0.145-2.83h0.067l4.075,7.857h3.951V54.44H310.906z"/>
				</defs>
				<clipPath id="SVGID_83_">
					<use xlink:href="#SVGID_82_"  overflow="visible"/>
				</clipPath>
				
					<linearGradient id="SVGID_84_" gradientUnits="userSpaceOnUse" x1="-25.103" y1="626.6172" x2="-24.103" y2="626.6172" gradientTransform="matrix(239.0852 0 0 -239.0852 6022.6563 149874.6719)">
					<stop  offset="0" style="stop-color:#209EC7"/>
					<stop  offset="0.9946" style="stop-color:#DE6364"/>
					<stop  offset="1" style="stop-color:#DE6364"/>
				</linearGradient>
				<rect x="302.972" y="54.44" clip-path="url(#SVGID_83_)" fill="url(#SVGID_84_)" width="10.619" height="11.152"/>
			</g>
			<g>
				<defs>
					<path id="SVGID_85_" d="M317.13,55.782c-1.027,1.002-1.541,2.404-1.541,4.203c0,1.846,0.469,3.268,1.408,4.264
						c0.938,0.998,2.267,1.496,3.985,1.496c1.566,0,3.003-0.223,4.311-0.67v-6.012h-4.814v2.326h1.992v1.746
						c-0.376,0.086-0.788,0.131-1.235,0.131c-0.819,0-1.446-0.273-1.882-0.82c-0.434-0.547-0.651-1.342-0.651-2.383
						c0-1.064,0.24-1.883,0.721-2.453c0.48-0.572,1.161-0.859,2.041-0.859c0.961,0,1.843,0.199,2.646,0.594l0.954-2.363
						c-0.464-0.203-1.007-0.371-1.629-0.504c-0.623-0.133-1.286-0.197-1.987-0.197C319.597,54.28,318.158,54.78,317.13,55.782"/>
				</defs>
				<clipPath id="SVGID_86_">
					<use xlink:href="#SVGID_85_"  overflow="visible"/>
				</clipPath>
				
					<linearGradient id="SVGID_87_" gradientUnits="userSpaceOnUse" x1="-25.103" y1="626.6172" x2="-24.103" y2="626.6172" gradientTransform="matrix(239.0852 0 0 -239.0852 6022.6563 149874.6719)">
					<stop  offset="0" style="stop-color:#209EC7"/>
					<stop  offset="0.9946" style="stop-color:#DE6364"/>
					<stop  offset="1" style="stop-color:#DE6364"/>
				</linearGradient>
				<rect x="315.589" y="54.28" clip-path="url(#SVGID_86_)" fill="url(#SVGID_87_)" width="9.704" height="11.465"/>
			</g>
		</g>
		<path d="M23.231,31.902l-5.497,5.524l17.709,17.71l39.385-39.385l-5.521-5.519L35.443,44.116L23.231,31.902z M70.886,39.385
			c0,17.33-14.174,31.498-31.5,31.498c-17.329,0-31.497-14.168-31.497-31.498c0-17.329,14.168-31.498,31.497-31.498
			c3.156,0,5.904,0.383,8.672,1.171l6.289-6.305C49.616,1.174,44.5,0,39.385,0C17.734,0,0,17.733,0,39.385
			C0,61.036,17.734,78.77,39.385,78.77c21.654,0,39.385-17.733,39.385-39.385H70.886z"/>
	</g>
	<g>
		<defs>
			<path id="SVGID_88_" d="M329.118,61.537c-0.276,0.255-0.415,0.616-0.415,1.084c0,0.462,0.146,0.822,0.435,1.076
				c0.29,0.254,0.687,0.381,1.189,0.381c0.489,0,0.871-0.129,1.149-0.385c0.276-0.257,0.415-0.614,0.415-1.072
				c0-0.468-0.135-0.829-0.404-1.084c-0.27-0.254-0.656-0.38-1.16-0.38C329.799,61.157,329.396,61.283,329.118,61.537"/>
		</defs>
		<clipPath id="SVGID_89_">
			<use xlink:href="#SVGID_88_"  overflow="visible"/>
		</clipPath>
		
			<linearGradient id="SVGID_90_" gradientUnits="userSpaceOnUse" x1="-25.1436" y1="626.624" x2="-24.1065" y2="626.624" gradientTransform="matrix(239.0852 0 0 -239.0852 6022.6563 149878.9219)">
			<stop  offset="0" style="stop-color:#209EC7"/>
			<stop  offset="0.9946" style="stop-color:#DE6364"/>
			<stop  offset="1" style="stop-color:#DE6364"/>
		</linearGradient>
		<rect x="328.703" y="61.157" clip-path="url(#SVGID_89_)" fill="url(#SVGID_90_)" width="3.188" height="2.921"/>
	</g>
</g>
</svg>
